<svg xmlns="http://www.w3.org/2000/svg">
<defs>
<font id="GTAmerica-ExtendedMedium" horiz-adv-x="697" >
  <font-face 
    font-family="GT America Extended Medium"
    font-weight="500"
    font-stretch="expanded"
    units-per-em="1000"
    panose-1="0 0 6 5 0 0 0 0 0 0"
    ascent="800"
    descent="-200"
    x-height="500"
    cap-height="710"
    bbox="-491 -241 1371 959"
    underline-thickness="50"
    underline-position="-100"
    stemh="106"
    stemv="138"
    unicode-range="U+000D-FB02"
  />
<missing-glyph horiz-adv-x="1018" 
d="M998 663h-552v-47h552v-48h-552v-47h552v-48h-552v-47h552v-47h-552v-48h552v-47h-978v426h978v-47zM67 667l13 9h-16l-5 15l-4 -15h-16l13 -9l-5 -15l12 9l13 -9zM142 676h-16l13 -9l-5 -15l12 10l13 -10l-5 15l12 9h-15l-5 15zM229 676h-16l13 -9l-5 -15l12 10l13 -10
l-5 15l12 9h-15l-5 15zM315 676h-15l13 -9l-5 -15l12 10l13 -10l-5 15l12 9h-15l-5 15zM415 667l12 9h-15l-5 15l-5 -15h-15l12 -9l-4 -15l12 10l13 -10zM98 632h-15l12 -9l-4 -14l12 9l12 -9l-4 14l12 9h-15l-5 15zM371 623l13 9h-16l-4 15l-5 -15h-15l12 -9l-5 -14l13 9
l12 -9zM273 364v93h94v80h-94v94h-80v-94h-93v-80h93v-93h80zM67 580l13 9h-16l-5 14l-4 -14h-16l13 -9l-5 -15l12 9l13 -9zM142 589h-16l13 -9l-5 -15l12 9l13 -9l-5 15l12 9h-15l-5 14zM315 589h-15l13 -9l-5 -15l12 9l13 -9l-5 15l12 9h-15l-5 14zM415 580l12 9h-15
l-5 14l-5 -14h-15l12 -9l-4 -15l12 9l13 -9zM67 492l13 10h-16l-5 14l-4 -14h-16l13 -10l-5 -14l12 9l13 -9zM415 492l12 10h-15l-5 14l-5 -14h-15l12 -10l-4 -14l12 9l13 -9zM67 405l13 9h-16l-5 15l-4 -15h-16l13 -9l-5 -14l12 9l13 -9zM154 405l12 9h-15l-5 15l-4 -15
h-16l13 -9l-5 -14l12 9l13 -9zM328 405l12 9h-15l-5 15l-5 -15h-15l13 -9l-5 -14l12 9l13 -9zM415 405l12 9h-15l-5 15l-5 -15h-15l12 -9l-4 -14l12 9l13 -9zM115 347l-4 15l12 9h-15l-5 14l-5 -14h-15l12 -9l-4 -15l12 9zM376 347l-5 15l13 9h-16l-4 14l-5 -14h-15l12 -9

<glyph glyph-name="fi" unicode="fi" horiz-adv-x="750" 
d="M429 500v-91h-165v-409h-130v409h-115v91h115v50c0 118 71 183 205 183c33 0 64 -4 90 -10v-97c-25 5 -50 7 -75 7c-64 0 -90 -26 -90 -88v-45h165zM529 583v129h141v-129h-141zM535 0v500h129v-500h-129z" />
    <glyph glyph-name="fl" unicode="fl" horiz-adv-x="760" 
d="M429 500v-91h-165v-409h-130v409h-115v91h115v50c0 118 71 183 205 183c33 0 64 -4 90 -10v-97c-25 5 -50 7 -75 7c-64 0 -90 -26 -90 -88v-45h165zM669 725v-725h-129v725h129z" />
    <glyph glyph-name="g_g.liga" unicode="gg" horiz-adv-x="1276" 
d="M458 494c15 55 61 91 136 91c13 0 25 -1 36 -3v-93c-14 3 -27 5 -47 5c-31 0 -57 -9 -72 -29c38 -29 60 -71 60 -121c0 -106 -97 -173 -250 -173c-49 0 -92 7 -128 20c-22 -9 -34 -23 -34 -40c0 -28 23 -45 76 -45h179c133 0 188 -57 188 -144c0 -106 -94 -172 -299 -172
c-165 0 -270 38 -270 126c0 50 35 82 91 99c-49 17 -73 50 -73 92c0 51 34 89 94 107c-47 30 -74 75 -74 130c0 107 97 172 250 172c53 0 99 -8 137 -22zM1207 496c-34 0 -59 -10 -74 -31c39 -30 61 -71 61 -121c0 -107 -100 -174 -251 -174c-45 0 -86 6 -121 18
c-17 -9 -27 -22 -27 -37c0 -28 22 -45 80 -45h182c133 -1 188 -57 188 -144c0 -107 -102 -172 -304 -172c-163 0 -269 38 -269 126c0 48 34 80 88 97c-51 18 -74 51 -74 93c0 48 32 86 86 104c-50 30 -79 76 -79 134c0 106 97 172 250 172c53 0 100 -8 138 -23
c15 56 62 92 137 92c13 0 25 -1 36 -4v-90c-14 3 -27 5 -47 5zM321 246c75 0 124 38 124 98c0 61 -48 96 -124 96c-75 0 -123 -35 -123 -96c0 -60 48 -98 123 -98zM943 246c76 0 124 37 124 98c0 60 -48 96 -124 96c-75 0 -123 -36 -123 -96c0 -61 48 -98 123 -98zM394 0
l-180 1c-14 0 -26 1 -38 2c-27 -14 -39 -33 -39 -58c0 -56 67 -77 180 -77c120 0 167 24 167 73c0 42 -28 59 -90 59zM1037 0h-184c-13 0 -26 1 -38 2c-26 -14 -38 -34 -38 -58c0 -56 67 -76 179 -76c119 0 170 24 170 73c0 41 -28 59 -89 59z" />
    <glyph glyph-name=".notdef" horiz-adv-x="1018" 
d="M998 663h-552v-47h552v-48h-552v-47h552v-48h-552v-47h552v-47h-552v-48h552v-47h-978v426h978v-47zM67 667l13 9h-16l-5 15l-4 -15h-16l13 -9l-5 -15l12 9l13 -9zM142 676h-16l13 -9l-5 -15l12 10l13 -10l-5 15l12 9h-15l-5 15zM229 676h-16l13 -9l-5 -15l12 10l13 -10
l-5 15l12 9h-15l-5 15zM315 676h-15l13 -9l-5 -15l12 10l13 -10l-5 15l12 9h-15l-5 15zM415 667l12 9h-15l-5 15l-5 -15h-15l12 -9l-4 -15l12 10l13 -10zM98 632h-15l12 -9l-4 -14l12 9l12 -9l-4 14l12 9h-15l-5 15zM371 623l13 9h-16l-4 15l-5 -15h-15l12 -9l-5 -14l13 9
l12 -9zM273 364v93h94v80h-94v94h-80v-94h-93v-80h93v-93h80zM67 580l13 9h-16l-5 14l-4 -14h-16l13 -9l-5 -15l12 9l13 -9zM142 589h-16l13 -9l-5 -15l12 9l13 -9l-5 15l12 9h-15l-5 14zM315 589h-15l13 -9l-5 -15l12 9l13 -9l-5 15l12 9h-15l-5 14zM415 580l12 9h-15
l-5 14l-5 -14h-15l12 -9l-4 -15l12 9l13 -9zM67 492l13 10h-16l-5 14l-4 -14h-16l13 -10l-5 -14l12 9l13 -9zM415 492l12 10h-15l-5 14l-5 -14h-15l12 -10l-4 -14l12 9l13 -9zM67 405l13 9h-16l-5 15l-4 -15h-16l13 -9l-5 -14l12 9l13 -9zM154 405l12 9h-15l-5 15l-4 -15
h-16l13 -9l-5 -14l12 9l13 -9zM328 405l12 9h-15l-5 15l-5 -15h-15l13 -9l-5 -14l12 9l13 -9zM415 405l12 9h-15l-5 15l-5 -15h-15l12 -9l-4 -14l12 9l13 -9zM115 347l-4 15l12 9h-15l-5 14l-5 -14h-15l12 -9l-4 -15l12 9zM376 347l-5 15l13 9h-16l-4 14l-5 -14h-15l12 -9
l-5 -15l13 9zM72 303l-5 15l13 9h-16l-5 15l-4 -15h-16l13 -9l-5 -15l12 9zM159 303l-5 15l12 9h-15l-5 15l-4 -15h-16l13 -9l-5 -15l12 9zM246 303l-5 15l12 9h-15l-5 15l-4 -15h-16l13 -9l-5 -15l12 9zM333 303l-5 15l12 9h-15l-5 15l-5 -15h-15l13 -9l-5 -15l12 9z
M420 303l-5 15l12 9h-15l-5 15l-5 -15h-15l12 -9l-4 -15l12 9zM20 189v48h977v-48h-977zM20 95v47h978v-47h-978zM20 0v47h978v-47h-978z" />
    <glyph glyph-name="CR" unicode="&#xd;" horiz-adv-x="0" 
 />
    <glyph glyph-name=".null" horiz-adv-x="0" 
 />
    <glyph glyph-name=".null" horiz-adv-x="0" 
 />
    <glyph glyph-name="space" unicode=" " horiz-adv-x="321" 
 />
    <glyph glyph-name="A" unicode="A" horiz-adv-x="809" 
d="M648 0l-70 173h-347l-70 -173h-145l310 710h157l310 -710h-145zM271 274h267l-88 218c-21 45 -34 74 -44 114h-2c-11 -40 -24 -69 -45 -114z" />
    <glyph glyph-name="B" unicode="B" horiz-adv-x="781" 
d="M585 369c96 -15 147 -78 147 -171c0 -103 -67 -198 -247 -198h-390v710h378c176 0 240 -91 240 -184c0 -72 -42 -136 -128 -157zM447 608h-213v-197h213c103 0 125 52 125 100s-27 97 -125 97zM459 102c96 0 132 47 132 107s-38 104 -128 104h-229v-211h225z" />
    <glyph glyph-name="C" unicode="C" horiz-adv-x="811" 
d="M418 -20c-247 0 -385 155 -385 375c0 223 149 375 390 375c198 0 322 -100 353 -258l-143 -21c-20 105 -95 168 -214 168c-151 0 -242 -103 -242 -263c0 -155 91 -264 245 -264c113 0 189 59 215 161l139 -27c-42 -150 -162 -246 -358 -246z" />
    <glyph glyph-name="D" unicode="D" horiz-adv-x="834" 
d="M95 0v710h327c229 0 379 -132 379 -349c0 -216 -153 -361 -380 -361h-326zM234 104h178c154 0 244 106 244 256c0 151 -93 246 -246 246h-176v-502z" />
    <glyph glyph-name="E" unicode="E" horiz-adv-x="724" 
d="M234 106h426v-106h-565v710h558v-106h-419v-190h402v-103h-402v-205z" />
    <glyph glyph-name="F" unicode="F" horiz-adv-x="692" 
d="M653 603h-419v-192h402v-106h-402v-305h-139v710h558v-107z" />
    <glyph glyph-name="G" unicode="G" horiz-adv-x="837" 
d="M394 -20c-224 0 -361 154 -361 373c0 222 148 377 392 377c204 0 317 -108 345 -223l-143 -24c-18 72 -82 140 -206 140c-154 0 -245 -107 -245 -270c0 -156 87 -266 246 -266c160 0 225 106 227 186v9h-237v101h363v-383h-102l-10 116c-42 -79 -135 -136 -269 -136z" />
    <glyph glyph-name="H" unicode="H" horiz-adv-x="864" 
d="M769 710v-710h-139v308h-396v-308h-139v710h139v-295h396v295h139z" />
    <glyph glyph-name="I" unicode="I" horiz-adv-x="329" 
d="M234 0h-139v710h139v-710z" />
    <glyph glyph-name="J" unicode="J" horiz-adv-x="451" 
d="M375 223c0 -177 -105 -238 -248 -238c-42 0 -80 2 -109 9v116c28 -4 59 -6 90 -6c75 0 129 29 129 138v468h138v-487z" />
    <glyph glyph-name="K" unicode="K" horiz-adv-x="796" 
d="M614 0l-242 342l-138 -132v-210h-139v710h139v-345l350 345h171l-283 -277l305 -433h-163z" />
    <glyph glyph-name="L" unicode="L" horiz-adv-x="651" 
d="M95 0v710h139v-597h394v-113h-533z" />
    <glyph glyph-name="M" unicode="M" horiz-adv-x="1020" 
d="M95 0v710h201l192 -495c10 -31 16 -48 20 -72h2c4 24 10 42 21 72l191 495h203v-710h-127v514c0 29 2 60 5 86h-4c-3 -16 -15 -56 -26 -83l-202 -517h-128l-202 517c-10 27 -20 64 -24 83h-4c3 -25 5 -54 5 -86v-514h-123z" />
    <glyph glyph-name="N" unicode="N" horiz-adv-x="861" 
d="M95 0v710h157l340 -468c21 -30 37 -57 48 -84h2c-1 28 -1 57 -1 93v459h125v-710h-149l-348 472c-19 29 -37 57 -47 83h-3c1 -28 2 -56 2 -92v-463h-126z" />
    <glyph glyph-name="O" unicode="O" horiz-adv-x="850" 
d="M425 -20c-237 0 -392 147 -392 375c0 230 155 375 392 375s392 -145 392 -375c0 -229 -155 -375 -392 -375zM425 89c152 0 247 103 247 266s-95 266 -247 266s-247 -103 -247 -266c0 -161 95 -266 247 -266z" />
    <glyph glyph-name="P" unicode="P" horiz-adv-x="733" 
d="M453 710c160 0 261 -86 261 -221c0 -139 -104 -227 -267 -227h-213v-262h-139v710h358zM425 364c89 0 144 47 144 122s-54 121 -144 121h-191v-243h191z" />
    <glyph glyph-name="Q" unicode="Q" horiz-adv-x="850" 
d="M590 8c44 -43 97 -48 135 -48c26 0 42 3 64 7v-112c-25 -4 -44 -6 -73 -6c-111 0 -193 48 -236 134c-18 -2 -36 -3 -55 -3c-237 0 -392 147 -392 375c0 230 155 375 392 375s392 -145 392 -375c0 -170 -86 -295 -227 -347zM178 355c0 -161 95 -266 247 -266
s247 103 247 266s-95 266 -247 266s-247 -103 -247 -266z" />
    <glyph glyph-name="R" unicode="R" horiz-adv-x="777" 
d="M583 0l-170 278h-179v-278h-139v710h363c196 0 257 -105 257 -215c0 -81 -43 -169 -159 -199l183 -296h-156zM234 607v-229h198c103 0 138 53 138 116c0 62 -34 113 -138 113h-198z" />
    <glyph glyph-name="S" unicode="S" horiz-adv-x="730" 
d="M374 -20c-194 0 -316 80 -357 206l116 52c34 -89 112 -152 246 -152c105 0 174 31 174 105c0 66 -42 90 -131 104l-152 21c-134 21 -212 82 -212 204c0 130 114 210 305 210c161 0 280 -57 327 -178l-108 -58c-32 85 -106 133 -225 133c-101 0 -161 -36 -161 -97
c0 -59 34 -86 124 -100l146 -22c147 -22 227 -77 227 -204c0 -133 -110 -224 -319 -224z" />
    <glyph glyph-name="T" unicode="T" horiz-adv-x="671" 
d="M662 710v-111h-257v-599h-139v599h-257v111h653z" />
    <glyph glyph-name="U" unicode="U" horiz-adv-x="823" 
d="M75 710h139v-422c0 -114 71 -194 198 -194c125 0 197 80 197 194v422h139v-431c0 -178 -121 -299 -336 -299c-216 0 -337 121 -337 299v431z" />
    <glyph glyph-name="V" unicode="V" horiz-adv-x="748" 
d="M294 0l-292 710h150l196 -503c13 -36 20 -60 24 -84h4c4 24 11 48 24 84l196 503h150l-292 -710h-160z" />
    <glyph glyph-name="W" unicode="W" horiz-adv-x="1095" 
d="M224 0l-202 710h141l133 -520c5 -20 8 -36 10 -52h3c1 15 6 32 12 52l156 520h141l156 -520c6 -20 11 -37 13 -52h3c1 16 5 32 10 52l132 520h141l-202 -710h-161l-150 514c-5 16 -9 32 -10 47h-5c0 -15 -4 -31 -9 -47l-150 -514h-162z" />
    <glyph glyph-name="X" unicode="X" horiz-adv-x="776" 
d="M10 0l290 370l-272 340h165l167 -220c14 -20 21 -29 27 -43h3c6 14 13 23 27 42l167 221h161l-269 -345l290 -365h-167l-179 236c-18 25 -27 35 -34 51h-2c-7 -15 -18 -31 -33 -50l-180 -237h-161z" />
    <glyph glyph-name="Y" unicode="Y" horiz-adv-x="716" 
d="M288 0v262l-291 448h156l185 -297c10 -18 16 -30 19 -42h2c3 12 9 24 20 42l187 297h153l-292 -448v-262h-139z" />
    <glyph glyph-name="Z" unicode="Z" horiz-adv-x="703" 
d="M43 105l447 499h-431v106h600v-104l-447 -500h464v-106h-633v105z" />
    <glyph glyph-name="Aacute" unicode="&#xc1;" horiz-adv-x="809" 
d="M598 869l-136 -113h-115l118 113h133zM648 0l-70 173h-347l-70 -173h-145l310 710h157l310 -710h-145zM271 274h267l-88 218c-21 45 -34 74 -44 114h-2c-11 -40 -24 -69 -45 -114z" />
    <glyph glyph-name="Abreve" unicode="&#x102;" horiz-adv-x="809" 
d="M405 751c-103 0 -171 42 -178 118h91c6 -32 34 -52 87 -52s81 20 87 52h91c-8 -76 -75 -118 -178 -118zM648 0l-70 173h-347l-70 -173h-145l310 710h157l310 -710h-145zM271 274h267l-88 218c-21 45 -34 74 -44 114h-2c-11 -40 -24 -69 -45 -114z" />
    <glyph glyph-name="Acircumflex" unicode="&#xc2;" horiz-adv-x="809" 
d="M405 827l-77 -71h-118l123 113h144l122 -113h-117zM648 0l-70 173h-347l-70 -173h-145l310 710h157l310 -710h-145zM271 274h267l-88 218c-21 45 -34 74 -44 114h-2c-11 -40 -24 -69 -45 -114z" />
    <glyph glyph-name="Adieresis" unicode="&#xc4;" horiz-adv-x="809" 
d="M337 864v-108h-129v108h129zM603 864v-108h-130v108h130zM648 0l-70 173h-347l-70 -173h-145l310 710h157l310 -710h-145zM271 274h267l-88 218c-21 45 -34 74 -44 114h-2c-11 -40 -24 -69 -45 -114z" />
    <glyph glyph-name="AE" unicode="&#xc6;" horiz-adv-x="1183" 
d="M692 106h426v-106h-565v159h-303l-107 -159h-151l508 710h611v-106h-419v-190h402v-103h-402v-205zM318 259h235v349z" />
    <glyph glyph-name="AEacute" unicode="&#x1fc;" horiz-adv-x="1183" 
d="M1003 869l-136 -113h-115l118 113h133zM692 106h426v-106h-565v159h-303l-107 -159h-151l508 710h611v-106h-419v-190h402v-103h-402v-205zM318 259h235v349z" />
    <glyph glyph-name="Agrave" unicode="&#xc0;" horiz-adv-x="809" 
d="M458 756h-115l-136 113h133zM648 0l-70 173h-347l-70 -173h-145l310 710h157l310 -710h-145zM271 274h267l-88 218c-21 45 -34 74 -44 114h-2c-11 -40 -24 -69 -45 -114z" />
    <glyph glyph-name="Amacron" unicode="&#x100;" horiz-adv-x="809" 
d="M595 845v-82h-381v82h381zM648 0l-70 173h-347l-70 -173h-145l310 710h157l310 -710h-145zM271 274h267l-88 218c-21 45 -34 74 -44 114h-2c-11 -40 -24 -69 -45 -114z" />
    <glyph glyph-name="Aogonek" unicode="&#x104;" horiz-adv-x="809" 
d="M725 -96l75 -17c-14 -58 -59 -91 -135 -91c-77 0 -124 36 -124 93c0 50 35 88 106 114l-69 170h-347l-70 -173h-145l310 710h157l310 -710h-37c-91 -18 -127 -61 -127 -99c0 -26 17 -43 43 -43s43 15 53 46zM271 274h267l-88 218c-21 45 -34 74 -44 114h-2
c-11 -40 -24 -69 -45 -114z" />
    <glyph glyph-name="Aring" unicode="&#xc5;" horiz-adv-x="809" 
d="M404 740c-73 0 -122 45 -122 110s49 109 122 109s123 -44 123 -109s-50 -110 -123 -110zM404 904c-32 0 -54 -22 -54 -54s22 -54 54 -54s54 22 54 54s-22 54 -54 54zM648 0l-70 173h-347l-70 -173h-145l310 710h157l310 -710h-145zM271 274h267l-88 218
c-21 45 -34 74 -44 114h-2c-11 -40 -24 -69 -45 -114z" />
    <glyph glyph-name="Atilde" unicode="&#xc3;" horiz-adv-x="809" 
d="M327 803c-29 0 -47 -16 -56 -51l-74 22c15 70 60 108 130 108c79 0 105 -54 157 -54c29 0 47 16 56 51l74 -22c-15 -70 -60 -107 -130 -107c-79 0 -105 53 -157 53zM648 0l-70 173h-347l-70 -173h-145l310 710h157l310 -710h-145zM271 274h267l-88 218
c-21 45 -34 74 -44 114h-2c-11 -40 -24 -69 -45 -114z" />
    <glyph glyph-name="Cacute" unicode="&#x106;" horiz-adv-x="811" 
d="M361 756l118 113h133l-136 -113h-115zM418 -20c-247 0 -385 155 -385 375c0 223 149 375 390 375c198 0 322 -100 353 -258l-143 -21c-20 105 -95 168 -214 168c-151 0 -242 -103 -242 -263c0 -155 91 -264 245 -264c113 0 189 59 215 161l139 -27
c-42 -150 -162 -246 -358 -246z" />
    <glyph glyph-name="Ccaron" unicode="&#x10c;" horiz-adv-x="811" 
d="M613 864l-122 -113h-144l-123 113h118l77 -71l77 71h117zM418 -20c-247 0 -385 155 -385 375c0 223 149 375 390 375c198 0 322 -100 353 -258l-143 -21c-20 105 -95 168 -214 168c-151 0 -242 -103 -242 -263c0 -155 91 -264 245 -264c113 0 189 59 215 161l139 -27
c-42 -150 -162 -246 -358 -246z" />
    <glyph glyph-name="Ccedilla" unicode="&#xc7;" horiz-adv-x="811" 
d="M422 92c113 0 189 59 215 161l139 -27c-40 -142 -149 -236 -327 -245l-22 -32c13 9 34 14 57 14c60 0 97 -30 97 -82c0 -57 -52 -91 -133 -91c-62 0 -106 23 -125 62l73 17c9 -16 27 -26 51 -26c29 0 48 15 48 39c0 23 -17 38 -45 38c-17 0 -32 -6 -43 -16l-59 14l36 63
c-226 14 -351 164 -351 374c0 223 149 375 390 375c198 0 322 -100 353 -258l-143 -21c-20 105 -95 168 -214 168c-151 0 -242 -103 -242 -263c0 -155 91 -264 245 -264z" />
    <glyph glyph-name="Ccircumflex" unicode="&#x108;" horiz-adv-x="811" 
d="M613 756h-117l-77 71l-77 -71h-118l123 113h144zM418 -20c-247 0 -385 155 -385 375c0 223 149 375 390 375c198 0 322 -100 353 -258l-143 -21c-20 105 -95 168 -214 168c-151 0 -242 -103 -242 -263c0 -155 91 -264 245 -264c113 0 189 59 215 161l139 -27
c-42 -150 -162 -246 -358 -246z" />
    <glyph glyph-name="Cdotaccent" unicode="&#x10a;" horiz-adv-x="811" 
d="M348 756v112h143v-112h-143zM418 -20c-247 0 -385 155 -385 375c0 223 149 375 390 375c198 0 322 -100 353 -258l-143 -21c-20 105 -95 168 -214 168c-151 0 -242 -103 -242 -263c0 -155 91 -264 245 -264c113 0 189 59 215 161l139 -27c-42 -150 -162 -246 -358 -246z
" />
    <glyph glyph-name="Dcaron" unicode="&#x10e;" horiz-adv-x="834" 
d="M602 864l-122 -113h-144l-123 113h118l77 -71l77 71h117zM95 0v710h327c229 0 379 -132 379 -349c0 -216 -153 -361 -380 -361h-326zM234 104h178c154 0 244 106 244 256c0 151 -93 246 -246 246h-176v-502z" />
    <glyph glyph-name="Dcroat" unicode="&#x110;" horiz-adv-x="834" 
d="M422 710c229 0 379 -132 379 -349c0 -216 -153 -361 -380 -361h-326v325h-84v87h84v298h327zM412 104c154 0 244 106 244 256c0 151 -93 246 -246 246h-176v-194h210v-87h-210v-221h178z" />
    <glyph glyph-name="Eacute" unicode="&#xc9;" horiz-adv-x="724" 
d="M578 869l-136 -113h-115l118 113h133zM234 106h426v-106h-565v710h558v-106h-419v-190h402v-103h-402v-205z" />
    <glyph glyph-name="Ebreve" unicode="&#x114;" horiz-adv-x="724" 
d="M385 751c-103 0 -171 42 -178 118h91c6 -32 34 -52 87 -52s81 20 87 52h91c-8 -76 -75 -118 -178 -118zM234 106h426v-106h-565v710h558v-106h-419v-190h402v-103h-402v-205z" />
    <glyph glyph-name="Ecaron" unicode="&#x11a;" horiz-adv-x="724" 
d="M457 751h-144l-123 113h118l77 -71l77 71h117zM234 106h426v-106h-565v710h558v-106h-419v-190h402v-103h-402v-205z" />
    <glyph glyph-name="Ecircumflex" unicode="&#xca;" horiz-adv-x="724" 
d="M385 827l-77 -71h-118l123 113h144l122 -113h-117zM234 106h426v-106h-565v710h558v-106h-419v-190h402v-103h-402v-205z" />
    <glyph glyph-name="Edieresis" unicode="&#xcb;" horiz-adv-x="724" 
d="M317 864v-108h-129v108h129zM583 864v-108h-130v108h130zM234 106h426v-106h-565v710h558v-106h-419v-190h402v-103h-402v-205z" />
    <glyph glyph-name="Edotaccent" unicode="&#x116;" horiz-adv-x="724" 
d="M457 868v-112h-143v112h143zM234 106h426v-106h-565v710h558v-106h-419v-190h402v-103h-402v-205z" />
    <glyph glyph-name="Egrave" unicode="&#xc8;" horiz-adv-x="724" 
d="M438 756h-115l-136 113h133zM234 106h426v-106h-565v710h558v-106h-419v-190h402v-103h-402v-205z" />
    <glyph glyph-name="Emacron" unicode="&#x112;" horiz-adv-x="724" 
d="M575 845v-82h-381v82h381zM234 106h426v-106h-565v710h558v-106h-419v-190h402v-103h-402v-205z" />
    <glyph glyph-name="Eogonek" unicode="&#x118;" horiz-adv-x="724" 
d="M629 -96l75 -17c-14 -58 -59 -91 -135 -91c-77 0 -124 36 -124 93c0 47 32 85 96 111h-446v710h558v-106h-419v-190h402v-103h-402v-205h426v-106c-91 -18 -127 -61 -127 -99c0 -26 17 -43 43 -43s43 15 53 46z" />
    <glyph glyph-name="Eth" unicode="&#xd0;" horiz-adv-x="834" 
d="M422 710c229 0 379 -132 379 -349c0 -216 -153 -361 -380 -361h-326v325h-84v87h84v298h327zM412 104c154 0 244 106 244 256c0 151 -93 246 -246 246h-176v-194h210v-87h-210v-221h178z" />
    <glyph glyph-name="Gbreve" unicode="&#x11e;" horiz-adv-x="837" 
d="M338 869c6 -32 34 -52 87 -52s81 20 87 52h91c-8 -76 -75 -118 -178 -118s-171 42 -178 118h91zM394 -20c-224 0 -361 154 -361 373c0 222 148 377 392 377c204 0 317 -108 345 -223l-143 -24c-18 72 -82 140 -206 140c-154 0 -245 -107 -245 -270
c0 -156 87 -266 246 -266c160 0 225 106 227 186v9h-237v101h363v-383h-102l-10 116c-42 -79 -135 -136 -269 -136z" />
    <glyph glyph-name="Gcircumflex" unicode="&#x11c;" horiz-adv-x="837" 
d="M619 756h-117l-77 71l-77 -71h-118l123 113h144zM394 -20c-224 0 -361 154 -361 373c0 222 148 377 392 377c204 0 317 -108 345 -223l-143 -24c-18 72 -82 140 -206 140c-154 0 -245 -107 -245 -270c0 -156 87 -266 246 -266c160 0 225 106 227 186v9h-237v101h363v-383
h-102l-10 116c-42 -79 -135 -136 -269 -136z" />
    <glyph glyph-name="Gcommaaccent" unicode="&#x122;" horiz-adv-x="837" 
d="M394 -20c-224 0 -361 154 -361 373c0 222 148 377 392 377c204 0 317 -108 345 -223l-143 -24c-18 72 -82 140 -206 140c-154 0 -245 -107 -245 -270c0 -156 87 -266 246 -266c160 0 225 106 227 186v9h-237v101h363v-383h-102l-10 116c-42 -79 -135 -136 -269 -136z
M398 -241l-23 44c44 13 53 27 54 56h-68v94h129v-79c0 -56 -22 -96 -92 -115z" />
    <glyph glyph-name="Gdotaccent" unicode="&#x120;" horiz-adv-x="837" 
d="M354 756v112h143v-112h-143zM394 -20c-224 0 -361 154 -361 373c0 222 148 377 392 377c204 0 317 -108 345 -223l-143 -24c-18 72 -82 140 -206 140c-154 0 -245 -107 -245 -270c0 -156 87 -266 246 -266c160 0 225 106 227 186v9h-237v101h363v-383h-102l-10 116
c-42 -79 -135 -136 -269 -136z" />
    <glyph glyph-name="Hbar" unicode="&#x126;" horiz-adv-x="864" 
d="M849 588v-68h-80v-520h-139v308h-396v-308h-139v520h-81v68h81v122h139v-122h396v122h139v-122h80zM630 415v105h-396v-105h396z" />
    <glyph glyph-name="Hcircumflex" unicode="&#x124;" horiz-adv-x="864" 
d="M626 756h-117l-77 71l-77 -71h-118l123 113h144zM769 710v-710h-139v308h-396v-308h-139v710h139v-295h396v295h139z" />
    <glyph glyph-name="Iacute" unicode="&#xcd;" horiz-adv-x="329" 
d="M109 756l83 113h124l-96 -113h-111zM234 0h-139v710h139v-710z" />
    <glyph glyph-name="Ibreve" unicode="&#x12c;" horiz-adv-x="329" 
d="M108 869c2 -31 21 -51 57 -51s55 20 57 51h86c-5 -77 -59 -118 -143 -118s-138 41 -143 118h86zM234 0h-139v710h139v-710z" />
    <glyph glyph-name="Icircumflex" unicode="&#xce;" horiz-adv-x="329" 
d="M311 756h-101l-45 73l-45 -73h-101l78 113h136zM234 0h-139v710h139v-710z" />
    <glyph glyph-name="Idieresis" unicode="&#xcf;" horiz-adv-x="329" 
d="M21 756v108h120v-108h-120zM190 756v108h120v-108h-120zM234 0h-139v710h139v-710z" />
    <glyph glyph-name="Idotaccent" unicode="&#x130;" horiz-adv-x="329" 
d="M94 756v112h143v-112h-143zM234 0h-139v710h139v-710z" />
    <glyph glyph-name="Igrave" unicode="&#xcc;" horiz-adv-x="329" 
d="M220 756h-111l-96 113h124zM234 0h-139v710h139v-710z" />
    <glyph glyph-name="IJ" unicode="&#x132;" horiz-adv-x="780" 
d="M234 0h-139v710h139v-710zM704 223c0 -177 -105 -238 -248 -238c-42 0 -80 2 -109 9v116c28 -4 59 -6 90 -6c75 0 129 29 129 138v468h138v-487z" />
    <glyph glyph-name="Jacute" horiz-adv-x="451" 
d="M250 756l83 113h124l-96 -113h-111zM375 223c0 -177 -105 -238 -248 -238c-42 0 -80 2 -109 9v116c28 -4 59 -6 90 -6c75 0 129 29 129 138v468h138v-487z" />
    <glyph glyph-name="Imacron" unicode="&#x12a;" horiz-adv-x="329" 
d="M33 763v83h263v-83h-263zM234 0h-139v710h139v-710z" />
    <glyph glyph-name="Iogonek" unicode="&#x12e;" horiz-adv-x="329" 
d="M172 -96l75 -17c-14 -58 -59 -91 -135 -91c-77 0 -124 36 -124 93c0 50 35 89 107 115v706h139v-710h-31c-91 -18 -127 -61 -127 -99c0 -26 17 -43 43 -43s43 15 53 46z" />
    <glyph glyph-name="Itilde" unicode="&#x128;" horiz-adv-x="329" 
d="M228 752c-62 0 -84 55 -120 55c-16 0 -26 -12 -28 -43l-66 19c3 61 37 100 89 100c62 0 84 -55 120 -55c16 0 26 12 28 43l66 -19c-3 -61 -37 -100 -89 -100zM234 0h-139v710h139v-710z" />
    <glyph glyph-name="Jcircumflex" unicode="&#x134;" horiz-adv-x="451" 
d="M452 756h-101l-45 73l-45 -73h-101l78 113h136zM375 223c0 -177 -105 -238 -248 -238c-42 0 -80 2 -109 9v116c28 -4 59 -6 90 -6c75 0 129 29 129 138v468h138v-487z" />
    <glyph glyph-name="Kcommaaccent" unicode="&#x136;" horiz-adv-x="796" 
d="M472 433l305 -433h-163l-242 342l-138 -132v-210h-139v710h139v-345l350 345h171zM340 -141v94h129v-79c0 -56 -22 -96 -92 -115l-23 44c44 13 53 27 54 56h-68z" />
    <glyph glyph-name="Lacute" unicode="&#x139;" horiz-adv-x="651" 
d="M107 756l118 113h133l-136 -113h-115zM95 0v710h139v-597h394v-113h-533z" />
    <glyph glyph-name="Lcaron" unicode="&#x13d;" horiz-adv-x="651" 
d="M95 0v710h139v-597h394v-113h-533zM347 526l-22 42c41 9 52 22 52 48h-66v94h127v-77c0 -57 -24 -93 -91 -107z" />
    <glyph glyph-name="Lcommaaccent" unicode="&#x13b;" horiz-adv-x="651" 
d="M95 0v710h139v-597h394v-113h-533zM336 -241l-23 44c44 13 53 27 54 56h-68v94h129v-79c0 -56 -22 -96 -92 -115z" />
    <glyph glyph-name="Ldot" unicode="&#x13f;" horiz-adv-x="651" 
d="M95 0v710h139v-597h394v-113h-533zM508 500v-139h-155v139h155z" />
    <glyph glyph-name="Lslash" unicode="&#x141;" horiz-adv-x="651" 
d="M234 113h394v-113h-533v260l-99 -48v90l99 48v360h139v-293l241 116v-91l-241 -116v-213z" />
    <glyph glyph-name="Nacute" unicode="&#x143;" horiz-adv-x="861" 
d="M374 756l118 113h133l-136 -113h-115zM95 0v710h157l340 -468c21 -30 37 -57 48 -84h2c-1 28 -1 57 -1 93v459h125v-710h-149l-348 472c-19 29 -37 57 -47 83h-3c1 -28 2 -56 2 -92v-463h-126z" />
    <glyph glyph-name="Ncaron" unicode="&#x147;" horiz-adv-x="861" 
d="M626 864l-122 -113h-144l-123 113h118l77 -71l77 71h117zM95 0v710h157l340 -468c21 -30 37 -57 48 -84h2c-1 28 -1 57 -1 93v459h125v-710h-149l-348 472c-19 29 -37 57 -47 83h-3c1 -28 2 -56 2 -92v-463h-126z" />
    <glyph glyph-name="Ncommaaccent" unicode="&#x145;" horiz-adv-x="861" 
d="M95 0v710h157l340 -468c21 -30 37 -57 48 -84h2c-1 28 -1 57 -1 93v459h125v-710h-149l-348 472c-19 29 -37 57 -47 83h-3c1 -28 2 -56 2 -92v-463h-126zM405 -241l-23 44c44 13 53 27 54 56h-68v94h129v-79c0 -56 -22 -96 -92 -115z" />
    <glyph glyph-name="Ntilde" unicode="&#xd1;" horiz-adv-x="861" 
d="M511 750c-79 0 -105 53 -157 53c-29 0 -47 -16 -56 -51l-74 22c15 70 60 108 130 108c79 0 105 -54 157 -54c29 0 47 16 56 51l74 -22c-15 -70 -60 -107 -130 -107zM95 0v710h157l340 -468c21 -30 37 -57 48 -84h2c-1 28 -1 57 -1 93v459h125v-710h-149l-348 472
c-19 29 -37 57 -47 83h-3c1 -28 2 -56 2 -92v-463h-126z" />
    <glyph glyph-name="Eng" unicode="&#x14a;" horiz-adv-x="861" 
d="M641 710h125v-719c0 -152 -96 -202 -219 -202c-40 0 -79 3 -111 8v110c31 -5 71 -6 98 -6c58 0 106 22 106 99h-23l-348 472c-19 29 -37 57 -47 83h-3c1 -28 2 -56 2 -92v-463h-126v710h157l340 -468c21 -30 37 -57 48 -84h2c-1 28 -1 57 -1 93v459z" />
    <glyph glyph-name="Oacute" unicode="&#xd3;" horiz-adv-x="850" 
d="M367 756l118 113h133l-136 -113h-115zM425 -20c-237 0 -392 147 -392 375c0 230 155 375 392 375s392 -145 392 -375c0 -229 -155 -375 -392 -375zM425 89c152 0 247 103 247 266s-95 266 -247 266s-247 -103 -247 -266c0 -161 95 -266 247 -266z" />
    <glyph glyph-name="Obreve" unicode="&#x14e;" horiz-adv-x="850" 
d="M338 869c6 -32 34 -52 87 -52s81 20 87 52h91c-8 -76 -75 -118 -178 -118s-171 42 -178 118h91zM425 -20c-237 0 -392 147 -392 375c0 230 155 375 392 375s392 -145 392 -375c0 -229 -155 -375 -392 -375zM425 89c152 0 247 103 247 266s-95 266 -247 266
s-247 -103 -247 -266c0 -161 95 -266 247 -266z" />
    <glyph glyph-name="Ocircumflex" unicode="&#xd4;" horiz-adv-x="850" 
d="M619 756h-117l-77 71l-77 -71h-118l123 113h144zM425 -20c-237 0 -392 147 -392 375c0 230 155 375 392 375s392 -145 392 -375c0 -229 -155 -375 -392 -375zM425 89c152 0 247 103 247 266s-95 266 -247 266s-247 -103 -247 -266c0 -161 95 -266 247 -266z" />
    <glyph glyph-name="Odieresis" unicode="&#xd6;" horiz-adv-x="850" 
d="M228 756v108h129v-108h-129zM493 756v108h130v-108h-130zM425 -20c-237 0 -392 147 -392 375c0 230 155 375 392 375s392 -145 392 -375c0 -229 -155 -375 -392 -375zM425 89c152 0 247 103 247 266s-95 266 -247 266s-247 -103 -247 -266c0 -161 95 -266 247 -266z" />
    <glyph glyph-name="OE" unicode="&#x152;" horiz-adv-x="1199" 
d="M709 106h426v-106h-725c-229 0 -377 140 -377 361s155 349 385 349h710v-106h-419v-190h402v-103h-402v-205zM424 104h146v502h-144c-156 0 -249 -93 -249 -246c0 -156 94 -256 247 -256z" />
    <glyph glyph-name="Ograve" unicode="&#xd2;" horiz-adv-x="850" 
d="M478 756h-115l-136 113h133zM425 -20c-237 0 -392 147 -392 375c0 230 155 375 392 375s392 -145 392 -375c0 -229 -155 -375 -392 -375zM425 89c152 0 247 103 247 266s-95 266 -247 266s-247 -103 -247 -266c0 -161 95 -266 247 -266z" />
    <glyph glyph-name="Ohungarumlaut" unicode="&#x150;" horiz-adv-x="850" 
d="M277 756l115 113h117l-122 -113h-110zM462 756l116 113h117l-123 -113h-110zM425 -20c-237 0 -392 147 -392 375c0 230 155 375 392 375s392 -145 392 -375c0 -229 -155 -375 -392 -375zM425 89c152 0 247 103 247 266s-95 266 -247 266s-247 -103 -247 -266
c0 -161 95 -266 247 -266z" />
    <glyph glyph-name="Omacron" unicode="&#x14c;" horiz-adv-x="850" 
d="M234 763v82h381v-82h-381zM425 -20c-237 0 -392 147 -392 375c0 230 155 375 392 375s392 -145 392 -375c0 -229 -155 -375 -392 -375zM425 89c152 0 247 103 247 266s-95 266 -247 266s-247 -103 -247 -266c0 -161 95 -266 247 -266z" />
    <glyph glyph-name="Oslash" unicode="&#xd8;" horiz-adv-x="850" 
d="M722 617c61 -64 95 -154 95 -262c0 -229 -155 -375 -392 -375c-96 0 -178 24 -242 68l-63 -67l-56 45l64 68c-61 64 -95 154 -95 261c0 230 155 375 392 375c96 0 178 -24 242 -67l62 66l56 -45zM178 355c0 -64 15 -120 43 -163l360 380c-41 32 -94 49 -156 49
c-152 0 -247 -103 -247 -266zM425 89c152 0 247 103 247 266c0 65 -15 121 -43 164l-360 -380c41 -32 94 -50 156 -50z" />
    <glyph glyph-name="Oslashacute" unicode="&#x1fe;" horiz-adv-x="850" 
d="M620 869l-136 -113h-115l118 113h133zM722 617c61 -64 95 -154 95 -262c0 -229 -155 -375 -392 -375c-96 0 -178 24 -242 68l-63 -67l-56 45l64 68c-61 64 -95 154 -95 261c0 230 155 375 392 375c96 0 178 -24 242 -67l62 66l56 -45zM178 355c0 -64 15 -120 43 -163
l360 380c-41 32 -94 49 -156 49c-152 0 -247 -103 -247 -266zM425 89c152 0 247 103 247 266c0 65 -15 121 -43 164l-360 -380c41 -32 94 -50 156 -50z" />
    <glyph glyph-name="Otilde" unicode="&#xd5;" horiz-adv-x="850" 
d="M504 750c-79 0 -105 53 -157 53c-29 0 -47 -16 -56 -51l-74 22c15 70 60 108 130 108c79 0 105 -54 157 -54c29 0 47 16 56 51l74 -22c-15 -70 -60 -107 -130 -107zM425 -20c-237 0 -392 147 -392 375c0 230 155 375 392 375s392 -145 392 -375
c0 -229 -155 -375 -392 -375zM425 89c152 0 247 103 247 266s-95 266 -247 266s-247 -103 -247 -266c0 -161 95 -266 247 -266z" />
    <glyph glyph-name="Racute" unicode="&#x154;" horiz-adv-x="777" 
d="M559 869l-136 -113h-115l118 113h133zM583 0l-170 278h-179v-278h-139v710h363c196 0 257 -105 257 -215c0 -81 -43 -169 -159 -199l183 -296h-156zM234 607v-229h198c103 0 138 53 138 116c0 62 -34 113 -138 113h-198z" />
    <glyph glyph-name="Rcaron" unicode="&#x158;" horiz-adv-x="777" 
d="M438 751h-144l-123 113h118l77 -71l77 71h117zM583 0l-170 278h-179v-278h-139v710h363c196 0 257 -105 257 -215c0 -81 -43 -169 -159 -199l183 -296h-156zM234 607v-229h198c103 0 138 53 138 116c0 62 -34 113 -138 113h-198z" />
    <glyph glyph-name="Rcommaaccent" unicode="&#x156;" horiz-adv-x="777" 
d="M556 296l183 -296h-156l-170 278h-179v-278h-139v710h363c196 0 257 -105 257 -215c0 -81 -43 -169 -159 -199zM234 607v-229h198c103 0 138 53 138 116c0 62 -34 113 -138 113h-198zM321 -141v94h129v-79c0 -56 -22 -96 -92 -115l-23 44c44 13 53 27 54 56h-68z" />
    <glyph glyph-name="Sacute" unicode="&#x15a;" horiz-adv-x="730" 
d="M309 756l118 113h133l-136 -113h-115zM374 -20c-194 0 -316 80 -357 206l116 52c34 -89 112 -152 246 -152c105 0 174 31 174 105c0 66 -42 90 -131 104l-152 21c-134 21 -212 82 -212 204c0 130 114 210 305 210c161 0 280 -57 327 -178l-108 -58
c-32 85 -106 133 -225 133c-101 0 -161 -36 -161 -97c0 -59 34 -86 124 -100l146 -22c147 -22 227 -77 227 -204c0 -133 -110 -224 -319 -224z" />
    <glyph glyph-name="Scaron" unicode="&#x160;" horiz-adv-x="730" 
d="M561 864l-122 -113h-144l-123 113h118l77 -71l77 71h117zM374 -20c-194 0 -316 80 -357 206l116 52c34 -89 112 -152 246 -152c105 0 174 31 174 105c0 66 -42 90 -131 104l-152 21c-134 21 -212 82 -212 204c0 130 114 210 305 210c161 0 280 -57 327 -178l-108 -58
c-32 85 -106 133 -225 133c-101 0 -161 -36 -161 -97c0 -59 34 -86 124 -100l146 -22c147 -22 227 -77 227 -204c0 -133 -110 -224 -319 -224z" />
    <glyph glyph-name="Scedilla" unicode="&#x15e;" horiz-adv-x="730" 
d="M693 204c0 -126 -99 -215 -288 -223l-22 -32c13 9 34 14 57 14c60 0 97 -30 97 -82c0 -57 -52 -91 -133 -91c-62 0 -106 23 -125 62l73 17c9 -16 27 -26 51 -26c29 0 48 15 48 39c0 23 -17 38 -45 38c-17 0 -32 -6 -43 -16l-59 14l36 63c-174 9 -284 87 -323 205l116 52
c34 -89 112 -152 246 -152c105 0 174 31 174 105c0 66 -42 90 -131 104l-152 21c-134 21 -212 82 -212 204c0 130 114 210 305 210c161 0 280 -57 327 -178l-108 -58c-32 85 -106 133 -225 133c-101 0 -161 -36 -161 -97c0 -59 34 -86 124 -100l146 -22
c147 -22 227 -77 227 -204z" />
    <glyph glyph-name="Scircumflex" unicode="&#x15c;" horiz-adv-x="730" 
d="M561 756h-117l-77 71l-77 -71h-118l123 113h144zM374 -20c-194 0 -316 80 -357 206l116 52c34 -89 112 -152 246 -152c105 0 174 31 174 105c0 66 -42 90 -131 104l-152 21c-134 21 -212 82 -212 204c0 130 114 210 305 210c161 0 280 -57 327 -178l-108 -58
c-32 85 -106 133 -225 133c-101 0 -161 -36 -161 -97c0 -59 34 -86 124 -100l146 -22c147 -22 227 -77 227 -204c0 -133 -110 -224 -319 -224z" />
    <glyph glyph-name="Scommaaccent" unicode="&#x218;" horiz-adv-x="730" 
d="M374 -20c-194 0 -316 80 -357 206l116 52c34 -89 112 -152 246 -152c105 0 174 31 174 105c0 66 -42 90 -131 104l-152 21c-134 21 -212 82 -212 204c0 130 114 210 305 210c161 0 280 -57 327 -178l-108 -58c-32 85 -106 133 -225 133c-101 0 -161 -36 -161 -97
c0 -59 34 -86 124 -100l146 -22c147 -22 227 -77 227 -204c0 -133 -110 -224 -319 -224zM360 -241l-23 44c44 13 53 27 54 56h-68v94h129v-79c0 -56 -22 -96 -92 -115z" />
    <glyph glyph-name="Tbar" unicode="&#x166;" horiz-adv-x="671" 
d="M662 599h-257v-157h191v-69h-191v-373h-139v373h-192v69h192v157h-257v111h653v-111z" />
    <glyph glyph-name="Tcaron" unicode="&#x164;" horiz-adv-x="671" 
d="M408 751h-144l-123 113h118l77 -71l77 71h117zM662 710v-111h-257v-599h-139v599h-257v111h653z" />
    <glyph glyph-name="uni0162" unicode="&#x162;" horiz-adv-x="671" 
d="M405 0h-38l-35 -51c13 9 34 14 57 14c60 0 97 -30 97 -82c0 -57 -52 -91 -133 -91c-62 0 -106 23 -125 62l73 17c9 -16 27 -26 51 -26c29 0 48 15 48 39c0 23 -17 38 -45 38c-17 0 -32 -6 -43 -16l-59 14l47 82h-34v599h-257v111h653v-111h-257v-599z" />
    <glyph glyph-name="uni021A" unicode="&#x21a;" horiz-adv-x="671" 
d="M662 710v-111h-257v-599h-139v599h-257v111h653zM272 -141v94h129v-79c0 -56 -22 -96 -92 -115l-23 44c44 13 53 27 54 56h-68z" />
    <glyph glyph-name="Thorn" unicode="&#xde;" horiz-adv-x="689" 
d="M420 588c154 0 250 -83 250 -217s-97 -218 -251 -218h-185v-153h-139v710h139v-122h186zM393 256c83 0 131 43 131 114s-47 114 -131 114h-159v-228h159z" />
    <glyph glyph-name="Uacute" unicode="&#xda;" horiz-adv-x="823" 
d="M354 756l118 113h133l-136 -113h-115zM75 710h139v-422c0 -114 71 -194 198 -194c125 0 197 80 197 194v422h139v-431c0 -178 -121 -299 -336 -299c-216 0 -337 121 -337 299v431z" />
    <glyph glyph-name="Ubreve" unicode="&#x16c;" horiz-adv-x="823" 
d="M325 869c6 -32 34 -52 87 -52s81 20 87 52h91c-8 -76 -75 -118 -178 -118s-171 42 -178 118h91zM75 710h139v-422c0 -114 71 -194 198 -194c125 0 197 80 197 194v422h139v-431c0 -178 -121 -299 -336 -299c-216 0 -337 121 -337 299v431z" />
    <glyph glyph-name="Ucircumflex" unicode="&#xdb;" horiz-adv-x="823" 
d="M606 756h-117l-77 71l-77 -71h-118l123 113h144zM75 710h139v-422c0 -114 71 -194 198 -194c125 0 197 80 197 194v422h139v-431c0 -178 -121 -299 -336 -299c-216 0 -337 121 -337 299v431z" />
    <glyph glyph-name="Udieresis" unicode="&#xdc;" horiz-adv-x="823" 
d="M215 756v108h129v-108h-129zM480 756v108h130v-108h-130zM75 710h139v-422c0 -114 71 -194 198 -194c125 0 197 80 197 194v422h139v-431c0 -178 -121 -299 -336 -299c-216 0 -337 121 -337 299v431z" />
    <glyph glyph-name="Ugrave" unicode="&#xd9;" horiz-adv-x="823" 
d="M465 756h-115l-136 113h133zM75 710h139v-422c0 -114 71 -194 198 -194c125 0 197 80 197 194v422h139v-431c0 -178 -121 -299 -336 -299c-216 0 -337 121 -337 299v431z" />
    <glyph glyph-name="Uhungarumlaut" unicode="&#x170;" horiz-adv-x="823" 
d="M264 756l115 113h117l-122 -113h-110zM449 756l116 113h117l-123 -113h-110zM75 710h139v-422c0 -114 71 -194 198 -194c125 0 197 80 197 194v422h139v-431c0 -178 -121 -299 -336 -299c-216 0 -337 121 -337 299v431z" />
    <glyph glyph-name="Umacron" unicode="&#x16a;" horiz-adv-x="823" 
d="M221 763v82h381v-82h-381zM75 710h139v-422c0 -114 71 -194 198 -194c125 0 197 80 197 194v422h139v-431c0 -178 -121 -299 -336 -299c-216 0 -337 121 -337 299v431z" />
    <glyph glyph-name="Uogonek" unicode="&#x172;" horiz-adv-x="823" 
d="M609 710h139v-431c0 -153 -90 -264 -252 -292c-57 -22 -80 -55 -80 -86c0 -26 17 -43 43 -43s43 15 53 46l75 -17c-14 -58 -59 -91 -135 -91c-77 0 -124 36 -124 93c0 37 19 68 58 92c-200 9 -311 127 -311 298v431h139v-422c0 -114 71 -194 198 -194
c125 0 197 80 197 194v422z" />
    <glyph glyph-name="Uring" unicode="&#x16e;" horiz-adv-x="823" 
d="M411 740c-73 0 -122 45 -122 110s49 109 122 109s123 -44 123 -109s-50 -110 -123 -110zM411 796c32 0 54 22 54 54s-22 54 -54 54s-54 -22 -54 -54s22 -54 54 -54zM75 710h139v-422c0 -114 71 -194 198 -194c125 0 197 80 197 194v422h139v-431
c0 -178 -121 -299 -336 -299c-216 0 -337 121 -337 299v431z" />
    <glyph glyph-name="Utilde" unicode="&#x168;" horiz-adv-x="823" 
d="M491 750c-79 0 -105 53 -157 53c-29 0 -47 -16 -56 -51l-74 22c15 70 60 108 130 108c79 0 105 -54 157 -54c29 0 47 16 56 51l74 -22c-15 -70 -60 -107 -130 -107zM75 710h139v-422c0 -114 71 -194 198 -194c125 0 197 80 197 194v422h139v-431
c0 -178 -121 -299 -336 -299c-216 0 -337 121 -337 299v431z" />
    <glyph glyph-name="Wacute" unicode="&#x1e82;" horiz-adv-x="1095" 
d="M490 756l118 113h133l-136 -113h-115zM224 0l-202 710h141l133 -520c5 -20 8 -36 10 -52h3c1 15 6 32 12 52l156 520h141l156 -520c6 -20 11 -37 13 -52h3c1 16 5 32 10 52l132 520h141l-202 -710h-161l-150 514c-5 16 -9 32 -10 47h-5c0 -15 -4 -31 -9 -47l-150 -514
h-162z" />
    <glyph glyph-name="Wcircumflex" unicode="&#x174;" horiz-adv-x="1095" 
d="M742 756h-117l-77 71l-77 -71h-118l123 113h144zM224 0l-202 710h141l133 -520c5 -20 8 -36 10 -52h3c1 15 6 32 12 52l156 520h141l156 -520c6 -20 11 -37 13 -52h3c1 16 5 32 10 52l132 520h141l-202 -710h-161l-150 514c-5 16 -9 32 -10 47h-5c0 -15 -4 -31 -9 -47
l-150 -514h-162z" />
    <glyph glyph-name="Wdieresis" unicode="&#x1e84;" horiz-adv-x="1095" 
d="M351 756v108h129v-108h-129zM616 756v108h130v-108h-130zM224 0l-202 710h141l133 -520c5 -20 8 -36 10 -52h3c1 15 6 32 12 52l156 520h141l156 -520c6 -20 11 -37 13 -52h3c1 16 5 32 10 52l132 520h141l-202 -710h-161l-150 514c-5 16 -9 32 -10 47h-5
c0 -15 -4 -31 -9 -47l-150 -514h-162z" />
    <glyph glyph-name="Wgrave" unicode="&#x1e80;" horiz-adv-x="1095" 
d="M601 756h-115l-136 113h133zM224 0l-202 710h141l133 -520c5 -20 8 -36 10 -52h3c1 15 6 32 12 52l156 520h141l156 -520c6 -20 11 -37 13 -52h3c1 16 5 32 10 52l132 520h141l-202 -710h-161l-150 514c-5 16 -9 32 -10 47h-5c0 -15 -4 -31 -9 -47l-150 -514h-162z" />
    <glyph glyph-name="Yacute" unicode="&#xdd;" horiz-adv-x="716" 
d="M301 756l118 113h133l-136 -113h-115zM288 0v262l-291 448h156l185 -297c10 -18 16 -30 19 -42h2c3 12 9 24 20 42l187 297h153l-292 -448v-262h-139z" />
    <glyph glyph-name="Ycircumflex" unicode="&#x176;" horiz-adv-x="716" 
d="M553 756h-117l-77 71l-77 -71h-118l123 113h144zM288 0v262l-291 448h156l185 -297c10 -18 16 -30 19 -42h2c3 12 9 24 20 42l187 297h153l-292 -448v-262h-139z" />
    <glyph glyph-name="Ydieresis" unicode="&#x178;" horiz-adv-x="716" 
d="M162 756v108h129v-108h-129zM427 756v108h130v-108h-130zM288 0v262l-291 448h156l185 -297c10 -18 16 -30 19 -42h2c3 12 9 24 20 42l187 297h153l-292 -448v-262h-139z" />
    <glyph glyph-name="Ygrave" unicode="&#x1ef2;" horiz-adv-x="716" 
d="M412 756h-115l-136 113h133zM288 0v262l-291 448h156l185 -297c10 -18 16 -30 19 -42h2c3 12 9 24 20 42l187 297h153l-292 -448v-262h-139z" />
    <glyph glyph-name="Zacute" unicode="&#x179;" horiz-adv-x="703" 
d="M298 756l118 113h133l-136 -113h-115zM43 105l447 499h-431v106h600v-104l-447 -500h464v-106h-633v105z" />
    <glyph glyph-name="Zcaron" unicode="&#x17d;" horiz-adv-x="703" 
d="M550 864l-122 -113h-144l-123 113h118l77 -71l77 71h117zM43 105l447 499h-431v106h600v-104l-447 -500h464v-106h-633v105z" />
    <glyph glyph-name="Zdotaccent" unicode="&#x17b;" horiz-adv-x="703" 
d="M285 756v112h143v-112h-143zM43 105l447 499h-431v106h600v-104l-447 -500h464v-106h-633v105z" />
    <glyph glyph-name="a" unicode="a" horiz-adv-x="667" 
d="M246 -15c-124 0 -203 57 -203 150c0 48 21 88 61 113c36 23 86 37 180 46l179 15v11c0 73 -45 107 -129 107c-82 0 -132 -32 -140 -91h-135c12 109 117 179 275 179c177 0 259 -68 259 -213v-141c0 -74 4 -121 13 -161h-130c-5 26 -7 59 -8 91
c-34 -67 -112 -106 -222 -106zM289 71c104 0 176 55 176 140v26l-169 -17c-87 -9 -119 -32 -119 -78c0 -45 41 -71 112 -71z" />
    <glyph glyph-name="b" unicode="b" horiz-adv-x="713" 
d="M419 -15c-97 0 -168 41 -204 101l-13 -86h-111v725h129v-310c38 61 112 100 206 100c151 0 251 -107 251 -264c0 -158 -104 -266 -258 -266zM379 80c101 0 163 66 163 171c0 103 -59 169 -161 169c-99 0 -165 -62 -165 -157v-25c0 -95 63 -158 163 -158z" />
    <glyph glyph-name="c" unicode="c" horiz-adv-x="643" 
d="M331 -15c-180 0 -296 104 -296 266c0 163 115 264 298 264c153 0 252 -66 276 -185l-132 -19c-15 69 -67 107 -148 107c-100 0 -160 -62 -160 -166c0 -106 62 -169 162 -169c80 0 131 37 149 107l128 -22c-25 -114 -129 -183 -277 -183z" />
    <glyph glyph-name="d" unicode="d" horiz-adv-x="713" 
d="M288 -15c-148 0 -252 107 -252 265c0 157 106 265 260 265c89 0 154 -30 197 -92v302h129v-725h-124v94c-40 -69 -112 -109 -210 -109zM332 80c98 0 164 62 164 157v24c0 97 -67 159 -166 159c-100 0 -159 -63 -159 -169s62 -171 161 -171z" />
    <glyph glyph-name="e" unicode="e" horiz-adv-x="649" 
d="M608 264v-46h-447c5 -84 70 -138 174 -138c76 0 133 31 164 87l101 -46c-50 -88 -143 -136 -270 -136c-183 0 -295 95 -295 260c0 170 113 270 290 270c179 0 283 -91 283 -251zM480 299v5c-1 82 -64 129 -157 129c-97 0 -157 -51 -162 -134h319z" />
    <glyph glyph-name="f" unicode="f" horiz-adv-x="449" 
d="M429 500v-91h-165v-409h-130v409h-115v91h115v50c0 118 71 183 205 183c33 0 64 -4 90 -10v-97c-25 5 -50 7 -75 7c-64 0 -90 -26 -90 -88v-45h165z" />
    <glyph glyph-name="g" unicode="g" horiz-adv-x="656" 
d="M589 494c-37 0 -62 -10 -77 -30c39 -30 60 -71 60 -120c0 -103 -94 -174 -250 -174c-50 0 -93 7 -129 20c-20 -8 -33 -21 -33 -40c0 -27 22 -44 76 -44h205c126 0 188 -50 188 -143c0 -111 -99 -173 -317 -173c-199 0 -279 52 -279 130c0 45 28 80 85 96
c-44 19 -66 51 -66 90c0 54 35 90 93 108c-47 31 -73 76 -73 130c0 104 93 171 250 171c54 0 100 -8 137 -22c16 57 64 92 140 92c12 0 23 -1 35 -3v-93c-14 3 -28 5 -45 5zM322 246c76 0 123 39 123 98c0 58 -47 96 -123 96c-77 0 -124 -37 -124 -96s47 -98 124 -98zM423 0
h-206c-15 0 -28 1 -41 2c-25 -14 -37 -35 -37 -59c0 -55 65 -75 182 -75c145 0 192 27 192 74c0 39 -28 58 -90 58z" />
    <glyph glyph-name="h" unicode="h" horiz-adv-x="714" 
d="M91 0v725h129v-326c38 76 111 117 206 117c142 0 217 -84 217 -243v-273h-129v260c0 102 -47 155 -138 155c-97 0 -156 -64 -156 -171v-244h-129z" />
    <glyph glyph-name="i" unicode="i" horiz-adv-x="301" 
d="M80 583v129h141v-129h-141zM86 0v500h129v-500h-129z" />
    <glyph glyph-name="j" unicode="j" horiz-adv-x="307" 
d="M84 583v129h141v-129h-141zM43 -203c-23 0 -57 2 -74 6v99c23 -2 43 -3 57 -3c45 0 66 22 66 96v505h129v-520c0 -107 -41 -183 -178 -183z" />
    <glyph glyph-name="k" unicode="k" horiz-adv-x="668" 
d="M499 0l-163 238l-116 -95v-143h-129v725h129v-454l253 229h167l-208 -187l218 -313h-151z" />
    <glyph glyph-name="l" unicode="l" horiz-adv-x="311" 
d="M220 725v-725h-129v725h129z" />
    <glyph glyph-name="m" unicode="m" horiz-adv-x="1028" 
d="M86 500h125v-99c32 76 94 115 181 115c88 0 150 -40 178 -116c40 76 106 116 193 116c125 0 195 -79 195 -220v-296h-129v279c0 89 -39 135 -113 135c-81 0 -130 -54 -130 -146v-268h-129v280c0 88 -38 134 -112 134c-80 0 -130 -57 -130 -151v-263h-129v500z" />
    <glyph glyph-name="n" unicode="n" horiz-adv-x="709" 
d="M86 0v500h125v-107c40 81 112 123 212 123c141 0 215 -81 215 -235v-281h-129v264c0 100 -44 150 -136 150c-98 0 -158 -63 -158 -171v-243h-129z" />
    <glyph glyph-name="o" unicode="o" horiz-adv-x="667" 
d="M334 -15c-178 0 -299 101 -299 265c0 165 121 265 299 265c177 0 298 -100 298 -265c0 -164 -121 -265 -298 -265zM334 80c101 0 164 61 164 170c0 110 -63 170 -164 170c-102 0 -165 -60 -165 -170c0 -109 63 -170 165 -170z" />
    <glyph glyph-name="p" unicode="p" horiz-adv-x="708" 
d="M86 -195v695h125v-91c41 69 118 106 209 106c152 0 252 -105 252 -264c0 -161 -106 -266 -257 -266c-91 0 -164 39 -200 93v-273h-129zM375 80c100 0 162 65 162 171s-59 169 -159 169c-99 0 -166 -61 -166 -159v-21c0 -97 65 -160 163 -160z" />
    <glyph glyph-name="q" unicode="q" horiz-adv-x="708" 
d="M493 -195v280c-36 -59 -107 -101 -202 -101c-152 0 -255 108 -255 267c0 161 106 265 258 265c93 0 164 -35 203 -100l13 84h112v-695h-129zM333 79c102 0 161 65 161 159v26c0 91 -60 157 -164 157c-95 0 -161 -59 -161 -169c0 -108 64 -173 164 -173z" />
    <glyph glyph-name="r" unicode="r" horiz-adv-x="444" 
d="M204 369c26 86 92 144 186 144c14 0 24 -1 36 -3v-119c-13 2 -25 3 -39 3c-58 0 -96 -15 -123 -42c-40 -40 -49 -97 -49 -157v-195h-129v500h118v-131z" />
    <glyph glyph-name="s" unicode="s" horiz-adv-x="606" 
d="M319 -15c-144 0 -241 50 -289 143l88 49c36 -66 104 -102 210 -102c79 0 118 22 118 64c0 38 -21 54 -80 60l-139 12c-116 12 -172 64 -172 148c0 99 90 156 245 156c130 0 224 -46 264 -122l-82 -52c-37 55 -95 86 -189 86c-76 0 -117 -21 -117 -61c0 -34 25 -52 81 -58
l145 -13c118 -11 164 -62 164 -146c0 -102 -82 -164 -247 -164z" />
    <glyph glyph-name="t" unicode="t" horiz-adv-x="461" 
d="M11 409v91h116v125l129 50v-175h170v-91h-170v-219c0 -64 31 -93 96 -93c29 0 53 4 74 9v-103c-28 -8 -63 -14 -106 -14c-143 0 -193 71 -193 181v239h-116z" />
    <glyph glyph-name="u" unicode="u" horiz-adv-x="700" 
d="M285 -15c-146 0 -215 79 -215 218v297h129v-275c0 -102 55 -141 127 -141c106 0 159 76 159 165v251h129v-500h-125v106c-32 -76 -111 -121 -204 -121z" />
    <glyph glyph-name="v" unicode="v" horiz-adv-x="607" 
d="M232 0l-229 500h139l140 -328c9 -24 15 -43 20 -62h3c5 19 10 38 20 62l139 328h140l-229 -500h-143z" />
    <glyph glyph-name="w" unicode="w" horiz-adv-x="907" 
d="M188 0l-170 500h130l103 -338c4 -15 8 -34 10 -52h2c3 18 9 37 13 52l113 338h129l113 -338c5 -15 10 -34 13 -52h2c3 18 7 37 11 52l103 338h129l-170 -500h-138l-114 332c-6 17 -11 38 -12 51h-3c-1 -13 -6 -34 -11 -51l-114 -332h-139z" />
    <glyph glyph-name="x" unicode="x" horiz-adv-x="623" 
d="M10 0l219 257l-207 243h154l105 -129c16 -20 26 -36 31 -49h1c6 13 17 30 31 49l103 129h151l-205 -244l220 -256h-156l-117 139c-16 20 -27 36 -32 48h-1c-5 -10 -16 -27 -34 -48l-116 -139h-147z" />
    <glyph glyph-name="y" unicode="y" horiz-adv-x="606" 
d="M115 -204c-19 0 -47 1 -70 6v102c21 -3 39 -5 56 -5c67 0 113 27 137 81l8 22l-243 498h145l145 -334c9 -22 13 -38 17 -54h3c3 15 8 30 17 53l136 335h137l-235 -528c-56 -128 -132 -176 -253 -176z" />
    <glyph glyph-name="z" unicode="z" horiz-adv-x="580" 
d="M38 87l333 320h-319v93h481v-85l-330 -321h346v-94h-511v87z" />
    <glyph glyph-name="aacute" unicode="&#xe1;" horiz-adv-x="667" 
d="M280 575l125 151h140l-153 -151h-112zM246 -15c-124 0 -203 57 -203 150c0 48 21 88 61 113c36 23 86 37 180 46l179 15v11c0 73 -45 107 -129 107c-82 0 -132 -32 -140 -91h-135c12 109 117 179 275 179c177 0 259 -68 259 -213v-141c0 -74 4 -121 13 -161h-130
c-5 26 -7 59 -8 91c-34 -67 -112 -106 -222 -106zM289 71c104 0 176 55 176 140v26l-169 -17c-87 -9 -119 -32 -119 -78c0 -45 41 -71 112 -71z" />
    <glyph glyph-name="abreve" unicode="&#x103;" horiz-adv-x="667" 
d="M248 726c4 -57 36 -86 88 -86s83 29 87 86h93c-6 -108 -79 -156 -180 -156s-174 48 -181 156h93zM246 -15c-124 0 -203 57 -203 150c0 48 21 88 61 113c36 23 86 37 180 46l179 15v11c0 73 -45 107 -129 107c-82 0 -132 -32 -140 -91h-135c12 109 117 179 275 179
c177 0 259 -68 259 -213v-141c0 -74 4 -121 13 -161h-130c-5 26 -7 59 -8 91c-34 -67 -112 -106 -222 -106zM289 71c104 0 176 55 176 140v26l-169 -17c-87 -9 -119 -32 -119 -78c0 -45 41 -71 112 -71z" />
    <glyph glyph-name="acircumflex" unicode="&#xe2;" horiz-adv-x="667" 
d="M532 575h-108l-88 104l-88 -104h-109l129 151h135zM246 -15c-124 0 -203 57 -203 150c0 48 21 88 61 113c36 23 86 37 180 46l179 15v11c0 73 -45 107 -129 107c-82 0 -132 -32 -140 -91h-135c12 109 117 179 275 179c177 0 259 -68 259 -213v-141c0 -74 4 -121 13 -161
h-130c-5 26 -7 59 -8 91c-34 -67 -112 -106 -222 -106zM289 71c104 0 176 55 176 140v26l-169 -17c-87 -9 -119 -32 -119 -78c0 -45 41 -71 112 -71z" />
    <glyph glyph-name="adieresis" unicode="&#xe4;" horiz-adv-x="667" 
d="M141 587v121h131v-121h-131zM400 587v121h130v-121h-130zM246 -15c-124 0 -203 57 -203 150c0 48 21 88 61 113c36 23 86 37 180 46l179 15v11c0 73 -45 107 -129 107c-82 0 -132 -32 -140 -91h-135c12 109 117 179 275 179c177 0 259 -68 259 -213v-141
c0 -74 4 -121 13 -161h-130c-5 26 -7 59 -8 91c-34 -67 -112 -106 -222 -106zM289 71c104 0 176 55 176 140v26l-169 -17c-87 -9 -119 -32 -119 -78c0 -45 41 -71 112 -71z" />
    <glyph glyph-name="ae" unicode="&#xe6;" horiz-adv-x="1041" 
d="M1000 258v-39h-420c5 -84 64 -139 160 -139c70 0 122 31 151 87l101 -45c-48 -89 -137 -137 -256 -137c-113 0 -195 41 -239 114c-46 -76 -132 -114 -245 -114c-130 0 -209 55 -209 149c0 88 68 141 210 152l198 13v16c0 75 -41 111 -126 111c-81 0 -129 -33 -135 -92
h-132c12 113 112 181 268 181c95 0 161 -26 200 -76c47 50 117 76 205 76c169 0 269 -95 269 -257zM580 300h290c0 83 -58 133 -140 133c-87 0 -146 -49 -150 -133zM453 208v21l-162 -12c-80 -7 -114 -31 -114 -78c0 -42 40 -67 107 -67c90 0 169 43 169 136z" />
    <glyph glyph-name="aeacute" unicode="&#x1fd;" horiz-adv-x="1041" 
d="M730 726l-153 -151h-112l125 151h140zM1000 258v-39h-420c5 -84 64 -139 160 -139c70 0 122 31 151 87l101 -45c-48 -89 -137 -137 -256 -137c-113 0 -195 41 -239 114c-46 -76 -132 -114 -245 -114c-130 0 -209 55 -209 149c0 88 68 141 210 152l198 13v16
c0 75 -41 111 -126 111c-81 0 -129 -33 -135 -92h-132c12 113 112 181 268 181c95 0 161 -26 200 -76c47 50 117 76 205 76c169 0 269 -95 269 -257zM580 300h290c0 83 -58 133 -140 133c-87 0 -146 -49 -150 -133zM453 208v21l-162 -12c-80 -7 -114 -31 -114 -78
c0 -42 40 -67 107 -67c90 0 169 43 169 136z" />
    <glyph glyph-name="agrave" unicode="&#xe0;" horiz-adv-x="667" 
d="M392 575h-112l-153 151h140zM246 -15c-124 0 -203 57 -203 150c0 48 21 88 61 113c36 23 86 37 180 46l179 15v11c0 73 -45 107 -129 107c-82 0 -132 -32 -140 -91h-135c12 109 117 179 275 179c177 0 259 -68 259 -213v-141c0 -74 4 -121 13 -161h-130
c-5 26 -7 59 -8 91c-34 -67 -112 -106 -222 -106zM289 71c104 0 176 55 176 140v26l-169 -17c-87 -9 -119 -32 -119 -78c0 -45 41 -71 112 -71z" />
    <glyph glyph-name="amacron" unicode="&#x101;" horiz-adv-x="667" 
d="M144 603v82h385v-82h-385zM246 -15c-124 0 -203 57 -203 150c0 48 21 88 61 113c36 23 86 37 180 46l179 15v11c0 73 -45 107 -129 107c-82 0 -132 -32 -140 -91h-135c12 109 117 179 275 179c177 0 259 -68 259 -213v-141c0 -74 4 -121 13 -161h-130c-5 26 -7 59 -8 91
c-34 -67 -112 -106 -222 -106zM289 71c104 0 176 55 176 140v26l-169 -17c-87 -9 -119 -32 -119 -78c0 -45 41 -71 112 -71z" />
    <glyph glyph-name="aogonek" unicode="&#x105;" horiz-adv-x="667" 
d="M553 -96l75 -17c-14 -58 -59 -91 -135 -91c-77 0 -124 36 -124 93c0 50 35 89 106 115c-4 25 -6 57 -7 87c-34 -67 -112 -106 -222 -106c-124 0 -203 57 -203 150c0 48 21 88 61 113c36 23 86 37 180 46l179 15v11c0 73 -45 107 -129 107c-82 0 -132 -32 -140 -91h-135
c12 109 117 179 275 179c177 0 259 -68 259 -213v-141c0 -74 4 -121 13 -161h-22c-91 -18 -127 -61 -127 -99c0 -26 17 -43 43 -43s43 15 53 46zM465 211v26l-169 -17c-87 -9 -119 -32 -119 -78c0 -45 41 -71 112 -71c104 0 176 55 176 140z" />
    <glyph glyph-name="aring" unicode="&#xe5;" horiz-adv-x="667" 
d="M336 555c-86 0 -140 44 -140 110s54 110 140 110s140 -44 140 -110s-54 -110 -140 -110zM336 610c43 0 69 22 69 55s-26 55 -69 55s-69 -22 -69 -55s26 -55 69 -55zM246 -15c-124 0 -203 57 -203 150c0 48 21 88 61 113c36 23 86 37 180 46l179 15v11
c0 73 -45 107 -129 107c-82 0 -132 -32 -140 -91h-135c12 109 117 179 275 179c177 0 259 -68 259 -213v-141c0 -74 4 -121 13 -161h-130c-5 26 -7 59 -8 91c-34 -67 -112 -106 -222 -106zM289 71c104 0 176 55 176 140v26l-169 -17c-87 -9 -119 -32 -119 -78
c0 -45 41 -71 112 -71z" />
    <glyph glyph-name="atilde" unicode="&#xe3;" horiz-adv-x="667" 
d="M423 582c-86 0 -114 65 -172 65c-31 0 -49 -18 -60 -59l-74 22c14 76 60 119 132 119c87 0 115 -65 172 -65c31 0 50 18 60 59l75 -22c-14 -75 -61 -119 -133 -119zM246 -15c-124 0 -203 57 -203 150c0 48 21 88 61 113c36 23 86 37 180 46l179 15v11
c0 73 -45 107 -129 107c-82 0 -132 -32 -140 -91h-135c12 109 117 179 275 179c177 0 259 -68 259 -213v-141c0 -74 4 -121 13 -161h-130c-5 26 -7 59 -8 91c-34 -67 -112 -106 -222 -106zM289 71c104 0 176 55 176 140v26l-169 -17c-87 -9 -119 -32 -119 -78
c0 -45 41 -71 112 -71z" />
    <glyph glyph-name="cacute" unicode="&#x107;" horiz-adv-x="643" 
d="M268 575l125 151h140l-153 -151h-112zM331 -15c-180 0 -296 104 -296 266c0 163 115 264 298 264c153 0 252 -66 276 -185l-132 -19c-15 69 -67 107 -148 107c-100 0 -160 -62 -160 -166c0 -106 62 -169 162 -169c80 0 131 37 149 107l128 -22
c-25 -114 -129 -183 -277 -183z" />
    <glyph glyph-name="ccaron" unicode="&#x10d;" horiz-adv-x="643" 
d="M128 721h108l88 -104l88 104h109l-129 -151h-135zM331 -15c-180 0 -296 104 -296 266c0 163 115 264 298 264c153 0 252 -66 276 -185l-132 -19c-15 69 -67 107 -148 107c-100 0 -160 -62 -160 -166c0 -106 62 -169 162 -169c80 0 131 37 149 107l128 -22
c-25 -114 -129 -183 -277 -183z" />
    <glyph glyph-name="ccedilla" unicode="&#xe7;" horiz-adv-x="643" 
d="M331 83c80 0 131 37 149 107l128 -22c-23 -106 -115 -174 -248 -182l-25 -37c13 9 34 14 57 14c60 0 97 -30 97 -82c0 -57 -52 -91 -133 -91c-62 0 -106 23 -125 62l73 17c9 -16 27 -26 51 -26c29 0 48 15 48 39c0 23 -17 38 -45 38c-17 0 -32 -6 -43 -16l-59 14l39 68
c-159 14 -260 114 -260 265c0 163 115 264 298 264c153 0 252 -66 276 -185l-132 -19c-15 69 -67 107 -148 107c-100 0 -160 -62 -160 -166c0 -106 62 -169 162 -169z" />
    <glyph glyph-name="ccircumflex" unicode="&#x109;" horiz-adv-x="643" 
d="M520 575h-108l-88 104l-88 -104h-109l129 151h135zM331 -15c-180 0 -296 104 -296 266c0 163 115 264 298 264c153 0 252 -66 276 -185l-132 -19c-15 69 -67 107 -148 107c-100 0 -160 -62 -160 -166c0 -106 62 -169 162 -169c80 0 131 37 149 107l128 -22
c-25 -114 -129 -183 -277 -183z" />
    <glyph glyph-name="cdotaccent" unicode="&#x10b;" horiz-adv-x="643" 
d="M253 583v129h141v-129h-141zM331 -15c-180 0 -296 104 -296 266c0 163 115 264 298 264c153 0 252 -66 276 -185l-132 -19c-15 69 -67 107 -148 107c-100 0 -160 -62 -160 -166c0 -106 62 -169 162 -169c80 0 131 37 149 107l128 -22c-25 -114 -129 -183 -277 -183z" />
    <glyph glyph-name="dcaron" unicode="&#x10f;" horiz-adv-x="713" 
d="M288 -15c-148 0 -252 107 -252 265c0 157 106 265 260 265c89 0 154 -30 197 -92v302h129v-725h-124v94c-40 -69 -112 -109 -210 -109zM706 526l-22 42c41 9 52 22 52 48h-66v94h127v-77c0 -57 -24 -93 -91 -107zM332 80c98 0 164 62 164 157v24c0 97 -67 159 -166 159
c-100 0 -159 -63 -159 -169s62 -171 161 -171z" />
    <glyph glyph-name="dcroat" unicode="&#x111;" horiz-adv-x="713" 
d="M721 644v-62h-99v-582h-124v94c-40 -69 -112 -109 -210 -109c-148 0 -252 107 -252 265c0 157 106 265 260 265c89 0 154 -30 197 -92v159h-205v62h205v81h129v-81h99zM496 237v24c0 97 -67 159 -166 159c-100 0 -159 -63 -159 -169s62 -171 161 -171
c98 0 164 62 164 157z" />
    <glyph glyph-name="eacute" unicode="&#xe9;" horiz-adv-x="649" 
d="M532 726l-153 -151h-112l125 151h140zM608 264v-46h-447c5 -84 70 -138 174 -138c76 0 133 31 164 87l101 -46c-50 -88 -143 -136 -270 -136c-183 0 -295 95 -295 260c0 170 113 270 290 270c179 0 283 -91 283 -251zM480 299v5c-1 82 -64 129 -157 129
c-97 0 -157 -51 -162 -134h319z" />
    <glyph glyph-name="ebreve" unicode="&#x115;" horiz-adv-x="649" 
d="M323 570c-101 0 -174 48 -181 156h93c4 -57 36 -86 88 -86s83 29 87 86h93c-6 -108 -79 -156 -180 -156zM608 264v-46h-447c5 -84 70 -138 174 -138c76 0 133 31 164 87l101 -46c-50 -88 -143 -136 -270 -136c-183 0 -295 95 -295 260c0 170 113 270 290 270
c179 0 283 -91 283 -251zM480 299v5c-1 82 -64 129 -157 129c-97 0 -157 -51 -162 -134h319z" />
    <glyph glyph-name="ecaron" unicode="&#x11b;" horiz-adv-x="649" 
d="M391 570h-135l-129 151h108l88 -104l88 104h109zM608 264v-46h-447c5 -84 70 -138 174 -138c76 0 133 31 164 87l101 -46c-50 -88 -143 -136 -270 -136c-183 0 -295 95 -295 260c0 170 113 270 290 270c179 0 283 -91 283 -251zM480 299v5c-1 82 -64 129 -157 129
c-97 0 -157 -51 -162 -134h319z" />
    <glyph glyph-name="ecircumflex" unicode="&#xea;" horiz-adv-x="649" 
d="M323 679l-88 -104h-109l129 151h135l129 -151h-108zM608 264v-46h-447c5 -84 70 -138 174 -138c76 0 133 31 164 87l101 -46c-50 -88 -143 -136 -270 -136c-183 0 -295 95 -295 260c0 170 113 270 290 270c179 0 283 -91 283 -251zM480 299v5c-1 82 -64 129 -157 129
c-97 0 -157 -51 -162 -134h319z" />
    <glyph glyph-name="edieresis" unicode="&#xeb;" horiz-adv-x="649" 
d="M259 708v-121h-131v121h131zM517 708v-121h-130v121h130zM608 264v-46h-447c5 -84 70 -138 174 -138c76 0 133 31 164 87l101 -46c-50 -88 -143 -136 -270 -136c-183 0 -295 95 -295 260c0 170 113 270 290 270c179 0 283 -91 283 -251zM480 299v5
c-1 82 -64 129 -157 129c-97 0 -157 -51 -162 -134h319z" />
    <glyph glyph-name="edotaccent" unicode="&#x117;" horiz-adv-x="649" 
d="M393 712v-129h-141v129h141zM608 264v-46h-447c5 -84 70 -138 174 -138c76 0 133 31 164 87l101 -46c-50 -88 -143 -136 -270 -136c-183 0 -295 95 -295 260c0 170 113 270 290 270c179 0 283 -91 283 -251zM480 299v5c-1 82 -64 129 -157 129c-97 0 -157 -51 -162 -134
h319z" />
    <glyph glyph-name="egrave" unicode="&#xe8;" horiz-adv-x="649" 
d="M379 575h-112l-153 151h140zM608 264v-46h-447c5 -84 70 -138 174 -138c76 0 133 31 164 87l101 -46c-50 -88 -143 -136 -270 -136c-183 0 -295 95 -295 260c0 170 113 270 290 270c179 0 283 -91 283 -251zM480 299v5c-1 82 -64 129 -157 129c-97 0 -157 -51 -162 -134
h319z" />
    <glyph glyph-name="emacron" unicode="&#x113;" horiz-adv-x="649" 
d="M516 685v-82h-385v82h385zM608 264v-46h-447c5 -84 70 -138 174 -138c76 0 133 31 164 87l101 -46c-50 -88 -143 -136 -270 -136c-183 0 -295 95 -295 260c0 170 113 270 290 270c179 0 283 -91 283 -251zM480 299v5c-1 82 -64 129 -157 129c-97 0 -157 -51 -162 -134
h319z" />
    <glyph glyph-name="eogonek" unicode="&#x119;" horiz-adv-x="649" 
d="M608 264v-46h-447c5 -84 70 -138 174 -138c76 0 133 31 164 87l101 -46c-38 -68 -102 -112 -187 -128c-65 -21 -91 -58 -91 -90c0 -26 17 -43 43 -43s43 15 53 46l75 -17c-14 -58 -59 -91 -135 -91c-77 0 -124 36 -124 93c0 39 21 71 63 95c-163 11 -262 104 -262 259
c0 170 113 270 290 270c179 0 283 -91 283 -251zM480 299v5c-1 82 -64 129 -157 129c-97 0 -157 -51 -162 -134h319z" />
    <glyph glyph-name="gbreve" unicode="&#x11f;" horiz-adv-x="656" 
d="M323 570c-101 0 -174 48 -181 156h93c4 -57 36 -86 88 -86s83 29 87 86h93c-6 -108 -79 -156 -180 -156zM589 494c-37 0 -62 -10 -77 -30c39 -30 60 -71 60 -120c0 -103 -94 -174 -250 -174c-50 0 -93 7 -129 20c-20 -8 -33 -21 -33 -40c0 -27 22 -44 76 -44h205
c126 0 188 -50 188 -143c0 -111 -99 -173 -317 -173c-199 0 -279 52 -279 130c0 45 28 80 85 96c-44 19 -66 51 -66 90c0 54 35 90 93 108c-47 31 -73 76 -73 130c0 104 93 171 250 171c54 0 100 -8 137 -22c16 57 64 92 140 92c12 0 23 -1 35 -3v-93c-14 3 -28 5 -45 5z
M322 246c76 0 123 39 123 98c0 58 -47 96 -123 96c-77 0 -124 -37 -124 -96s47 -98 124 -98zM423 0h-206c-15 0 -28 1 -41 2c-25 -14 -37 -35 -37 -59c0 -55 65 -75 182 -75c145 0 192 27 192 74c0 39 -28 58 -90 58z" />
    <glyph glyph-name="gcircumflex" unicode="&#x11d;" horiz-adv-x="656" 
d="M323 682l-88 -88h-109l129 132h135l129 -132h-108zM589 494c-37 0 -62 -10 -77 -30c39 -30 60 -71 60 -120c0 -103 -94 -174 -250 -174c-50 0 -93 7 -129 20c-20 -8 -33 -21 -33 -40c0 -27 22 -44 76 -44h205c126 0 188 -50 188 -143c0 -111 -99 -173 -317 -173
c-199 0 -279 52 -279 130c0 45 28 80 85 96c-44 19 -66 51 -66 90c0 54 35 90 93 108c-47 31 -73 76 -73 130c0 104 93 171 250 171c54 0 100 -8 137 -22c16 57 64 92 140 92c12 0 23 -1 35 -3v-93c-14 3 -28 5 -45 5zM322 246c76 0 123 39 123 98c0 58 -47 96 -123 96
c-77 0 -124 -37 -124 -96s47 -98 124 -98zM423 0h-206c-15 0 -28 1 -41 2c-25 -14 -37 -35 -37 -59c0 -55 65 -75 182 -75c145 0 192 27 192 74c0 39 -28 58 -90 58z" />
    <glyph glyph-name="gcommaaccent" unicode="&#x123;" horiz-adv-x="656" 
d="M387 669v-94h-129v79c0 56 22 96 92 115l23 -44c-44 -13 -53 -27 -54 -56h68zM589 494c-37 0 -62 -10 -77 -30c39 -30 60 -71 60 -120c0 -103 -94 -174 -250 -174c-50 0 -93 7 -129 20c-20 -8 -33 -21 -33 -40c0 -27 22 -44 76 -44h205c126 0 188 -50 188 -143
c0 -111 -99 -173 -317 -173c-199 0 -279 52 -279 130c0 45 28 80 85 96c-44 19 -66 51 -66 90c0 54 35 90 93 108c-47 31 -73 76 -73 130c0 104 93 171 250 171c54 0 100 -8 137 -22c16 57 64 92 140 92c12 0 23 -1 35 -3v-93c-14 3 -28 5 -45 5zM322 246
c76 0 123 39 123 98c0 58 -47 96 -123 96c-77 0 -124 -37 -124 -96s47 -98 124 -98zM423 0h-206c-15 0 -28 1 -41 2c-25 -14 -37 -35 -37 -59c0 -55 65 -75 182 -75c145 0 192 27 192 74c0 39 -28 58 -90 58z" />
    <glyph glyph-name="gdotaccent" unicode="&#x121;" horiz-adv-x="656" 
d="M393 712v-129h-141v129h141zM589 494c-37 0 -62 -10 -77 -30c39 -30 60 -71 60 -120c0 -103 -94 -174 -250 -174c-50 0 -93 7 -129 20c-20 -8 -33 -21 -33 -40c0 -27 22 -44 76 -44h205c126 0 188 -50 188 -143c0 -111 -99 -173 -317 -173c-199 0 -279 52 -279 130
c0 45 28 80 85 96c-44 19 -66 51 -66 90c0 54 35 90 93 108c-47 31 -73 76 -73 130c0 104 93 171 250 171c54 0 100 -8 137 -22c16 57 64 92 140 92c12 0 23 -1 35 -3v-93c-14 3 -28 5 -45 5zM322 246c76 0 123 39 123 98c0 58 -47 96 -123 96c-77 0 -124 -37 -124 -96
s47 -98 124 -98zM423 0h-206c-15 0 -28 1 -41 2c-25 -14 -37 -35 -37 -59c0 -55 65 -75 182 -75c145 0 192 27 192 74c0 39 -28 58 -90 58z" />
    <glyph glyph-name="hbar" unicode="&#x127;" horiz-adv-x="698" 
d="M426 516c142 0 217 -84 217 -243v-273h-129v260c0 102 -47 155 -138 155c-97 0 -156 -64 -156 -171v-244h-129v577h-91v62h91v86h129v-86h247v-62h-247v-178c38 76 111 117 206 117z" />
    <glyph glyph-name="hcircumflex" unicode="&#x125;" horiz-adv-x="714" 
d="M350 756h-117l-77 71l-77 -71h-118l123 113h144zM91 0v725h129v-326c38 76 111 117 206 117c142 0 217 -84 217 -243v-273h-129v260c0 102 -47 155 -138 155c-97 0 -156 -64 -156 -171v-244h-129z" />
    <glyph glyph-name="iacute" unicode="&#xed;" horiz-adv-x="301" 
d="M98 575l82 151h126l-99 -151h-109zM86 0v500h129v-500h-129z" />
    <glyph glyph-name="ibreve" unicode="&#x12d;" horiz-adv-x="301" 
d="M110 726c-1 -65 14 -85 41 -85s41 20 41 85h85c-1 -116 -54 -156 -126 -156s-125 40 -127 156h86zM86 0v500h129v-500h-129z" />
    <glyph glyph-name="icircumflex" unicode="&#xee;" horiz-adv-x="301" 
d="M290 575h-93l-46 105l-46 -105h-93l78 152h122zM86 0v500h129v-500h-129z" />
    <glyph glyph-name="idieresis" unicode="&#xef;" horiz-adv-x="301" 
d="M5 587v121h122v-121h-122zM174 587v121h122v-121h-122zM86 0v500h129v-500h-129z" />
    <glyph glyph-name="i.loclTRK" horiz-adv-x="301" 
d="M80 583v129h141v-129h-141zM86 0v500h129v-500h-129z" />
    <glyph glyph-name="dotlessi" unicode="&#x131;" horiz-adv-x="301" 
d="M86 0v500h129v-500h-129z" />
    <glyph glyph-name="igrave" unicode="&#xec;" horiz-adv-x="301" 
d="M204 575h-109l-99 151h126zM86 0v500h129v-500h-129z" />
    <glyph glyph-name="ij" unicode="&#x133;" horiz-adv-x="611" 
d="M80 583v129h141v-129h-141zM388 583v129h141v-129h-141zM86 0v500h129v-500h-129zM347 -203c-23 0 -57 2 -74 6v99c23 -2 43 -3 57 -3c45 0 66 22 66 96v505h129v-520c0 -107 -41 -183 -178 -183z" />
    <glyph glyph-name="jacute" horiz-adv-x="307" 
d="M102 575l82 151h126l-99 -151h-109zM43 -203c-23 0 -57 2 -74 6v99c23 -2 43 -3 57 -3c45 0 66 22 66 96v505h129v-520c0 -107 -41 -183 -178 -183z" />
    <glyph glyph-name="imacron" unicode="&#x12b;" horiz-adv-x="301" 
d="M27 603v82h248v-82h-248zM86 0v500h129v-500h-129z" />
    <glyph glyph-name="iogonek" unicode="&#x12f;" horiz-adv-x="301" 
d="M221 712v-129h-141v129h141zM163 -96l75 -17c-14 -58 -59 -91 -135 -91c-77 0 -124 36 -124 93c0 50 35 89 107 115v496h129v-500h-21c-91 -18 -127 -61 -127 -99c0 -26 17 -43 43 -43s43 15 53 46z" />
    <glyph glyph-name="itilde" unicode="&#x129;" horiz-adv-x="301" 
d="M209 581c-56 0 -77 67 -106 67c-14 0 -23 -14 -28 -54l-67 19c9 74 42 117 92 117c56 0 78 -67 106 -67c15 0 24 14 28 54l68 -19c-9 -74 -43 -117 -93 -117zM86 0v500h129v-500h-129z" />
    <glyph glyph-name="jcircumflex" unicode="&#x135;" horiz-adv-x="307" 
d="M294 575h-93l-46 105l-46 -105h-93l78 152h122zM43 -203c-23 0 -57 2 -74 6v99c23 -2 43 -3 57 -3c45 0 66 22 66 96v505h129v-520c0 -107 -41 -183 -178 -183z" />
    <glyph glyph-name="uni0237" unicode="&#x237;" horiz-adv-x="307" 
d="M43 -203c-23 0 -57 2 -74 6v99c23 -2 43 -3 57 -3c45 0 66 22 66 96v505h129v-520c0 -107 -41 -183 -178 -183z" />
    <glyph glyph-name="kcommaaccent" unicode="&#x137;" horiz-adv-x="668" 
d="M432 313l218 -313h-151l-163 238l-116 -95v-143h-129v725h129v-454l253 229h167zM272 -141v94h129v-79c0 -56 -22 -96 -92 -115l-23 44c44 13 53 27 54 56h-68z" />
    <glyph glyph-name="kgreenlandic" unicode="&#x138;" horiz-adv-x="663" 
d="M494 0l-163 238l-116 -95v-143h-129v500h129v-229l253 229h167l-208 -187l218 -313h-151z" />
    <glyph glyph-name="lacute" unicode="&#x13a;" horiz-adv-x="311" 
d="M98 756l118 113h133l-136 -113h-115zM220 725v-725h-129v725h129z" />
    <glyph glyph-name="lcaron" unicode="&#x13e;" horiz-adv-x="311" 
d="M220 725v-725h-129v725h129zM304 526l-22 42c41 9 52 22 52 48h-66v94h127v-77c0 -57 -24 -93 -91 -107z" />
    <glyph glyph-name="lcommaaccent" unicode="&#x13c;" horiz-adv-x="311" 
d="M220 725v-725h-129v725h129zM129 -241l-23 44c44 13 53 27 54 56h-68v94h129v-79c0 -56 -22 -96 -92 -115z" />
    <glyph glyph-name="ldot" unicode="&#x140;" horiz-adv-x="430" 
d="M220 725v-725h-129v725h129zM448 500v-139h-155v139h155z" />
    <glyph glyph-name="lslash" unicode="&#x142;" horiz-adv-x="311" 
d="M277 536v-76l-57 -49v-411h-129v300l-57 -49v76l57 49v349h129v-238z" />
    <glyph glyph-name="nacute" unicode="&#x144;" horiz-adv-x="709" 
d="M331 575l125 151h140l-153 -151h-112zM86 0v500h125v-107c40 81 112 123 212 123c141 0 215 -81 215 -235v-281h-129v264c0 100 -44 150 -136 150c-98 0 -158 -63 -158 -171v-243h-129z" />
    <glyph glyph-name="napostrophe" unicode="&#x149;" horiz-adv-x="709" 
d="M50 526l-22 42c41 9 52 22 52 48h-66v94h127v-77c0 -57 -24 -93 -91 -107zM86 0v500h125v-107c40 81 112 123 212 123c141 0 215 -81 215 -235v-281h-129v264c0 100 -44 150 -136 150c-98 0 -158 -63 -158 -171v-243h-129z" />
    <glyph glyph-name="ncaron" unicode="&#x148;" horiz-adv-x="709" 
d="M191 721h108l88 -104l88 104h109l-129 -151h-135zM86 0v500h125v-107c40 81 112 123 212 123c141 0 215 -81 215 -235v-281h-129v264c0 100 -44 150 -136 150c-98 0 -158 -63 -158 -171v-243h-129z" />
    <glyph glyph-name="ncommaaccent" unicode="&#x146;" horiz-adv-x="709" 
d="M86 0v500h125v-107c40 81 112 123 212 123c141 0 215 -81 215 -235v-281h-129v264c0 100 -44 150 -136 150c-98 0 -158 -63 -158 -171v-243h-129zM328 -241l-23 44c44 13 53 27 54 56h-68v94h129v-79c0 -56 -22 -96 -92 -115z" />
    <glyph glyph-name="ntilde" unicode="&#xf1;" horiz-adv-x="709" 
d="M474 582c-86 0 -114 65 -172 65c-31 0 -49 -18 -60 -59l-74 22c14 76 60 119 132 119c87 0 115 -65 172 -65c31 0 50 18 60 59l75 -22c-14 -75 -61 -119 -133 -119zM86 0v500h125v-107c40 81 112 123 212 123c141 0 215 -81 215 -235v-281h-129v264
c0 100 -44 150 -136 150c-98 0 -158 -63 -158 -171v-243h-129z" />
    <glyph glyph-name="eng" unicode="&#x14b;" horiz-adv-x="709" 
d="M423 516c141 0 215 -81 215 -235v-295c0 -113 -43 -188 -184 -188c-23 0 -55 2 -75 7v97c17 -2 35 -3 53 -3c55 0 77 23 77 91v274c0 100 -44 150 -136 150c-98 0 -158 -63 -158 -171v-243h-129v500h125v-107c40 81 112 123 212 123z" />
    <glyph glyph-name="oacute" unicode="&#xf3;" horiz-adv-x="667" 
d="M278 575l125 151h140l-153 -151h-112zM334 -15c-178 0 -299 101 -299 265c0 165 121 265 299 265c177 0 298 -100 298 -265c0 -164 -121 -265 -298 -265zM334 80c101 0 164 61 164 170c0 110 -63 170 -164 170c-102 0 -165 -60 -165 -170c0 -109 63 -170 165 -170z" />
    <glyph glyph-name="obreve" unicode="&#x14f;" horiz-adv-x="667" 
d="M246 726c4 -57 36 -86 88 -86s83 29 87 86h93c-6 -108 -79 -156 -180 -156s-174 48 -181 156h93zM334 -15c-178 0 -299 101 -299 265c0 165 121 265 299 265c177 0 298 -100 298 -265c0 -164 -121 -265 -298 -265zM334 80c101 0 164 61 164 170c0 110 -63 170 -164 170
c-102 0 -165 -60 -165 -170c0 -109 63 -170 165 -170z" />
    <glyph glyph-name="ocircumflex" unicode="&#xf4;" horiz-adv-x="667" 
d="M530 575h-108l-88 104l-88 -104h-109l129 151h135zM334 -15c-178 0 -299 101 -299 265c0 165 121 265 299 265c177 0 298 -100 298 -265c0 -164 -121 -265 -298 -265zM334 80c101 0 164 61 164 170c0 110 -63 170 -164 170c-102 0 -165 -60 -165 -170
c0 -109 63 -170 165 -170z" />
    <glyph glyph-name="odieresis" unicode="&#xf6;" horiz-adv-x="667" 
d="M139 587v121h131v-121h-131zM398 587v121h130v-121h-130zM334 -15c-178 0 -299 101 -299 265c0 165 121 265 299 265c177 0 298 -100 298 -265c0 -164 -121 -265 -298 -265zM334 80c101 0 164 61 164 170c0 110 -63 170 -164 170c-102 0 -165 -60 -165 -170
c0 -109 63 -170 165 -170z" />
    <glyph glyph-name="oe" unicode="&#x153;" horiz-adv-x="1115" 
d="M1074 264v-46h-447c5 -84 70 -138 174 -138c76 0 133 31 164 87l101 -46c-50 -88 -143 -136 -270 -136c-104 0 -186 31 -236 88c-50 -55 -126 -88 -225 -88c-183 0 -300 109 -300 265c0 158 117 265 300 265c100 0 177 -34 227 -90c50 58 129 90 229 90
c179 0 283 -91 283 -251zM946 299v5c-1 82 -64 129 -157 129c-97 0 -157 -51 -162 -134h319zM335 81c107 0 166 67 166 169s-60 169 -166 169c-107 0 -166 -67 -166 -169s59 -169 166 -169z" />
    <glyph glyph-name="ograve" unicode="&#xf2;" horiz-adv-x="667" 
d="M390 575h-112l-153 151h140zM334 -15c-178 0 -299 101 -299 265c0 165 121 265 299 265c177 0 298 -100 298 -265c0 -164 -121 -265 -298 -265zM334 80c101 0 164 61 164 170c0 110 -63 170 -164 170c-102 0 -165 -60 -165 -170c0 -109 63 -170 165 -170z" />
    <glyph glyph-name="ohungarumlaut" unicode="&#x151;" horiz-adv-x="667" 
d="M192 575l115 151h108l-122 -151h-101zM373 575l115 151h109l-122 -151h-102zM334 -15c-178 0 -299 101 -299 265c0 165 121 265 299 265c177 0 298 -100 298 -265c0 -164 -121 -265 -298 -265zM334 80c101 0 164 61 164 170c0 110 -63 170 -164 170
c-102 0 -165 -60 -165 -170c0 -109 63 -170 165 -170z" />
    <glyph glyph-name="omacron" unicode="&#x14d;" horiz-adv-x="667" 
d="M142 603v82h385v-82h-385zM334 -15c-178 0 -299 101 -299 265c0 165 121 265 299 265c177 0 298 -100 298 -265c0 -164 -121 -265 -298 -265zM334 80c101 0 164 61 164 170c0 110 -63 170 -164 170c-102 0 -165 -60 -165 -170c0 -109 63 -170 165 -170z" />
    <glyph glyph-name="ordfeminine" unicode="&#xaa;" horiz-adv-x="525" 
d="M193 299c-94 0 -152 42 -152 110c0 81 72 104 168 114l138 12v10c0 52 -28 74 -85 74c-55 0 -88 -22 -93 -63h-117c10 82 91 130 210 130c138 0 198 -50 198 -157v-108c0 -46 4 -85 9 -111h-111c-3 18 -5 43 -6 67c-22 -48 -81 -78 -159 -78zM233 365c70 0 117 38 117 92
v29l-109 -11c-63 -7 -87 -25 -87 -58c0 -32 30 -52 79 -52z" />
    <glyph glyph-name="ordmasculine" unicode="&#xba;" horiz-adv-x="523" 
d="M262 299c-135 0 -227 71 -227 194c0 122 92 193 227 193c134 0 227 -71 227 -193c0 -123 -93 -194 -227 -194zM262 374c68 0 113 42 113 119c0 76 -45 118 -113 118c-69 0 -113 -42 -113 -118c0 -77 44 -119 113 -119z" />
    <glyph glyph-name="oslash" unicode="&#xf8;" horiz-adv-x="667" 
d="M563 432c44 -45 69 -107 69 -182c0 -164 -121 -265 -298 -265c-72 0 -135 17 -185 48l-55 -54l-43 36l54 53c-44 45 -70 107 -70 182c0 165 121 265 299 265c72 0 135 -17 184 -47l55 53l44 -37zM169 250c0 -39 8 -72 23 -98l246 238c-27 20 -62 30 -104 30
c-102 0 -165 -60 -165 -170zM334 80c101 0 164 61 164 170c0 39 -8 71 -22 97l-246 -237c27 -20 62 -30 104 -30z" />
    <glyph glyph-name="oslashacute" unicode="&#x1ff;" horiz-adv-x="667" 
d="M550 726l-153 -151h-112l125 151h140zM563 432c44 -45 69 -107 69 -182c0 -164 -121 -265 -298 -265c-72 0 -135 17 -185 48l-55 -54l-43 36l54 53c-44 45 -70 107 -70 182c0 165 121 265 299 265c72 0 135 -17 184 -47l55 53l44 -37zM169 250c0 -39 8 -72 23 -98
l246 238c-27 20 -62 30 -104 30c-102 0 -165 -60 -165 -170zM334 80c101 0 164 61 164 170c0 39 -8 71 -22 97l-246 -237c27 -20 62 -30 104 -30z" />
    <glyph glyph-name="otilde" unicode="&#xf5;" horiz-adv-x="667" 
d="M421 582c-86 0 -114 65 -172 65c-31 0 -49 -18 -60 -59l-74 22c14 76 60 119 132 119c87 0 115 -65 172 -65c31 0 50 18 60 59l75 -22c-14 -75 -61 -119 -133 -119zM334 -15c-178 0 -299 101 -299 265c0 165 121 265 299 265c177 0 298 -100 298 -265
c0 -164 -121 -265 -298 -265zM334 80c101 0 164 61 164 170c0 110 -63 170 -164 170c-102 0 -165 -60 -165 -170c0 -109 63 -170 165 -170z" />
    <glyph glyph-name="racute" unicode="&#x155;" horiz-adv-x="444" 
d="M175 575l125 151h140l-153 -151h-112zM204 369c26 86 92 144 186 144c14 0 24 -1 36 -3v-119c-13 2 -25 3 -39 3c-58 0 -96 -15 -123 -42c-40 -40 -49 -97 -49 -157v-195h-129v500h118v-131z" />
    <glyph glyph-name="rcaron" unicode="&#x159;" horiz-adv-x="444" 
d="M35 721h108l88 -104l88 104h109l-129 -151h-135zM204 369c26 86 92 144 186 144c14 0 24 -1 36 -3v-119c-13 2 -25 3 -39 3c-58 0 -96 -15 -123 -42c-40 -40 -49 -97 -49 -157v-195h-129v500h118v-131z" />
    <glyph glyph-name="rcommaaccent" unicode="&#x157;" horiz-adv-x="444" 
d="M204 369c26 86 92 144 186 144c14 0 24 -1 36 -3v-119c-13 2 -25 3 -39 3c-58 0 -96 -15 -123 -42c-40 -40 -49 -97 -49 -157v-195h-129v500h118v-131zM124 -241l-23 44c44 13 53 27 54 56h-68v94h129v-79c0 -56 -22 -96 -92 -115z" />
    <glyph glyph-name="sacute" unicode="&#x15b;" horiz-adv-x="606" 
d="M245 575l125 151h140l-153 -151h-112zM319 -15c-144 0 -241 50 -289 143l88 49c36 -66 104 -102 210 -102c79 0 118 22 118 64c0 38 -21 54 -80 60l-139 12c-116 12 -172 64 -172 148c0 99 90 156 245 156c130 0 224 -46 264 -122l-82 -52c-37 55 -95 86 -189 86
c-76 0 -117 -21 -117 -61c0 -34 25 -52 81 -58l145 -13c118 -11 164 -62 164 -146c0 -102 -82 -164 -247 -164z" />
    <glyph glyph-name="scaron" unicode="&#x161;" horiz-adv-x="606" 
d="M105 721h108l88 -104l88 104h109l-129 -151h-135zM319 -15c-144 0 -241 50 -289 143l88 49c36 -66 104 -102 210 -102c79 0 118 22 118 64c0 38 -21 54 -80 60l-139 12c-116 12 -172 64 -172 148c0 99 90 156 245 156c130 0 224 -46 264 -122l-82 -52
c-37 55 -95 86 -189 86c-76 0 -117 -21 -117 -61c0 -34 25 -52 81 -58l145 -13c118 -11 164 -62 164 -146c0 -102 -82 -164 -247 -164z" />
    <glyph glyph-name="scedilla" unicode="&#x15f;" horiz-adv-x="606" 
d="M566 149c0 -97 -75 -158 -225 -164l-25 -36c13 9 34 14 57 14c60 0 97 -30 97 -82c0 -57 -52 -91 -133 -91c-62 0 -106 23 -125 62l73 17c9 -16 27 -26 51 -26c29 0 48 15 48 39c0 23 -17 38 -45 38c-17 0 -32 -6 -43 -16l-59 14l39 69c-120 9 -203 58 -246 141l88 49
c36 -66 104 -102 210 -102c79 0 118 22 118 64c0 38 -21 54 -80 60l-139 12c-116 12 -172 64 -172 148c0 99 90 156 245 156c130 0 224 -46 264 -122l-82 -52c-37 55 -95 86 -189 86c-76 0 -117 -21 -117 -61c0 -34 25 -52 81 -58l145 -13c118 -11 164 -62 164 -146z" />
    <glyph glyph-name="scircumflex" unicode="&#x15d;" horiz-adv-x="606" 
d="M497 575h-108l-88 104l-88 -104h-109l129 151h135zM319 -15c-144 0 -241 50 -289 143l88 49c36 -66 104 -102 210 -102c79 0 118 22 118 64c0 38 -21 54 -80 60l-139 12c-116 12 -172 64 -172 148c0 99 90 156 245 156c130 0 224 -46 264 -122l-82 -52
c-37 55 -95 86 -189 86c-76 0 -117 -21 -117 -61c0 -34 25 -52 81 -58l145 -13c118 -11 164 -62 164 -146c0 -102 -82 -164 -247 -164z" />
    <glyph glyph-name="scommaaccent" unicode="&#x219;" horiz-adv-x="606" 
d="M319 -15c-144 0 -241 50 -289 143l88 49c36 -66 104 -102 210 -102c79 0 118 22 118 64c0 38 -21 54 -80 60l-139 12c-116 12 -172 64 -172 148c0 99 90 156 245 156c130 0 224 -46 264 -122l-82 -52c-37 55 -95 86 -189 86c-76 0 -117 -21 -117 -61c0 -34 25 -52 81 -58
l145 -13c118 -11 164 -62 164 -146c0 -102 -82 -164 -247 -164zM293 -241l-23 44c44 13 53 27 54 56h-68v94h129v-79c0 -56 -22 -96 -92 -115z" />
    <glyph glyph-name="tbar" unicode="&#x167;" horiz-adv-x="464" 
d="M426 409h-170v-97h169v-77h-169v-45c0 -64 31 -93 96 -93c29 0 53 4 74 9v-103c-28 -8 -63 -14 -106 -14c-143 0 -193 71 -193 181v65h-111v77h111v97h-116v91h116v125l129 50v-175h170v-91z" />
    <glyph glyph-name="tcaron" unicode="&#x165;" horiz-adv-x="461" 
d="M342 526l-22 42c41 9 52 22 52 48h-66v94h127v-77c0 -57 -24 -93 -91 -107zM11 409v91h116v125l129 50v-175h170v-91h-170v-219c0 -64 31 -93 96 -93c29 0 53 4 74 9v-103c-28 -8 -63 -14 -106 -14c-143 0 -193 71 -193 181v239h-116z" />
    <glyph glyph-name="uni0163" unicode="&#x163;" horiz-adv-x="461" 
d="M355 -37c60 0 97 -30 97 -82c0 -57 -52 -91 -133 -91c-62 0 -106 23 -125 62l73 17c9 -16 27 -26 51 -26c29 0 48 15 48 39c0 23 -17 38 -45 38c-17 0 -32 -6 -43 -16l-59 14l43 76c-99 17 -135 82 -135 176v239h-116v91h116v125l129 50v-175h170v-91h-170v-219
c0 -64 31 -93 96 -93c29 0 53 4 74 9v-103c-27 -8 -60 -13 -101 -14l-27 -40c13 9 34 14 57 14z" />
    <glyph glyph-name="uni021B" unicode="&#x21b;" horiz-adv-x="461" 
d="M11 409v91h116v125l129 50v-175h170v-91h-170v-219c0 -64 31 -93 96 -93c29 0 53 4 74 9v-103c-28 -8 -63 -14 -106 -14c-143 0 -193 71 -193 181v239h-116zM275 -241l-23 44c44 13 53 27 54 56h-68v94h129v-79c0 -56 -22 -96 -92 -115z" />
    <glyph glyph-name="thorn" unicode="&#xfe;" horiz-adv-x="713" 
d="M91 -195v920h129v-309c42 64 116 99 206 99c154 0 251 -111 251 -264s-101 -266 -255 -266c-87 0 -161 33 -202 92v-272h-129zM381 80c100 0 161 71 161 171c0 99 -60 169 -159 169c-101 0 -166 -62 -166 -158v-22c0 -97 63 -160 164 -160z" />
    <glyph glyph-name="uacute" unicode="&#xfa;" horiz-adv-x="700" 
d="M285 575l125 151h140l-153 -151h-112zM285 -15c-146 0 -215 79 -215 218v297h129v-275c0 -102 55 -141 127 -141c106 0 159 76 159 165v251h129v-500h-125v106c-32 -76 -111 -121 -204 -121z" />
    <glyph glyph-name="ubreve" unicode="&#x16d;" horiz-adv-x="700" 
d="M253 726c4 -57 36 -86 88 -86s83 29 87 86h93c-6 -108 -79 -156 -180 -156s-174 48 -181 156h93zM285 -15c-146 0 -215 79 -215 218v297h129v-275c0 -102 55 -141 127 -141c106 0 159 76 159 165v251h129v-500h-125v106c-32 -76 -111 -121 -204 -121z" />
    <glyph glyph-name="ucircumflex" unicode="&#xfb;" horiz-adv-x="700" 
d="M537 575h-108l-88 104l-88 -104h-109l129 151h135zM285 -15c-146 0 -215 79 -215 218v297h129v-275c0 -102 55 -141 127 -141c106 0 159 76 159 165v251h129v-500h-125v106c-32 -76 -111 -121 -204 -121z" />
    <glyph glyph-name="udieresis" unicode="&#xfc;" horiz-adv-x="700" 
d="M146 587v121h131v-121h-131zM405 587v121h130v-121h-130zM285 -15c-146 0 -215 79 -215 218v297h129v-275c0 -102 55 -141 127 -141c106 0 159 76 159 165v251h129v-500h-125v106c-32 -76 -111 -121 -204 -121z" />
    <glyph glyph-name="ugrave" unicode="&#xf9;" horiz-adv-x="700" 
d="M397 575h-112l-153 151h140zM285 -15c-146 0 -215 79 -215 218v297h129v-275c0 -102 55 -141 127 -141c106 0 159 76 159 165v251h129v-500h-125v106c-32 -76 -111 -121 -204 -121z" />
    <glyph glyph-name="uhungarumlaut" unicode="&#x171;" horiz-adv-x="700" 
d="M199 575l115 151h108l-122 -151h-101zM380 575l115 151h109l-122 -151h-102zM285 -15c-146 0 -215 79 -215 218v297h129v-275c0 -102 55 -141 127 -141c106 0 159 76 159 165v251h129v-500h-125v106c-32 -76 -111 -121 -204 -121z" />
    <glyph glyph-name="umacron" unicode="&#x16b;" horiz-adv-x="700" 
d="M149 603v82h385v-82h-385zM285 -15c-146 0 -215 79 -215 218v297h129v-275c0 -102 55 -141 127 -141c106 0 159 76 159 165v251h129v-500h-125v106c-32 -76 -111 -121 -204 -121z" />
    <glyph glyph-name="uogonek" unicode="&#x173;" horiz-adv-x="700" 
d="M566 -96l75 -17c-14 -58 -59 -91 -135 -91c-77 0 -124 36 -124 93c0 50 35 89 107 115v102c-32 -76 -111 -121 -204 -121c-146 0 -215 79 -215 218v297h129v-275c0 -102 55 -141 127 -141c106 0 159 76 159 165v251h129v-500h-17c-91 -18 -127 -61 -127 -99
c0 -26 17 -43 43 -43s43 15 53 46z" />
    <glyph glyph-name="uring" unicode="&#x16f;" horiz-adv-x="700" 
d="M341 555c-86 0 -140 44 -140 110s54 110 140 110s140 -44 140 -110s-54 -110 -140 -110zM341 610c43 0 69 22 69 55s-26 55 -69 55s-69 -22 -69 -55s26 -55 69 -55zM285 -15c-146 0 -215 79 -215 218v297h129v-275c0 -102 55 -141 127 -141c106 0 159 76 159 165v251h129
v-500h-125v106c-32 -76 -111 -121 -204 -121z" />
    <glyph glyph-name="utilde" unicode="&#x169;" horiz-adv-x="700" 
d="M428 582c-86 0 -114 65 -172 65c-31 0 -49 -18 -60 -59l-74 22c14 76 60 119 132 119c87 0 115 -65 172 -65c31 0 50 18 60 59l75 -22c-14 -75 -61 -119 -133 -119zM285 -15c-146 0 -215 79 -215 218v297h129v-275c0 -102 55 -141 127 -141c106 0 159 76 159 165v251h129
v-500h-125v106c-32 -76 -111 -121 -204 -121z" />
    <glyph glyph-name="wacute" unicode="&#x1e83;" horiz-adv-x="907" 
d="M398 575l125 151h140l-153 -151h-112zM188 0l-170 500h130l103 -338c4 -15 8 -34 10 -52h2c3 18 9 37 13 52l113 338h129l113 -338c5 -15 10 -34 13 -52h2c3 18 7 37 11 52l103 338h129l-170 -500h-138l-114 332c-6 17 -11 38 -12 51h-3c-1 -13 -6 -34 -11 -51l-114 -332
h-139z" />
    <glyph glyph-name="wcircumflex" unicode="&#x175;" horiz-adv-x="907" 
d="M650 575h-108l-88 104l-88 -104h-109l129 151h135zM188 0l-170 500h130l103 -338c4 -15 8 -34 10 -52h2c3 18 9 37 13 52l113 338h129l113 -338c5 -15 10 -34 13 -52h2c3 18 7 37 11 52l103 338h129l-170 -500h-138l-114 332c-6 17 -11 38 -12 51h-3
c-1 -13 -6 -34 -11 -51l-114 -332h-139z" />
    <glyph glyph-name="wdieresis" unicode="&#x1e85;" horiz-adv-x="907" 
d="M259 587v121h131v-121h-131zM518 587v121h130v-121h-130zM188 0l-170 500h130l103 -338c4 -15 8 -34 10 -52h2c3 18 9 37 13 52l113 338h129l113 -338c5 -15 10 -34 13 -52h2c3 18 7 37 11 52l103 338h129l-170 -500h-138l-114 332c-6 17 -11 38 -12 51h-3
c-1 -13 -6 -34 -11 -51l-114 -332h-139z" />
    <glyph glyph-name="wgrave" unicode="&#x1e81;" horiz-adv-x="907" 
d="M510 575h-112l-153 151h140zM188 0l-170 500h130l103 -338c4 -15 8 -34 10 -52h2c3 18 9 37 13 52l113 338h129l113 -338c5 -15 10 -34 13 -52h2c3 18 7 37 11 52l103 338h129l-170 -500h-138l-114 332c-6 17 -11 38 -12 51h-3c-1 -13 -6 -34 -11 -51l-114 -332h-139z
" />
    <glyph glyph-name="yacute" unicode="&#xfd;" horiz-adv-x="606" 
d="M249 575l125 151h140l-153 -151h-112zM115 -204c-19 0 -47 1 -70 6v102c21 -3 39 -5 56 -5c67 0 113 27 137 81l8 22l-243 498h145l145 -334c9 -22 13 -38 17 -54h3c3 15 8 30 17 53l136 335h137l-235 -528c-56 -128 -132 -176 -253 -176z" />
    <glyph glyph-name="ycircumflex" unicode="&#x177;" horiz-adv-x="606" 
d="M501 575h-108l-88 104l-88 -104h-109l129 151h135zM115 -204c-19 0 -47 1 -70 6v102c21 -3 39 -5 56 -5c67 0 113 27 137 81l8 22l-243 498h145l145 -334c9 -22 13 -38 17 -54h3c3 15 8 30 17 53l136 335h137l-235 -528c-56 -128 -132 -176 -253 -176z" />
    <glyph glyph-name="ydieresis" unicode="&#xff;" horiz-adv-x="606" 
d="M110 587v121h131v-121h-131zM369 587v121h130v-121h-130zM115 -204c-19 0 -47 1 -70 6v102c21 -3 39 -5 56 -5c67 0 113 27 137 81l8 22l-243 498h145l145 -334c9 -22 13 -38 17 -54h3c3 15 8 30 17 53l136 335h137l-235 -528c-56 -128 -132 -176 -253 -176z" />
    <glyph glyph-name="ygrave" unicode="&#x1ef3;" horiz-adv-x="606" 
d="M361 575h-112l-153 151h140zM115 -204c-19 0 -47 1 -70 6v102c21 -3 39 -5 56 -5c67 0 113 27 137 81l8 22l-243 498h145l145 -334c9 -22 13 -38 17 -54h3c3 15 8 30 17 53l136 335h137l-235 -528c-56 -128 -132 -176 -253 -176z" />
    <glyph glyph-name="zacute" unicode="&#x17a;" horiz-adv-x="580" 
d="M237 575l125 151h140l-153 -151h-112zM38 87l333 320h-319v93h481v-85l-330 -321h346v-94h-511v87z" />
    <glyph glyph-name="zcaron" unicode="&#x17e;" horiz-adv-x="580" 
d="M97 721h108l88 -104l88 104h109l-129 -151h-135zM38 87l333 320h-319v93h481v-85l-330 -321h346v-94h-511v87z" />
    <glyph glyph-name="zdotaccent" unicode="&#x17c;" horiz-adv-x="580" 
d="M222 583v129h141v-129h-141zM38 87l333 320h-319v93h481v-85l-330 -321h346v-94h-511v87z" />
    <glyph glyph-name="germandbls" unicode="&#xdf;" horiz-adv-x="714" 
d="M85 495c0 155 98 242 283 242c163 0 264 -64 264 -181c0 -89 -57 -150 -155 -162c129 -12 200 -78 200 -186c0 -141 -103 -218 -288 -218c-33 0 -65 3 -100 9v93c28 -5 55 -8 84 -8c113 0 171 43 171 128c0 83 -62 126 -187 128h-71v90h65c97 3 147 41 147 114
c0 66 -49 102 -136 102c-100 0 -148 -47 -148 -148v-498h-129v495z" />
    <glyph glyph-name="eth" unicode="&#xf0;" horiz-adv-x="674" 
d="M503 620c84 -89 130 -207 130 -345c0 -175 -118 -290 -306 -290c-190 0 -291 101 -291 262c0 157 102 260 266 260c95 0 152 -43 183 -90h2c-14 62 -52 119 -105 167l-145 -43l-18 46l115 35c-31 21 -65 39 -101 54l103 63c47 -22 89 -48 125 -79l97 29l18 -47zM333 82
c108 0 169 63 169 166c0 104 -63 168 -169 168c-105 0 -163 -64 -163 -168c0 -101 59 -166 163 -166z" />
    <glyph glyph-name="grave" unicode="`" horiz-adv-x="600" 
d="M274 575h-112l-153 151h140z" />
    <glyph glyph-name="acute" unicode="&#xb4;" horiz-adv-x="600" 
d="M48 575l125 151h140l-153 -151h-112z" />
    <glyph glyph-name="circumflex" unicode="&#x2c6;" horiz-adv-x="600" 
d="M432 575h-108l-88 104l-88 -104h-109l129 151h135z" />
    <glyph glyph-name="tilde" unicode="&#x2dc;" horiz-adv-x="600" 
d="M359 582c-86 0 -114 65 -172 65c-31 0 -49 -18 -60 -59l-74 22c14 76 60 119 132 119c87 0 115 -65 172 -65c31 0 50 18 60 59l75 -22c-14 -75 -61 -119 -133 -119z" />
    <glyph glyph-name="caron" unicode="&#x2c7;" horiz-adv-x="600" 
d="M40 721h108l88 -104l88 104h109l-129 -151h-135z" />
    <glyph glyph-name="dieresis" unicode="&#xa8;" horiz-adv-x="600" 
d="M48 587v121h131v-121h-131zM307 587v121h130v-121h-130z" />
    <glyph glyph-name="macron" unicode="&#xaf;" horiz-adv-x="600" 
d="M52 603v82h385v-82h-385z" />
    <glyph glyph-name="breve" unicode="&#x2d8;" horiz-adv-x="600" 
d="M146 726c4 -57 36 -86 88 -86s83 29 87 86h93c-6 -108 -79 -156 -180 -156s-174 48 -181 156h93z" />
    <glyph glyph-name="ring" unicode="&#x2da;" horiz-adv-x="600" 
d="M178 555c-86 0 -140 44 -140 110s54 110 140 110s140 -44 140 -110s-54 -110 -140 -110zM178 610c43 0 69 22 69 55s-26 55 -69 55s-69 -22 -69 -55s26 -55 69 -55z" />
    <glyph glyph-name="hungarumlaut" unicode="&#x2dd;" horiz-adv-x="600" 
d="M68 575l115 151h108l-122 -151h-101zM249 575l115 151h109l-122 -151h-102z" />
    <glyph glyph-name="dotaccent" unicode="&#x2d9;" horiz-adv-x="600" 
d="M49 583v129h141v-129h-141z" />
    <glyph glyph-name="cedilla" unicode="&#xb8;" horiz-adv-x="600" 
d="M129 6h68l-39 -57c13 9 34 14 57 14c60 0 97 -30 97 -82c0 -57 -52 -91 -133 -91c-62 0 -106 23 -125 62l73 17c9 -16 27 -26 51 -26c29 0 48 15 48 39c0 23 -17 38 -45 38c-17 0 -32 -6 -43 -16l-59 14z" />
    <glyph glyph-name="ogonek" unicode="&#x2db;" horiz-adv-x="600" 
d="M309 -113c-14 -58 -59 -91 -135 -91c-77 0 -124 36 -124 93c0 50 35 89 107 115l108 -4c-91 -18 -127 -61 -127 -99c0 -26 17 -43 43 -43s43 15 53 46z" />
    <glyph glyph-name="comma" unicode="," horiz-adv-x="293" 
d="M102 -150l-24 58c56 17 71 44 71 89v3h-78v145h152v-134c0 -84 -31 -136 -121 -161z" />
    <glyph glyph-name="semicolon" unicode=";" horiz-adv-x="296" 
d="M226 500v-139h-155v139h155zM102 -150l-24 58c56 17 71 44 71 89v3h-78v145h152v-134c0 -84 -31 -136 -121 -161z" />
    <glyph glyph-name="colon" unicode=":" horiz-adv-x="296" 
d="M226 500v-139h-155v139h155zM226 139v-139h-155v139h155z" />
    <glyph glyph-name="period" unicode="." horiz-adv-x="296" 
d="M226 139v-139h-155v139h155z" />
    <glyph glyph-name="ellipsis" unicode="&#x2026;" horiz-adv-x="928" 
d="M226 136v-136h-155v136h155zM542 136v-136h-155v136h155zM858 136v-136h-155v136h155z" />
    <glyph glyph-name="hyphen" unicode="-" horiz-adv-x="493" 
d="M49 331h394v-106h-394v106z" />
    <glyph glyph-name="exclam" unicode="!" horiz-adv-x="350" 
d="M123 211l-25 514h154l-26 -514h-103zM252 130v-130h-154v130h154z" />
    <glyph glyph-name="exclamdown" unicode="&#xa1;" horiz-adv-x="350" 
d="M252 450h-154v130h154v-130zM123 369h103l26 -514h-154z" />
    <glyph glyph-name="question" unicode="?" horiz-adv-x="610" 
d="M229 194v41c0 48 17 91 78 130l67 40c45 28 78 59 78 119c0 64 -54 112 -144 112c-95 0 -159 -48 -159 -134c0 -16 1 -31 6 -52l-133 13c-5 21 -6 39 -6 53c0 131 107 221 292 221c176 0 280 -79 280 -206c0 -86 -53 -140 -116 -180l-64 -40c-39 -24 -52 -48 -52 -89v-28
h-127zM218 0v130h152v-130h-152z" />
    <glyph glyph-name="questiondown" unicode="&#xbf;" horiz-adv-x="610" 
d="M392 580v-130h-152v130h152zM381 386v-41c0 -48 -17 -91 -78 -130l-67 -40c-45 -28 -78 -59 -78 -119c0 -64 54 -112 144 -112c95 0 159 48 159 134c0 16 -1 31 -6 52l133 -13c5 -21 6 -39 6 -53c0 -131 -107 -221 -292 -221c-176 0 -280 79 -280 206
c0 86 53 140 116 180l64 40c39 24 52 48 52 89v28h127z" />
    <glyph glyph-name="quoteleft" unicode="&#x2018;" horiz-adv-x="293" 
d="M191 730l24 -58c-56 -17 -71 -44 -71 -89v-3h78v-145h-152v134c0 84 31 136 121 161z" />
    <glyph glyph-name="quoteright" unicode="&#x2019;" horiz-adv-x="293" 
d="M102 415l-24 58c56 17 71 44 71 89v3h-78v145h152v-134c0 -84 -31 -136 -121 -161z" />
    <glyph glyph-name="quotedblleft" unicode="&#x201c;" horiz-adv-x="498" 
d="M191 730l24 -58c-56 -17 -71 -44 -71 -89v-3h78v-145h-152v134c0 84 31 136 121 161zM396 730l24 -58c-56 -17 -71 -44 -71 -89v-3h78v-145h-152v134c0 84 31 136 121 161z" />
    <glyph glyph-name="quotedblright" unicode="&#x201d;" horiz-adv-x="498" 
d="M102 415l-24 58c56 17 71 44 71 89v3h-78v145h152v-134c0 -84 -31 -136 -121 -161zM307 415l-24 58c56 17 71 44 71 89v3h-78v145h152v-134c0 -84 -31 -136 -121 -161z" />
    <glyph glyph-name="quotesinglbase" unicode="&#x201a;" horiz-adv-x="293" 
d="M102 -150l-24 58c56 17 71 44 71 89v3h-78v145h152v-134c0 -84 -31 -136 -121 -161z" />
    <glyph glyph-name="quotedblbase" unicode="&#x201e;" horiz-adv-x="498" 
d="M102 -150l-24 58c56 17 71 44 71 89v3h-78v145h152v-134c0 -84 -31 -136 -121 -161zM307 -150l-24 58c56 17 71 44 71 89v3h-78v145h152v-134c0 -84 -31 -136 -121 -161z" />
    <glyph glyph-name="guilsinglleft" unicode="&#x2039;" horiz-adv-x="373" 
d="M225 67l-199 209l202 206h126l-197 -206l196 -209h-128z" />
    <glyph glyph-name="guilsinglright" unicode="&#x203a;" horiz-adv-x="373" 
d="M148 67h-128l196 209l-197 206h126l202 -206z" />
    <glyph glyph-name="periodcentered" unicode="&#xb7;" horiz-adv-x="296" 
d="M226 408v-139h-155v139h155z" />
    <glyph glyph-name="slash" unicode="/" horiz-adv-x="567" 
d="M165 -117h-122l359 877h121z" />
    <glyph glyph-name="bar" unicode="|" horiz-adv-x="270" 
d="M91 -117v877h88v-877h-88z" />
    <glyph glyph-name="endash" unicode="&#x2013;" horiz-adv-x="655" 
d="M49 328h557v-101h-557v101z" />
    <glyph glyph-name="emdash" unicode="&#x2014;" horiz-adv-x="926" 
d="M49 329h828v-102h-828v102z" />
    <glyph glyph-name="bullet" unicode="&#x2022;" horiz-adv-x="364" 
d="M181 233c-63 0 -110 44 -110 109c0 67 47 111 110 111c65 0 112 -43 112 -111c0 -65 -47 -109 -112 -109z" />
    <glyph glyph-name="parenleft" unicode="(" horiz-adv-x="358" 
d="M255 -140c-124 125 -197 296 -197 466c0 171 75 338 199 457l94 -46c-117 -129 -167 -260 -167 -413s51 -287 167 -417z" />
    <glyph glyph-name="parenright" unicode=")" horiz-adv-x="358" 
d="M103 -140l-96 47c116 130 167 264 167 417s-50 284 -167 413l94 46c124 -119 199 -286 199 -457c0 -170 -73 -341 -197 -466z" />
    <glyph glyph-name="bracketleft" unicode="[" horiz-adv-x="375" 
d="M95 -117v877h257v-92h-140v-693h140v-92h-257z" />
    <glyph glyph-name="bracketright" unicode="]" horiz-adv-x="375" 
d="M280 -117h-257v92h140v693h-140v92h257v-877z" />
    <glyph glyph-name="braceleft" unicode="{" horiz-adv-x="382" 
d="M291 -118c-113 0 -172 49 -172 149v155c0 59 -7 98 -84 100v86c78 2 83 34 83 96v147c0 96 65 151 179 151h60v-89h-32c-60 0 -88 -28 -88 -86v-117c0 -69 -16 -125 -87 -144c71 -23 86 -84 86 -151v-126c0 -59 30 -82 86 -82h37v-89h-68z" />
    <glyph glyph-name="braceright" unicode="}" horiz-adv-x="382" 
d="M91 -118h-68v89h37c56 0 86 23 86 82v126c0 67 15 128 86 151c-71 19 -87 75 -87 144v117c0 58 -28 86 -88 86h-32v89h60c114 0 179 -55 179 -151v-147c0 -62 5 -94 83 -96v-86c-77 -2 -84 -41 -84 -100v-155c0 -100 -59 -149 -172 -149z" />
    <glyph glyph-name="guillemotleft" unicode="&#xab;" horiz-adv-x="613" 
d="M225 67l-199 209l202 206h126l-197 -206l196 -209h-128zM466 67l-199 209l202 206h126l-197 -206l196 -209h-128z" />
    <glyph glyph-name="guillemotright" unicode="&#xbb;" horiz-adv-x="613" 
d="M147 67h-128l196 209l-197 206h126l202 -206zM388 67h-128l196 209l-197 206h126l202 -206z" />
    <glyph glyph-name="zero" unicode="0" horiz-adv-x="748" 
d="M374 -19c-204 0 -329 141 -329 366c0 226 125 367 329 367s328 -141 328 -367c0 -225 -124 -366 -328 -366zM374 84c122 0 193 97 193 263c0 168 -71 264 -193 264s-193 -96 -193 -264c0 -166 71 -263 193 -263z" />
    <glyph glyph-name="one" unicode="1" horiz-adv-x="454" 
d="M206 0v510c-26 -31 -83 -50 -142 -50h-37v115h23c88 1 151 44 176 120h112v-695h-132z" />
    <glyph glyph-name="two" unicode="2" horiz-adv-x="672" 
d="M35 0v100c123 57 236 122 323 190c86 68 114 120 114 192c0 75 -47 128 -145 128c-93 0 -150 -50 -150 -132c0 -14 2 -32 6 -51l-135 13c-4 17 -6 32 -6 50c0 134 113 224 289 224c182 0 282 -87 282 -225c0 -102 -56 -179 -153 -253c-62 -45 -133 -86 -232 -128h397
v-108h-590z" />
    <glyph glyph-name="three" unicode="3" horiz-adv-x="687" 
d="M340 -19c-184 0 -298 88 -306 227l133 13c8 -88 69 -139 176 -139c105 0 160 43 160 117c0 79 -59 111 -163 111h-58v92h55c96 0 147 37 147 105c0 67 -51 106 -150 106c-102 0 -158 -54 -161 -146l-129 19c3 135 108 228 294 228c183 0 281 -75 281 -195
c0 -87 -64 -142 -150 -156c107 -15 172 -68 172 -169c0 -126 -108 -213 -301 -213z" />
    <glyph glyph-name="four" unicode="4" horiz-adv-x="680" 
d="M668 165h-129v-165h-129v165h-399v87l379 443h149v-434h129v-96zM412 490c0 53 0 70 3 96h-3c-12 -25 -26 -45 -56 -81l-144 -170c-28 -35 -45 -54 -67 -74h267v229z" />
    <glyph glyph-name="five" unicode="5" horiz-adv-x="675" 
d="M336 -19c-159 0 -270 76 -293 199l133 18c15 -69 73 -115 162 -115c102 0 162 55 162 148c0 94 -56 150 -156 150c-83 0 -134 -37 -160 -104l-122 11l44 407h488v-104h-387l-25 -203c36 58 108 90 201 90c157 0 251 -90 251 -243c0 -154 -115 -254 -298 -254z" />
    <glyph glyph-name="six" unicode="6" horiz-adv-x="689" 
d="M389 469c163 0 260 -89 260 -238c0 -148 -117 -250 -289 -250c-203 0 -317 127 -317 356c0 239 118 377 321 377c151 0 252 -68 277 -187l-132 -22c-19 73 -69 109 -148 109c-120 0 -186 -86 -190 -247c41 65 119 102 218 102zM359 82c96 0 158 57 158 147
s-58 143 -157 143c-90 0 -156 -48 -182 -131c19 -101 83 -159 181 -159z" />
    <glyph glyph-name="seven" unicode="7" horiz-adv-x="596" 
d="M156 0v13c0 209 105 406 284 572h-420v110h562v-99c-174 -155 -279 -347 -279 -570v-26h-147z" />
    <glyph glyph-name="eight" unicode="8" horiz-adv-x="698" 
d="M498 377c114 -36 162 -94 162 -187c0 -128 -118 -209 -308 -209c-194 0 -314 76 -314 199c0 90 55 149 159 175c-95 34 -136 87 -136 169c0 115 113 190 288 190c174 0 285 -72 285 -183c0 -78 -48 -131 -136 -154zM348 624c-97 0 -154 -37 -154 -100
c0 -54 41 -86 136 -107l64 -14c78 28 108 62 108 116c0 67 -57 105 -154 105zM353 78c107 0 172 43 172 114c0 60 -43 94 -149 118l-75 17c-89 -27 -127 -67 -127 -131c0 -73 67 -118 179 -118z" />
    <glyph glyph-name="nine" unicode="9" horiz-adv-x="690" 
d="M332 714c206 0 315 -124 315 -354c0 -228 -102 -379 -315 -379c-154 0 -258 71 -283 194l131 24c19 -75 69 -116 156 -116c124 0 182 98 182 258c-40 -57 -113 -91 -211 -91c-161 0 -267 81 -267 227c0 141 115 237 292 237zM330 348c92 0 161 49 183 120
c-17 84 -70 148 -180 148c-98 0 -161 -53 -161 -137c0 -83 62 -131 158 -131z" />
    <glyph glyph-name="zero.zero" horiz-adv-x="748" 
d="M374 714c204 0 328 -141 328 -367c0 -225 -124 -366 -328 -366s-329 141 -329 366c0 226 125 367 329 367zM374 611c-122 0 -193 -96 -193 -264c0 -53 7 -99 21 -137l312 335c-33 43 -81 66 -140 66zM374 84c122 0 193 97 193 263c0 51 -7 95 -19 132l-310 -333
c32 -40 79 -62 136 -62z" />
    <glyph glyph-name="asterisk" unicode="*" horiz-adv-x="377" 
d="M359 567l-125 -19l94 -89l-81 -59l-59 118l-58 -118l-81 59l94 89l-125 19l31 94l112 -62l-24 124h102l-23 -124l112 62z" />
    <glyph glyph-name="asciitilde" unicode="~" 
d="M453 224c-99 0 -139 77 -205 77c-42 0 -69 -24 -80 -69l-85 17c18 90 81 137 161 137c100 0 141 -77 206 -77c42 0 67 25 79 71l84 -16c-19 -94 -83 -140 -160 -140z" />
    <glyph glyph-name="brokenbar" unicode="&#xa6;" horiz-adv-x="270" 
d="M179 760v-376h-88v376h88zM179 263v-380h-88v380h88z" />
    <glyph glyph-name="backslash" unicode="\" horiz-adv-x="567" 
d="M402 -117l-358 877h121l359 -877h-122z" />
    <glyph glyph-name="underscore" unicode="_" horiz-adv-x="535" 
d="M0 -90h535v-78h-535v78z" />
    <glyph glyph-name="quotesingle" unicode="'" horiz-adv-x="273" 
d="M92 420l-21 290h131l-21 -290h-89z" />
    <glyph glyph-name="quotedbl" unicode="&#x22;" horiz-adv-x="470" 
d="M92 420l-21 290h131l-21 -290h-89zM289 420l-21 290h131l-21 -290h-89z" />
    <glyph glyph-name="ampersand" unicode="&#x26;" horiz-adv-x="764" 
d="M703 93c19 0 31 1 45 5v-99c-21 -6 -39 -10 -64 -10c-60 0 -115 25 -158 64c-64 -47 -143 -73 -233 -73c-177 0 -275 85 -275 200c0 88 51 145 163 199c-65 66 -96 118 -96 180c0 110 89 178 214 178c129 0 212 -65 212 -168c0 -79 -56 -145 -131 -183l-33 -17l180 -170
c35 52 59 120 68 201l106 -18c-10 -100 -44 -186 -96 -253c31 -24 61 -36 98 -36zM299 653c-57 0 -91 -31 -91 -89c0 -41 15 -74 76 -135l28 13c53 24 81 68 81 123s-33 88 -94 88zM151 191c0 -68 68 -115 157 -115c54 0 103 16 145 46l-206 194c-70 -37 -96 -70 -96 -125z
" />
    <glyph glyph-name="at" unicode="@" horiz-adv-x="914" 
d="M453 -104c-259 0 -420 146 -420 380c0 227 171 386 433 386c257 0 415 -147 415 -366c0 -140 -69 -228 -179 -228c-68 0 -113 29 -129 83c-34 -56 -99 -89 -179 -89c-97 0 -161 49 -161 123c0 78 53 118 177 133l155 16v9c0 63 -31 90 -102 90c-62 0 -99 -25 -103 -72
h-112c5 89 94 149 217 149c137 0 205 -57 205 -176v-119c0 -55 16 -78 56 -78c51 0 83 60 83 157c0 188 -123 305 -342 305c-225 0 -359 -128 -359 -323c0 -193 137 -315 355 -315c70 0 152 16 208 40l28 -57c-66 -32 -149 -48 -246 -48zM429 138c78 0 136 46 136 112v24
l-127 -14c-66 -8 -92 -27 -92 -66c0 -33 33 -56 83 -56z" />
    <glyph glyph-name="copyright" unicode="&#xa9;" horiz-adv-x="871" 
d="M436 -20c-230 0 -403 142 -403 375s173 375 403 375c229 0 402 -142 402 -375s-173 -375 -402 -375zM436 33c193 0 341 123 341 322c0 200 -148 322 -341 322c-194 0 -342 -122 -342 -322c0 -199 148 -322 342 -322zM442 141c-137 0 -221 84 -221 214
c0 129 82 214 221 214c114 0 190 -57 200 -141l-97 -13c-7 46 -44 79 -104 79c-76 0 -124 -55 -124 -139s48 -138 125 -138c57 0 96 32 105 78l96 -15c-17 -82 -92 -139 -201 -139z" />
    <glyph glyph-name="registered" unicode="&#xae;" horiz-adv-x="871" 
d="M436 730c229 0 402 -142 402 -375s-173 -375 -402 -375c-230 0 -403 142 -403 375s173 375 403 375zM436 33c193 0 341 123 341 322c0 200 -148 322 -341 322c-194 0 -342 -122 -342 -322c0 -199 148 -322 342 -322zM633 438c0 -56 -34 -99 -92 -116l103 -166h-104
l-91 157h-86v-157h-92v406h210c98 0 152 -45 152 -124zM363 495v-116h102c49 0 74 20 74 58s-23 58 -73 58h-103z" />
    <glyph glyph-name="trademark" unicode="&#x2122;" horiz-adv-x="976" 
d="M149 306v334h-144v72h385v-72h-152v-334h-89zM435 306v406h127l96 -260c11 -31 16 -51 19 -69h2c4 18 9 38 20 69l95 260h128v-406h-81v261c0 33 0 49 2 78h-1c-8 -28 -13 -40 -23 -70l-101 -269h-80l-100 269c-10 30 -15 42 -23 70h-2c3 -29 3 -45 3 -78v-261h-81z" />
    <glyph glyph-name="paragraph" unicode="&#xb6;" horiz-adv-x="776" 
d="M321 349c-155 0 -265 45 -265 184c0 132 111 187 274 187h377v-70h-106v-750h-80v750h-120v-750h-80v449z" />
    <glyph glyph-name="section" unicode="&#xa7;" horiz-adv-x="594" 
d="M496 180c30 -26 44 -61 44 -106c0 -111 -96 -175 -259 -175c-135 0 -228 47 -264 137l86 45c30 -60 93 -91 188 -91c84 0 125 24 125 73c0 38 -20 56 -81 74l-148 35c-114 29 -161 73 -161 153c0 50 25 87 73 112c-38 26 -54 62 -54 111c0 104 95 167 247 167
c120 0 208 -43 244 -120l-86 -50c-30 55 -85 82 -165 82c-77 0 -118 -24 -118 -68c0 -39 20 -55 90 -74l147 -33c106 -25 154 -72 154 -154c0 -49 -22 -89 -62 -118zM259 257l132 -28c10 -3 20 -5 29 -8c15 14 22 32 22 53c0 45 -24 65 -106 89l-142 34c-6 2 -12 3 -18 5
c-22 -14 -33 -33 -33 -58c0 -43 23 -59 116 -87z" />
    <glyph glyph-name="asciicircum" unicode="^" horiz-adv-x="492" 
d="M194 709h104l174 -267h-112l-114 183l-115 -183h-111z" />
    <glyph glyph-name="dagger" unicode="&#x2020;" horiz-adv-x="562" 
d="M332 416v-509h-103v509h-171v84h171v220h103v-220h172v-84h-172z" />
    <glyph glyph-name="daggerdbl" unicode="&#x2021;" horiz-adv-x="562" 
d="M504 416h-172v-206h172v-84h-172v-219h-103v219h-171v84h171v206h-171v84h171v220h103v-220h172v-84z" />
    <glyph glyph-name="emptyset" unicode="&#x2205;" horiz-adv-x="605" 
d="M569 514l-61 -58c35 -39 55 -91 55 -151c0 -139 -104 -233 -261 -233c-62 0 -117 15 -159 42l-64 -60l-44 41l62 58c-35 39 -55 91 -55 151c0 138 104 233 261 233c62 0 116 -15 159 -42l64 60zM146 305c0 -33 9 -61 24 -83l219 205c-23 13 -53 20 -86 20
c-96 0 -157 -57 -157 -142zM458 304c0 32 -8 61 -24 83l-219 -205c24 -13 53 -21 87 -21c96 0 156 57 156 143z" />
    <glyph glyph-name="uni2126" unicode="&#x2126;" horiz-adv-x="781" 
d="M723 0h-276l-17 243c114 16 176 84 176 190c0 116 -79 189 -215 189c-137 0 -216 -73 -216 -189c0 -106 62 -174 177 -190l-18 -243h-275v106h177l6 71c-124 34 -199 127 -199 258c0 175 138 289 348 289c209 0 347 -114 347 -289c0 -131 -75 -224 -199 -258l7 -71h177
v-106z" />
    <glyph glyph-name="uni2206" unicode="&#x2206;" horiz-adv-x="762" 
d="M15 0l298 707h138l296 -707h-732zM381 578l-195 -477h386z" />
    <glyph glyph-name="uni00B5" unicode="&#xb5;" horiz-adv-x="715" 
d="M501 500h129v-500h-125v106c-32 -76 -111 -121 -204 -121c-38 0 -71 5 -99 16v-196h-116v695h129v-275c0 -102 55 -141 127 -141c106 0 159 76 159 165v251z" />
    <glyph glyph-name="uniF8FF" unicode="&#xf8ff;" horiz-adv-x="1018" 
d="M998 663h-552v-47h552v-48h-552v-47h552v-48h-552v-47h552v-47h-552v-48h552v-47h-978v426h978v-47zM67 667l13 9h-16l-5 15l-4 -15h-16l13 -9l-5 -15l12 9l13 -9zM142 676h-16l13 -9l-5 -15l12 10l13 -10l-5 15l12 9h-15l-5 15zM229 676h-16l13 -9l-5 -15l12 10l13 -10
l-5 15l12 9h-15l-5 15zM315 676h-15l13 -9l-5 -15l12 10l13 -10l-5 15l12 9h-15l-5 15zM415 667l12 9h-15l-5 15l-5 -15h-15l12 -9l-4 -15l12 10l13 -10zM98 632h-15l12 -9l-4 -14l12 9l12 -9l-4 14l12 9h-15l-5 15zM371 623l13 9h-16l-4 15l-5 -15h-15l12 -9l-5 -14l13 9
l12 -9zM273 364v93h94v80h-94v94h-80v-94h-93v-80h93v-93h80zM67 580l13 9h-16l-5 14l-4 -14h-16l13 -9l-5 -15l12 9l13 -9zM142 589h-16l13 -9l-5 -15l12 9l13 -9l-5 15l12 9h-15l-5 14zM315 589h-15l13 -9l-5 -15l12 9l13 -9l-5 15l12 9h-15l-5 14zM415 580l12 9h-15
l-5 14l-5 -14h-15l12 -9l-4 -15l12 9l13 -9zM67 492l13 10h-16l-5 14l-4 -14h-16l13 -10l-5 -14l12 9l13 -9zM415 492l12 10h-15l-5 14l-5 -14h-15l12 -10l-4 -14l12 9l13 -9zM67 405l13 9h-16l-5 15l-4 -15h-16l13 -9l-5 -14l12 9l13 -9zM154 405l12 9h-15l-5 15l-4 -15
h-16l13 -9l-5 -14l12 9l13 -9zM328 405l12 9h-15l-5 15l-5 -15h-15l13 -9l-5 -14l12 9l13 -9zM415 405l12 9h-15l-5 15l-5 -15h-15l12 -9l-4 -14l12 9l13 -9zM115 347l-4 15l12 9h-15l-5 14l-5 -14h-15l12 -9l-4 -15l12 9zM376 347l-5 15l13 9h-16l-4 14l-5 -14h-15l12 -9
l-5 -15l13 9zM72 303l-5 15l13 9h-16l-5 15l-4 -15h-16l13 -9l-5 -15l12 9zM159 303l-5 15l12 9h-15l-5 15l-4 -15h-16l13 -9l-5 -15l12 9zM246 303l-5 15l12 9h-15l-5 15l-4 -15h-16l13 -9l-5 -15l12 9zM333 303l-5 15l12 9h-15l-5 15l-5 -15h-15l13 -9l-5 -15l12 9z
M420 303l-5 15l12 9h-15l-5 15l-5 -15h-15l12 -9l-4 -15l12 9zM20 189v48h977v-48h-977zM20 95v47h978v-47h-978zM20 0v47h978v-47h-978z" />
    <glyph glyph-name="uni2113" unicode="&#x2113;" horiz-adv-x="523" 
d="M238 208c0 -82 32 -115 112 -115c33 0 54 3 80 8v-101c-31 -8 -61 -12 -107 -12c-163 0 -211 76 -211 198c-32 -11 -65 -21 -100 -30l-31 89c47 14 91 28 131 42v254c0 140 88 194 188 194c122 0 183 -72 183 -183c0 -139 -88 -240 -245 -316v-28zM238 565v-221
c77 46 123 107 123 201c0 72 -23 99 -63 99c-38 0 -60 -28 -60 -79z" />
    <glyph glyph-name="estimated" unicode="&#x212e;" horiz-adv-x="814" 
d="M781 350h-565v-239c63 -47 144 -60 209 -60c126 0 212 38 285 132l51 -40c-80 -114 -195 -159 -336 -159c-206 0 -392 107 -392 367c0 245 180 368 386 368c222 0 362 -132 362 -329v-40zM612 599c-58 48 -138 59 -198 59c-59 0 -136 -14 -198 -62v-183h396v186z" />
    <glyph glyph-name="dollar" unicode="$" horiz-adv-x="724" 
d="M688 194c0 -124 -111 -206 -294 -213v-86h-64v87c-158 9 -270 73 -313 187l112 50c36 -82 104 -125 201 -135v226l-54 7c-149 25 -220 88 -220 200c0 114 103 188 274 195v87h64v-87c139 -8 233 -61 281 -160l-105 -57c-29 69 -85 109 -176 119v-203l58 -7
c161 -26 236 -87 236 -210zM328 420h2v196c-94 -4 -145 -34 -145 -94c0 -56 40 -85 143 -102zM394 82c105 4 163 40 163 107c0 65 -43 93 -148 111l-15 2v-220z" />
    <glyph glyph-name="cent" unicode="&#xa2;" horiz-adv-x="657" 
d="M370 77c73 8 118 45 134 107l118 -21c-24 -103 -117 -168 -252 -177v-83h-63v83c-168 11 -272 110 -272 264c0 155 102 253 272 264v79h63v-79c140 -8 231 -72 253 -181l-121 -17c-15 63 -59 100 -132 108v-347zM158 251c0 -100 54 -163 149 -174v347
c-94 -10 -149 -73 -149 -173z" />
    <glyph glyph-name="sterling" unicode="&#xa3;" horiz-adv-x="718" 
d="M586 187l122 -19c-18 -115 -98 -185 -214 -185c-99 0 -151 28 -269 28c-57 0 -122 -7 -184 -19l-26 77c98 29 146 87 146 176c0 30 -3 55 -7 78h-111v74h94c-7 28 -12 57 -12 92c0 139 101 224 267 224c148 0 241 -59 268 -171l-127 -27c-16 65 -64 100 -139 100
c-92 0 -137 -43 -137 -124c0 -36 6 -65 12 -94h222v-74h-205c3 -18 5 -38 5 -60c0 -77 -34 -131 -103 -162c28 6 54 8 86 8c79 0 128 -17 204 -17c60 0 99 34 108 95z" />
    <glyph glyph-name="florin" unicode="&#x192;" horiz-adv-x="523" 
d="M445 610c-78 0 -103 -37 -115 -116l-9 -66h157v-90h-170l-70 -488h-136l70 488h-137v90h150l8 54c24 159 87 230 243 230c34 0 58 -5 76 -10l-1 -100c-18 4 -42 8 -66 8z" />
    <glyph glyph-name="yen" unicode="&#xa5;" horiz-adv-x="699" 
d="M702 695l-275 -377h210v-65h-221v-55h221v-65h-221v-133h-133v133h-219v65h219v55h-219v65h208l-275 377h151l141 -200c22 -33 42 -64 60 -100h3c18 36 38 67 61 100l141 200h148z" />
    <glyph glyph-name="Euro" unicode="&#x20ac;" horiz-adv-x="796" 
d="M655 199l116 -49c-58 -104 -170 -169 -324 -169c-208 0 -325 116 -359 274h-79v63h70c-1 13 -1 26 -1 39c0 10 0 20 1 30h-70v63h79c34 158 158 263 364 263c155 0 262 -58 318 -158l-122 -51c-38 64 -99 103 -200 103c-124 0 -196 -61 -223 -157h346v-63h-356
c-1 -9 -1 -19 -1 -29c0 -14 1 -27 2 -40h355v-63h-344c30 -101 105 -167 225 -167c87 0 159 38 203 111z" />
    <glyph glyph-name="currency" unicode="&#xa4;" horiz-adv-x="617" 
d="M572 303c0 -58 -18 -107 -51 -146l59 -58l-56 -51l-62 60c-41 -24 -92 -37 -149 -37c-61 0 -114 15 -157 41l-65 -64l-56 52l63 63c-29 37 -46 85 -46 140s17 103 47 141l-64 63l56 52l67 -64c42 26 95 40 155 40c57 0 108 -13 148 -36l65 61l56 -52l-61 -59
c33 -39 51 -89 51 -146zM313 162c93 0 155 57 155 141s-62 140 -155 140c-95 0 -157 -56 -157 -140s62 -141 157 -141z" />
    <glyph glyph-name="fraction" unicode="&#x2044;" horiz-adv-x="216" 
d="M-195 -17l500 744h105l-498 -744h-107z" />
    <glyph glyph-name="onequarter" unicode="&#xbc;" horiz-adv-x="905" 
d="M105 -17l500 744h105l-498 -744h-107zM133 323v271c-20 -20 -55 -30 -88 -30h-20v79h13c54 0 92 23 109 67h75v-387h-89zM885 86h-77v-86h-88v86h-240v60l228 241h100v-237h77v-64zM720 314l-154 -164h154v164z" />
    <glyph glyph-name="onehalf" unicode="&#xbd;" horiz-adv-x="948" 
d="M105 -17l500 744h105l-498 -744h-107zM133 323v271c-20 -20 -55 -30 -88 -30h-20v79h13c54 0 92 23 109 67h75v-387h-89zM548 0v64c143 67 260 123 260 202c0 40 -30 64 -81 64c-48 0 -84 -22 -84 -68c0 -7 2 -15 4 -24l-94 8c-2 8 -3 17 -3 26c0 80 75 126 179 126
c106 0 175 -42 175 -125c0 -97 -114 -162 -214 -203h221v-70h-363z" />
    <glyph glyph-name="threequarters" unicode="&#xbe;" horiz-adv-x="1041" 
d="M241 -17l500 744h105l-498 -744h-107zM216 313c-114 0 -184 49 -187 130l92 8c3 -46 38 -72 95 -72c54 0 90 18 90 58c0 34 -26 51 -92 51h-41v62h41c53 0 83 18 83 51c0 36 -33 54 -83 54c-57 0 -90 -26 -91 -73l-90 9c2 80 71 130 184 130c105 0 173 -39 173 -110
c0 -49 -40 -81 -93 -87c67 -8 105 -39 105 -93c0 -75 -76 -118 -186 -118zM1021 86h-77v-86h-88v86h-240v60l228 241h100v-237h77v-64zM856 314l-154 -164h154v164z" />
    <glyph glyph-name="uni2153" unicode="&#x2153;" horiz-adv-x="952" 
d="M105 -17l500 744h105l-498 -744h-107zM133 323v271c-20 -20 -55 -30 -88 -30h-20v79h13c54 0 92 23 109 67h75v-387h-89zM732 -10c-114 0 -184 49 -187 130l92 8c3 -46 38 -72 95 -72c54 0 90 18 90 58c0 34 -26 51 -92 51h-41v62h41c53 0 83 18 83 51
c0 36 -33 54 -83 54c-57 0 -90 -26 -91 -73l-90 9c2 80 71 130 184 130c105 0 173 -39 173 -110c0 -49 -40 -81 -93 -87c67 -8 105 -39 105 -93c0 -75 -76 -118 -186 -118z" />
    <glyph glyph-name="uni2154" unicode="&#x2154;" horiz-adv-x="1084" 
d="M237 -17l500 744h105l-498 -744h-107zM32 323v64c143 67 260 123 260 202c0 40 -30 64 -81 64c-48 0 -84 -22 -84 -68c0 -7 2 -15 4 -24l-94 8c-2 8 -3 17 -3 26c0 80 75 126 179 126c106 0 175 -42 175 -125c0 -97 -114 -162 -214 -203h221v-70h-363zM864 -10
c-114 0 -184 49 -187 130l92 8c3 -46 38 -72 95 -72c54 0 90 18 90 58c0 34 -26 51 -92 51h-41v62h41c53 0 83 18 83 51c0 36 -33 54 -83 54c-57 0 -90 -26 -91 -73l-90 9c2 80 71 130 184 130c105 0 173 -39 173 -110c0 -49 -40 -81 -93 -87c67 -8 105 -39 105 -93
c0 -75 -76 -118 -186 -118z" />
    <glyph glyph-name="oneeighth" unicode="&#x215b;" horiz-adv-x="961" 
d="M605 727h105l-498 -744h-107zM133 323v271c-20 -20 -55 -30 -88 -30h-20v79h13c54 0 92 23 109 67h75v-387h-89zM833 213c66 -20 96 -52 96 -107c0 -72 -72 -116 -191 -116c-118 0 -191 42 -191 109c0 49 32 80 93 95c-55 18 -80 48 -80 95c0 66 69 109 176 109
c108 0 178 -38 178 -101c0 -43 -28 -70 -81 -84zM736 340c-54 0 -87 -20 -87 -51c0 -29 25 -45 80 -55l39 -7c41 13 56 30 56 58c0 34 -32 55 -88 55zM739 52c60 0 97 22 97 57c0 32 -24 49 -86 60l-44 9c-45 -14 -66 -34 -66 -66c0 -37 37 -60 99 -60z" />
    <glyph glyph-name="threeeighths" unicode="&#x215c;" horiz-adv-x="1097" 
d="M741 727h105l-498 -744h-107zM402 431c0 -75 -76 -118 -186 -118c-114 0 -184 49 -187 130l92 8c3 -46 38 -72 95 -72c54 0 90 18 90 58c0 34 -26 51 -92 51h-41v62h41c53 0 83 18 83 51c0 36 -33 54 -83 54c-57 0 -90 -26 -91 -73l-90 9c2 80 71 130 184 130
c105 0 173 -39 173 -110c0 -49 -40 -81 -93 -87c67 -8 105 -39 105 -93zM969 213c66 -20 96 -52 96 -107c0 -72 -72 -116 -191 -116c-118 0 -191 42 -191 109c0 49 32 80 93 95c-55 18 -80 48 -80 95c0 66 69 109 176 109c108 0 178 -38 178 -101c0 -43 -28 -70 -81 -84z
M872 340c-54 0 -87 -20 -87 -51c0 -29 25 -45 80 -55l39 -7c41 13 56 30 56 58c0 34 -32 55 -88 55zM875 52c60 0 97 22 97 57c0 32 -24 49 -86 60l-44 9c-45 -14 -66 -34 -66 -66c0 -37 37 -60 99 -60z" />
    <glyph glyph-name="fiveeighths" unicode="&#x215d;" horiz-adv-x="1089" 
d="M733 727h105l-498 -744h-107zM395 455c0 -88 -70 -142 -183 -142c-98 0 -166 42 -179 110l89 12c8 -35 41 -56 91 -56c57 0 90 28 90 74s-31 74 -87 74c-45 0 -80 -21 -90 -49l-81 7l26 225h299v-64h-231l-13 -103c21 29 63 46 118 46c95 0 151 -51 151 -134zM961 213
c66 -20 96 -52 96 -107c0 -72 -72 -116 -191 -116c-118 0 -191 42 -191 109c0 49 32 80 93 95c-55 18 -80 48 -80 95c0 66 69 109 176 109c108 0 178 -38 178 -101c0 -43 -28 -70 -81 -84zM864 340c-54 0 -87 -20 -87 -51c0 -29 25 -45 80 -55l39 -7c41 13 56 30 56 58
c0 34 -32 55 -88 55zM867 52c60 0 97 22 97 57c0 32 -24 49 -86 60l-44 9c-45 -14 -66 -34 -66 -66c0 -37 37 -60 99 -60z" />
    <glyph glyph-name="seveneighths" unicode="&#x215e;" horiz-adv-x="997" 
d="M641 727h105l-498 -744h-107zM106 326c3 119 65 232 170 313h-254v71h345v-67c-96 -75 -158 -181 -162 -314v-6h-99v3zM869 213c66 -20 96 -52 96 -107c0 -72 -72 -116 -191 -116c-118 0 -191 42 -191 109c0 49 32 80 93 95c-55 18 -80 48 -80 95c0 66 69 109 176 109
c108 0 178 -38 178 -101c0 -43 -28 -70 -81 -84zM772 340c-54 0 -87 -20 -87 -51c0 -29 25 -45 80 -55l39 -7c41 13 56 30 56 58c0 34 -32 55 -88 55zM775 52c60 0 97 22 97 57c0 32 -24 49 -86 60l-44 9c-45 -14 -66 -34 -66 -66c0 -37 37 -60 99 -60z" />
    <glyph glyph-name="percent" unicode="%" horiz-adv-x="944" 
d="M227 347c-125 0 -208 73 -207 188c-1 111 82 184 206 184c122 0 207 -74 207 -187c0 -112 -85 -185 -206 -185zM143 -17l551 735h106l-550 -735h-107zM227 426c62 0 103 39 103 106c0 68 -41 108 -104 108s-105 -39 -105 -105c0 -70 42 -109 106 -109zM718 -17
c-125 0 -208 73 -207 188c-1 111 82 184 206 184c122 0 207 -74 207 -187c0 -112 -85 -185 -206 -185zM718 62c62 0 103 39 103 106c0 68 -41 108 -104 108s-105 -39 -105 -105c0 -70 42 -109 106 -109z" />
    <glyph glyph-name="perthousand" unicode="&#x2030;" horiz-adv-x="1391" 
d="M227 347c-125 0 -208 73 -207 188c-1 111 82 184 206 184c122 0 207 -74 207 -187c0 -112 -85 -185 -206 -185zM143 -17l551 735h106l-550 -735h-107zM227 426c62 0 103 39 103 106c0 68 -41 108 -104 108s-105 -39 -105 -105c0 -70 42 -109 106 -109zM718 -17
c-125 0 -208 73 -207 188c-1 111 82 184 206 184c122 0 207 -74 207 -187c0 -112 -85 -185 -206 -185zM1165 -17c-125 0 -208 73 -207 188c-1 111 82 184 206 184c122 0 207 -74 207 -187c0 -112 -85 -185 -206 -185zM718 62c62 0 103 39 103 106c0 68 -41 108 -104 108
s-105 -39 -105 -105c0 -70 42 -109 106 -109zM1165 62c62 0 103 39 103 106c0 68 -41 108 -104 108s-105 -39 -105 -105c0 -70 42 -109 106 -109z" />
    <glyph glyph-name="uni03BC" unicode="&#x3bc;" horiz-adv-x="715" 
d="M501 500h129v-500h-125v106c-32 -76 -111 -121 -204 -121c-38 0 -71 5 -99 16v-196h-116v695h129v-275c0 -102 55 -141 127 -141c106 0 159 76 159 165v251z" />
    <glyph glyph-name="numbersign" unicode="#" horiz-adv-x="699" 
d="M685 418h-139l-27 -141h132v-87h-149l-36 -190h-105l36 190h-159l-36 -190h-105l36 190h-119v87h136l27 141h-123v87h139l36 189h105l-36 -189h159l36 189h105l-36 -189h123v-87zM414 277l27 141h-159l-27 -141h159z" />
    <glyph glyph-name="uni2116" unicode="&#x2116;" horiz-adv-x="1406" 
d="M95 0v710h157l340 -468c21 -30 37 -57 48 -84h2c-1 28 -1 57 -1 93v459h125v-710h-149l-348 472c-19 29 -37 57 -47 83h-3c1 -28 2 -56 2 -92v-463h-126zM1090 185c-161 0 -262 95 -262 231c0 138 101 232 262 232c160 0 261 -94 261 -232c0 -137 -101 -231 -261 -231z
M1090 277c88 0 141 54 141 139s-53 139 -141 139c-89 0 -142 -54 -142 -139c0 -84 53 -138 142 -139zM830 0v94h519v-94h-519z" />
    <glyph glyph-name="uni0394" unicode="&#x394;" horiz-adv-x="762" 
d="M15 0l298 707h138l296 -707h-732zM381 578l-195 -477h386z" />
    <glyph glyph-name="uni03A9" unicode="&#x3a9;" horiz-adv-x="781" 
d="M723 0h-276l-17 243c114 16 176 84 176 190c0 116 -79 189 -215 189c-137 0 -216 -73 -216 -189c0 -106 62 -174 177 -190l-18 -243h-275v106h177l6 71c-124 34 -199 127 -199 258c0 175 138 289 348 289c209 0 347 -114 347 -289c0 -131 -75 -224 -199 -258l7 -71h177
v-106z" />
    <glyph glyph-name="pi" unicode="&#x3c0;" horiz-adv-x="739" 
d="M707 1c-12 -4 -41 -9 -71 -9c-123 0 -152 62 -152 143v275h-226v-410h-128v410h-99v90h677v-90h-96v-265c0 -41 20 -56 56 -56c19 0 30 3 39 4v-92z" />
    <glyph glyph-name="plus" unicode="+" horiz-adv-x="622" 
d="M572 375v-91h-210v-198h-103v198h-210v91h210v186h103v-186h210z" />
    <glyph glyph-name="minus" unicode="&#x2212;" horiz-adv-x="622" 
d="M49 280v96h523v-96h-523z" />
    <glyph glyph-name="plusminus" unicode="&#xb1;" 
d="M398 382h212v-92h-212v-154h-102v154h-210v92h210v157h102v-157zM86 0v93h524v-93h-524z" />
    <glyph glyph-name="multiply" unicode="&#xd7;" 
d="M614 509l-195 -182l195 -182l-69 -68l-197 184l-197 -183l-68 66l195 183l-195 182l69 67l196 -183l196 183z" />
    <glyph glyph-name="divide" unicode="&#xf7;" horiz-adv-x="622" 
d="M309 450c-36 0 -62 26 -62 62c0 37 26 63 62 63s62 -25 62 -63c0 -36 -26 -62 -62 -62zM49 280v93h523v-93h-523zM309 78c-36 0 -62 25 -62 62s26 62 62 62s62 -25 62 -62s-26 -62 -62 -62z" />
    <glyph glyph-name="equal" unicode="=" horiz-adv-x="617" 
d="M49 378v93h519v-93h-519zM49 187v93h519v-93h-519z" />
    <glyph glyph-name="less" unicode="&#x3c;" 
d="M582 78l-507 203v90l507 203v-100l-391 -147l391 -148v-101z" />
    <glyph glyph-name="greater" unicode="&#x3e;" 
d="M115 78v101l391 148l-391 147v100l507 -203v-90z" />
    <glyph glyph-name="degree" unicode="&#xb0;" horiz-adv-x="452" 
d="M226 326c-113 0 -201 76 -201 196c0 119 88 195 201 195s200 -76 200 -195c0 -120 -87 -196 -200 -196zM226 408c64 0 110 45 110 114c0 68 -46 113 -110 113s-111 -45 -111 -113c0 -69 47 -114 111 -114z" />
    <glyph glyph-name="approxequal" unicode="&#x2248;" 
d="M475 355c-86 0 -175 57 -250 57c-52 0 -104 -19 -136 -45v94c29 26 86 45 135 45c100 0 173 -57 250 -57c52 0 103 19 134 45v-95c-27 -26 -83 -44 -133 -44zM475 162c-86 0 -175 57 -250 57c-52 0 -104 -19 -136 -45v95c29 26 86 44 135 44c100 0 173 -57 250 -57
c52 0 103 19 134 45v-94c-27 -26 -83 -45 -133 -45z" />
    <glyph glyph-name="greaterequal" unicode="&#x2265;" 
d="M102 135v101l391 148l-391 147v100l507 -203v-90zM606 89v-89h-504v89h504z" />
    <glyph glyph-name="infinity" unicode="&#x221e;" horiz-adv-x="700" 
d="M501 481c87 0 150 -58 150 -152c0 -92 -65 -154 -151 -154c-66 0 -116 34 -152 81c-37 -49 -81 -81 -149 -81c-87 0 -150 58 -150 152c0 92 65 154 151 154c66 0 115 -34 151 -81c38 49 82 81 150 81zM210 261c43 0 67 26 93 66c-27 42 -54 68 -95 68
c-40 0 -68 -25 -68 -67s29 -67 70 -67zM492 261c40 0 67 25 67 67s-28 67 -69 67c-43 0 -67 -26 -93 -66c27 -42 53 -68 95 -68z" />
    <glyph glyph-name="lessequal" unicode="&#x2264;" 
d="M595 135l-507 203v90l507 203v-100l-391 -147l391 -148v-101zM91 89h504v-89h-504v89z" />
    <glyph glyph-name="logicalnot" unicode="&#xac;" 
d="M88 380h508v-253h-96v160h-412v93z" />
    <glyph glyph-name="notequal" unicode="&#x2260;" 
d="M592 378h-191l-44 -98h235v-93h-277l-56 -124h-72l56 124h-170v93h212l44 98h-256v93h298l54 120h72l-54 -120h149v-93z" />
    <glyph glyph-name="integral" unicode="&#x222b;" horiz-adv-x="601" 
d="M131 -115c-17 0 -37 1 -57 4v98c17 -2 33 -3 49 -3c80 0 114 32 114 129v386c0 137 73 218 222 217c23 0 45 -1 66 -4v-99c-20 3 -38 4 -56 4c-74 0 -105 -38 -105 -130v-387c0 -141 -77 -216 -233 -215z" />
    <glyph glyph-name="partialdiff" unicode="&#x2202;" horiz-adv-x="699" 
d="M303 721c222 0 340 -134 340 -383c0 -223 -113 -355 -319 -355c-171 0 -282 96 -282 243c0 138 100 232 263 232c89 0 164 -30 211 -90c-2 162 -76 248 -215 248c-47 0 -91 -9 -140 -29l-44 94c56 26 122 40 186 40zM331 78c105 0 179 66 185 187c-39 64 -100 99 -184 99
c-104 0 -161 -55 -161 -139c0 -88 61 -147 160 -147z" />
    <glyph glyph-name="product" unicode="&#x220f;" horiz-adv-x="790" 
d="M572 -88v682h-354v-682h-127v793h608v-793h-127z" />
    <glyph glyph-name="radical" unicode="&#x221a;" horiz-adv-x="703" 
d="M34 331h177l94 -282l240 685h124l-300 -828h-125l-118 323h-92v102z" />
    <glyph glyph-name="summation" unicode="&#x2211;" horiz-adv-x="694" 
d="M50 -88v95l314 319l-301 285v94h571v-104h-404l293 -274l-316 -311h439v-104h-596z" />
    <glyph glyph-name="lozenge" unicode="&#x25ca;" horiz-adv-x="620" 
d="M364 -17h-110l-230 372l230 372h110l232 -372zM309 623l-161 -268l161 -268l164 268z" />
    <glyph glyph-name="zero.tf" 
d="M348 -19c-187 0 -304 118 -304 366c0 249 118 367 304 367c188 0 305 -119 305 -367s-118 -366 -305 -366zM348 79c111 0 172 82 172 268c0 189 -62 269 -172 269s-171 -81 -172 -269c1 -187 63 -268 172 -268z" />
    <glyph glyph-name="one.tf" 
d="M438 108h197v-108h-550v108h221v405c-30 -33 -90 -58 -177 -58h-37v115h27c113 0 178 51 208 125h111v-587z" />
    <glyph glyph-name="two.tf" 
d="M63 0v95c112 62 223 136 305 207c80 68 106 119 106 188c0 74 -46 121 -131 121c-83 0 -137 -45 -140 -124c0 -13 2 -28 4 -46l-132 14c-3 16 -3 29 -3 43c4 134 119 216 274 216c169 0 264 -81 264 -218c0 -87 -38 -158 -129 -238c-62 -53 -135 -99 -238 -152h383v-106
h-563z" />
    <glyph glyph-name="three.tf" 
d="M350 -19c-178 0 -284 90 -291 221l132 14c7 -82 61 -135 161 -135c94 0 149 41 149 119c0 74 -57 111 -151 111h-49l1 90h44c85 0 135 43 135 111c0 62 -44 102 -133 102c-97 0 -148 -55 -149 -145l-130 19c0 127 99 226 283 226c168 0 263 -77 263 -195
c0 -83 -67 -140 -142 -154c97 -15 163 -73 163 -173c0 -126 -107 -211 -286 -211z" />
    <glyph glyph-name="four.tf" 
d="M409 0v165h-374v83l353 447h145v-435h123v-95h-123v-165h-124zM159 260h250v243c0 28 0 50 3 86h-2c-11 -27 -21 -45 -48 -80l-151 -191c-21 -28 -35 -43 -52 -58z" />
    <glyph glyph-name="five.tf" 
d="M343 -19c-153 0 -257 77 -276 195l130 15c14 -64 67 -108 152 -108c93 0 148 56 148 147c0 89 -47 150 -145 150c-73 0 -124 -37 -146 -97l-119 12l42 400h458v-103h-359l-24 -203c35 50 98 84 186 84c148 0 239 -92 239 -240c0 -149 -110 -252 -286 -252z" />
    <glyph glyph-name="six.tf" 
d="M386 469c154 0 250 -88 250 -238c0 -148 -110 -250 -276 -250c-194 0 -302 128 -302 356c0 239 110 377 305 377c144 0 242 -66 266 -183l-132 -22c-18 71 -65 105 -137 105c-110 0 -169 -86 -173 -242c37 60 107 97 199 97zM361 82c88 0 144 59 144 147
c0 91 -55 143 -144 143c-83 0 -144 -48 -168 -132c18 -101 77 -158 168 -158z" />
    <glyph glyph-name="seven.tf" 
d="M210 0v13c0 209 102 406 276 572h-415v110h557v-99c-169 -155 -271 -347 -271 -570v-26h-147z" />
    <glyph glyph-name="eight.tf" 
d="M489 377c100 -34 156 -87 156 -187c0 -128 -112 -209 -294 -209c-185 0 -299 76 -299 199c0 89 52 150 153 175c-83 31 -130 81 -130 169c0 115 111 190 274 190c162 0 270 -71 270 -183c0 -77 -45 -131 -130 -154zM347 624c-88 0 -139 -37 -139 -100
c0 -57 42 -88 121 -107l60 -14c72 28 99 62 99 116c0 66 -50 105 -141 105zM352 78c100 0 159 43 159 114c0 64 -48 96 -136 118l-71 17c-83 -28 -118 -68 -118 -131c0 -73 63 -118 166 -118z" />
    <glyph glyph-name="nine.tf" 
d="M334 714c197 0 303 -124 303 -354c0 -228 -97 -379 -298 -379c-149 0 -251 68 -275 188l132 24c17 -71 65 -110 147 -110c110 0 163 96 164 255c-38 -55 -106 -88 -195 -88c-154 0 -257 81 -257 227c0 141 109 237 279 237zM333 348c86 0 152 49 169 120
c-15 84 -66 148 -167 148c-90 0 -149 -53 -149 -137c0 -83 60 -131 147 -131z" />
    <glyph glyph-name="zero.tf.zero" 
d="M348 714c188 0 305 -119 305 -367s-118 -366 -305 -366s-304 118 -304 366c0 249 118 367 304 367zM348 616c-110 0 -171 -81 -172 -269c0 -49 5 -91 13 -127l292 323c-29 50 -74 73 -133 73zM348 79c111 0 172 82 172 268c0 49 -4 91 -12 127l-292 -323
c30 -49 74 -72 132 -72z" />
    <glyph glyph-name="dollar.tf" 
d="M653 190c0 -130 -97 -203 -266 -208v-87h-54v88c-154 9 -258 80 -292 201l117 41c27 -85 84 -130 175 -141v218l-57 11c-136 28 -202 97 -202 204c0 119 95 190 259 196v86h54v-87c136 -8 226 -66 257 -175l-111 -45c-17 75 -65 114 -146 123v-210l66 -13
c138 -29 200 -85 200 -202zM319 418l14 -3v202c-87 -3 -134 -34 -134 -96c0 -59 38 -87 120 -103zM387 81c93 2 142 33 142 102c0 60 -35 88 -114 104l-28 5v-211z" />
    <glyph glyph-name="cent.tf" 
d="M384 77c70 8 110 51 125 114l118 -23c-24 -96 -101 -175 -243 -184v-79h-58v79c-170 12 -258 126 -258 268c0 141 86 251 258 264v78h58v-78c135 -7 222 -75 244 -182l-123 -19c-13 61 -54 101 -121 110v-348zM191 253c0 -93 46 -163 135 -176v348
c-89 -12 -135 -80 -135 -172z" />
    <glyph glyph-name="sterling.tf" 
d="M542 187l121 -19c-18 -126 -105 -185 -207 -185c-83 0 -126 28 -225 28c-58 0 -120 -7 -178 -19l-25 78c90 27 141 82 141 176c0 29 -3 55 -8 78h-106v73h88c-7 31 -14 62 -14 99c0 138 97 217 249 217c138 0 222 -60 248 -171l-126 -27c-14 66 -56 102 -122 102
c-76 0 -118 -37 -118 -118c0 -38 7 -71 14 -102h180v-73h-163c3 -19 5 -38 5 -60c0 -84 -38 -135 -104 -164c30 6 57 7 82 7c64 0 104 -17 165 -17c52 0 94 28 103 97z" />
    <glyph glyph-name="florin.tf" 
d="M523 614c-70 0 -99 -31 -111 -116l-9 -66h148v-90h-161l-68 -492h-136l69 492h-128v90h140l8 56c23 165 89 226 241 226c27 0 54 -3 73 -8v-100c-21 5 -42 8 -66 8z" />
    <glyph glyph-name="yen.tf" 
d="M671 695l-248 -379h194v-64h-202v-66h202v-64h-202v-122h-133v122h-203v64h203v66h-203v64h195l-248 379h146l145 -239c16 -26 22 -40 30 -65h2c9 25 15 39 31 65l144 239h147z" />
    <glyph glyph-name="Euro.tf" 
d="M400 85c68 0 121 38 156 107l110 -48c-46 -102 -142 -162 -270 -162c-173 0 -278 107 -305 275h-76v62h70c-1 10 -1 19 -1 29v17v23h-69v61h76c28 166 142 265 315 265c125 0 216 -53 261 -154l-115 -52c-30 64 -75 104 -151 104c-95 0 -156 -55 -175 -163h245v-61h-251
v-19v-23c0 -9 0 -18 1 -27h250v-62h-244c20 -113 81 -172 173 -172z" />
    <glyph glyph-name="percent.tf" 
d="M82 -15l448 745h84l-447 -745h-85zM179 384c-93 0 -154 64 -154 170c0 101 61 167 153 167c90 0 153 -67 153 -170s-63 -167 -152 -167zM179 459c40 0 65 34 65 91v3c0 58 -25 93 -65 93c-42 0 -68 -34 -68 -91v-2c0 -60 26 -94 68 -94zM521 -10c-93 0 -154 64 -154 170
c0 101 61 167 153 167c90 0 153 -67 153 -170s-63 -167 -152 -167zM521 65c40 0 65 34 65 91v3c0 58 -25 93 -65 93c-42 0 -68 -34 -68 -91v-2c0 -60 26 -94 68 -94z" />
    <glyph glyph-name="perthousand.tf" 
d="M170 418c-85 0 -140 57 -140 147c0 91 55 147 140 147c84 0 139 -56 139 -147c0 -90 -55 -147 -139 -147zM110 567v-5c0 -49 22 -77 60 -77c37 0 60 28 60 77v5c0 50 -23 78 -60 78c-38 0 -60 -28 -60 -78zM613 637v-81l-556 -366v80zM527 279c84 0 139 -56 139 -147
c0 -90 -55 -147 -139 -147c-40 0 -73 14 -96 39c-23 -25 -56 -39 -96 -39c-84 0 -140 57 -140 147c0 91 55 147 140 147c40 0 73 -14 96 -39c23 25 56 39 96 39zM395 129v5c0 50 -23 78 -60 78c-38 0 -60 -28 -60 -78v-5c0 -49 22 -77 60 -77c37 0 60 28 60 77zM587 129v5
c0 50 -23 78 -60 78c-38 0 -60 -28 -60 -78v-5c0 -49 22 -77 60 -77c37 0 60 28 60 77z" />
    <glyph glyph-name="uni0308" unicode="&#x308;" horiz-adv-x="0" 
d="M-434 587v121h131v-121h-131zM-175 587v121h130v-121h-130z" />
    <glyph glyph-name="uni0307" unicode="&#x307;" horiz-adv-x="0" 
d="M-191 583v129h141v-129h-141z" />
    <glyph glyph-name="gravecomb" unicode="&#x300;" horiz-adv-x="0" 
d="M-17 575h-112l-153 151h140z" />
    <glyph glyph-name="acutecomb" unicode="&#x301;" horiz-adv-x="0" 
d="M-286 575l125 151h140l-153 -151h-112z" />
    <glyph glyph-name="uni030B" unicode="&#x30b;" horiz-adv-x="0" 
d="M-448 575l115 151h108l-122 -151h-101zM-267 575l115 151h109l-122 -151h-102z" />
    <glyph glyph-name="uni0302" unicode="&#x302;" horiz-adv-x="0" 
d="M-40 575h-108l-88 104l-88 -104h-109l129 151h135z" />
    <glyph glyph-name="uni030C" unicode="&#x30c;" horiz-adv-x="0" 
d="M-432 721h108l88 -104l88 104h109l-129 -151h-135z" />
    <glyph glyph-name="uni0306" unicode="&#x306;" horiz-adv-x="0" 
d="M-321 726c4 -57 36 -86 88 -86s83 29 87 86h93c-6 -108 -79 -156 -180 -156s-174 48 -181 156h93z" />
    <glyph glyph-name="uni030A" unicode="&#x30a;" horiz-adv-x="0" 
d="M-178 555c-86 0 -140 44 -140 110s54 110 140 110s140 -44 140 -110s-54 -110 -140 -110zM-178 610c43 0 69 22 69 55s-26 55 -69 55s-69 -22 -69 -55s26 -55 69 -55z" />
    <glyph glyph-name="tildecomb" unicode="&#x303;" horiz-adv-x="0" 
d="M-185 582c-86 0 -114 65 -172 65c-31 0 -49 -18 -60 -59l-74 22c14 76 60 119 132 119c87 0 115 -65 172 -65c31 0 50 18 60 59l75 -22c-14 -75 -61 -119 -133 -119z" />
    <glyph glyph-name="uni0304" unicode="&#x304;" horiz-adv-x="0" 
d="M-432 603v82h385v-82h-385z" />
    <glyph glyph-name="uni0312" unicode="&#x312;" horiz-adv-x="0" 
d="M-87 769l23 -44c-44 -13 -53 -27 -54 -56h68v-94h-129v79c0 56 22 96 92 115z" />
    <glyph glyph-name="uni0326" unicode="&#x326;" horiz-adv-x="0" 
d="M-142 -241l-23 44c44 13 53 27 54 56h-68v94h129v-79c0 -56 -22 -96 -92 -115z" />
    <glyph glyph-name="uni0327" unicode="&#x327;" horiz-adv-x="0" 
d="M-234 6h68l-39 -57c13 9 34 14 57 14c60 0 97 -30 97 -82c0 -57 -52 -91 -133 -91c-62 0 -106 23 -125 62l73 17c9 -16 27 -26 51 -26c29 0 48 15 48 39c0 23 -17 38 -45 38c-17 0 -32 -6 -43 -16l-59 14z" />
    <glyph glyph-name="uni0328" unicode="&#x328;" horiz-adv-x="0" 
d="M-53 -113c-14 -58 -59 -91 -135 -91c-77 0 -124 36 -124 93c0 50 35 89 107 115l108 -4c-91 -18 -127 -61 -127 -99c0 -26 17 -43 43 -43s43 15 53 46z" />
    <glyph glyph-name="uni2003" unicode="&#x2003;" horiz-adv-x="1000" 
 />
    <glyph glyph-name="uni2002" unicode="&#x2002;" horiz-adv-x="500" 
 />
    <glyph glyph-name="uni2005" unicode="&#x2005;" horiz-adv-x="250" 
 />
    <glyph glyph-name="uni200A" unicode="&#x200a;" horiz-adv-x="75" 
 />
    <glyph glyph-name="uni00A0" unicode="&#xa0;" horiz-adv-x="320" 
 />
    <glyph glyph-name="uni2009" unicode="&#x2009;" horiz-adv-x="135" 
 />
    <glyph glyph-name="uni2004" unicode="&#x2004;" horiz-adv-x="0" 
 />
    <glyph glyph-name="uni0243" unicode="&#x243;" horiz-adv-x="775" 
d="M726 196c0 -103 -68 -188 -225 -196v-105h-62v105h-118v-105h-62v105h-164v695h164v92h62v-92h118v92h62v-93c147 -10 206 -84 206 -177c0 -74 -42 -134 -127 -155c95 -16 146 -74 146 -166zM442 597h-214v-197h215c94 0 125 46 125 101c0 56 -34 96 -126 96zM456 98
c92 0 131 45 131 109c0 62 -42 103 -129 103h-230v-212h228z" />
    <glyph glyph-name="uni0243.case" horiz-adv-x="775" 
d="M726 200c0 -105 -68 -192 -225 -199v-88h-62v87h-118v-87h-62v87h-164v710h164v84h62v-84h118v84h62v-85c147 -10 206 -86 206 -181c0 -76 -42 -137 -127 -159c95 -16 146 -75 146 -169zM442 612h-214v-204h215c94 0 125 48 125 104c0 58 -34 100 -126 100zM456 98
c92 0 131 47 131 112s-42 107 -129 107h-230v-219h228z" />
    <glyph glyph-name="uni0243.tf" 
d="M647 194c0 -118 -78 -182 -206 -192v-109h-62v107h-93v-107h-63v107h-144v695h144v90h63v-90h93v90h62v-93c118 -12 188 -70 188 -177c0 -79 -50 -136 -132 -157c96 -14 150 -74 150 -164zM377 599h-171v-203h169c78 0 119 36 119 108c0 69 -41 95 -117 95zM386 95
c82 0 127 32 127 109c0 68 -46 104 -122 104h-185v-213h180z" />
    <glyph glyph-name="uni0243.tf.tf.case" 
d="M647 200c0 -122 -78 -187 -206 -198v-93h-62v91h-93v-91h-63v91h-144v710h144v84h63v-84h93v84h62v-87c118 -12 188 -72 188 -182c0 -79 -50 -137 -132 -159c96 -14 150 -74 150 -166zM377 614h-171v-209h169c78 0 119 36 119 109s-41 100 -117 100zM386 95
c82 0 127 34 127 116c0 68 -46 105 -122 105h-185v-221h180z" />
    <glyph glyph-name="g.ss01" horiz-adv-x="708" 
d="M332 -210c-164 0 -262 56 -281 175h134c16 -61 69 -85 153 -85c105 0 155 46 155 141v80c-34 -66 -106 -105 -200 -105c-151 0 -257 108 -257 263c0 153 107 256 260 256c91 0 164 -36 202 -100l16 85h108v-476c0 -157 -101 -234 -290 -234zM332 87c98 0 164 65 164 159
v24c0 89 -68 151 -165 151c-98 0 -160 -61 -160 -163c0 -104 63 -171 161 -171z" />
    <glyph glyph-name="gbreve.ss01" horiz-adv-x="708" 
d="M265 726c4 -57 36 -86 88 -86s83 29 87 86h93c-6 -108 -79 -156 -180 -156s-174 48 -181 156h93zM332 -210c-164 0 -262 56 -281 175h134c16 -61 69 -85 153 -85c105 0 155 46 155 141v80c-34 -66 -106 -105 -200 -105c-151 0 -257 108 -257 263c0 153 107 256 260 256
c91 0 164 -36 202 -100l16 85h108v-476c0 -157 -101 -234 -290 -234zM332 87c98 0 164 65 164 159v24c0 89 -68 151 -165 151c-98 0 -160 -61 -160 -163c0 -104 63 -171 161 -171z" />
    <glyph glyph-name="gcircumflex.ss01" horiz-adv-x="708" 
d="M549 575h-108l-88 104l-88 -104h-109l129 151h135zM332 -210c-164 0 -262 56 -281 175h134c16 -61 69 -85 153 -85c105 0 155 46 155 141v80c-34 -66 -106 -105 -200 -105c-151 0 -257 108 -257 263c0 153 107 256 260 256c91 0 164 -36 202 -100l16 85h108v-476
c0 -157 -101 -234 -290 -234zM332 87c98 0 164 65 164 159v24c0 89 -68 151 -165 151c-98 0 -160 -61 -160 -163c0 -104 63 -171 161 -171z" />
    <glyph glyph-name="gcommaaccent.ss01" horiz-adv-x="708" 
d="M380 769l23 -44c-44 -13 -53 -27 -54 -56h68v-94h-129v79c0 56 22 96 92 115zM332 -210c-164 0 -262 56 -281 175h134c16 -61 69 -85 153 -85c105 0 155 46 155 141v80c-34 -66 -106 -105 -200 -105c-151 0 -257 108 -257 263c0 153 107 256 260 256
c91 0 164 -36 202 -100l16 85h108v-476c0 -157 -101 -234 -290 -234zM332 87c98 0 164 65 164 159v24c0 89 -68 151 -165 151c-98 0 -160 -61 -160 -163c0 -104 63 -171 161 -171z" />
    <glyph glyph-name="gdotaccent.ss01" horiz-adv-x="708" 
d="M282 583v129h141v-129h-141zM332 -210c-164 0 -262 56 -281 175h134c16 -61 69 -85 153 -85c105 0 155 46 155 141v80c-34 -66 -106 -105 -200 -105c-151 0 -257 108 -257 263c0 153 107 256 260 256c91 0 164 -36 202 -100l16 85h108v-476c0 -157 -101 -234 -290 -234z
M332 87c98 0 164 65 164 159v24c0 89 -68 151 -165 151c-98 0 -160 -61 -160 -163c0 -104 63 -171 161 -171z" />
    <glyph glyph-name="g.sups.ss01" horiz-adv-x="556" 
d="M260 157c-129 0 -201 40 -214 127h114c9 -42 47 -61 105 -61c72 0 108 31 108 99v62c-25 -46 -78 -73 -148 -73c-113 0 -189 76 -189 189c0 112 77 186 193 186c69 0 122 -25 149 -74l8 63h99v-345c0 -116 -75 -173 -225 -173zM262 381c67 0 113 44 113 108v18
c0 64 -45 107 -111 107c-69 0 -111 -43 -111 -116c0 -71 43 -117 109 -117z" />
    <glyph glyph-name="a.sups" horiz-adv-x="525" 
d="M193 299c-94 0 -152 42 -152 110c0 81 72 104 168 114l138 12v10c0 52 -28 74 -85 74c-55 0 -88 -22 -93 -63h-117c10 82 91 130 210 130c138 0 198 -50 198 -157v-108c0 -46 4 -85 9 -111h-111c-3 18 -5 43 -6 67c-22 -48 -81 -78 -159 -78zM233 365c70 0 117 38 117 92
v29l-109 -11c-63 -7 -87 -25 -87 -58c0 -32 30 -52 79 -52z" />
    <glyph glyph-name="b.sups" horiz-adv-x="560" 
d="M333 299c-70 0 -123 28 -149 72l-8 -61h-101v529h113v-221c27 42 80 68 151 68c112 0 185 -77 185 -192c0 -118 -75 -195 -191 -195zM296 374c69 0 111 44 111 119c0 73 -41 118 -111 118c-67 0 -111 -44 -111 -109v-19c0 -66 42 -109 111 -109z" />
    <glyph glyph-name="c.sups" horiz-adv-x="510" 
d="M263 299c-140 0 -228 75 -228 194c0 120 86 193 229 193c116 0 194 -49 211 -135l-113 -18c-9 48 -46 75 -102 75c-68 0 -110 -43 -110 -112c0 -73 43 -118 111 -118c57 0 93 28 102 76l112 -20c-17 -83 -98 -135 -212 -135z" />
    <glyph glyph-name="d.sups" horiz-adv-x="560" 
d="M222 299c-113 0 -186 78 -186 194c0 115 74 193 191 193c69 0 118 -24 145 -66v219h112v-529h-108v68c-27 -47 -81 -79 -154 -79zM264 374c66 0 110 46 110 109v19c0 66 -43 110 -111 110c-70 0 -110 -45 -110 -118s42 -120 111 -120z" />
    <glyph glyph-name="e.sups" horiz-adv-x="509" 
d="M471 491v-19h-328c3 -60 49 -97 122 -97c57 0 102 23 124 61l73 -43c-36 -58 -105 -94 -201 -94c-142 0 -226 72 -226 194c0 119 85 193 220 193c138 0 216 -73 216 -195zM143 529h216c-1 57 -39 94 -104 94s-109 -36 -112 -94z" />
    <glyph glyph-name="f.sups" horiz-adv-x="370" 
d="M344 675v-73h-121v-292h-112v292h-85v73h85v32c0 91 55 138 164 138c24 0 48 -3 69 -7v-78c-18 4 -34 5 -53 5c-47 0 -68 -19 -68 -60v-30h121z" />
    <glyph glyph-name="g.sups" horiz-adv-x="523" 
d="M497 662c-9 2 -22 3 -35 3c-24 0 -44 -4 -57 -15c31 -21 48 -51 48 -87c0 -77 -75 -125 -198 -125c-38 0 -71 5 -100 13c-11 -5 -18 -14 -18 -26c0 -20 16 -32 51 -32l165 -1c96 0 142 -35 142 -102c0 -86 -79 -133 -251 -133c-146 0 -212 33 -212 89c0 31 23 54 66 66
c-35 13 -54 38 -54 69c0 40 28 70 77 84c-42 21 -66 55 -66 98c0 76 75 123 200 123c42 0 79 -5 108 -16c14 44 53 68 112 68c8 0 17 0 22 -1v-75zM255 493c52 0 86 27 86 70s-33 68 -86 68c-54 0 -87 -25 -87 -68s33 -70 87 -70zM331 302l-172 1c-7 0 -14 0 -20 1
c-13 -10 -20 -22 -20 -37c0 -40 42 -57 138 -57c98 0 135 17 135 52c0 27 -19 40 -61 40z" />
    <glyph glyph-name="h.sups" horiz-adv-x="562" 
d="M75 310v529h113v-233c26 52 81 81 153 81c103 0 160 -61 160 -174v-203h-113v192c0 67 -32 102 -94 102c-66 0 -106 -42 -106 -114v-180h-113z" />
    <glyph glyph-name="i.sups" horiz-adv-x="256" 
d="M69 727v109h118v-109h-118zM71 310v365h113v-365h-113z" />
    <glyph glyph-name="j.sups" horiz-adv-x="261" 
d="M73 727v109h117v-109h-117zM42 162c-19 0 -43 1 -57 5v80c13 -2 26 -3 37 -3c36 0 53 18 53 68v363h114v-374c0 -91 -40 -139 -147 -139z" />
    <glyph glyph-name="k.sups" horiz-adv-x="525" 
d="M381 310l-115 168l-78 -66v-102h-113v529h113v-326l176 162h139l-154 -139l160 -226h-128z" />
    <glyph glyph-name="l.sups" horiz-adv-x="263" 
d="M188 839v-529h-113v529h113z" />
    <glyph glyph-name="m.sups" horiz-adv-x="801" 
d="M70 675h110v-70c23 52 70 82 137 82s112 -28 132 -81c29 53 79 81 146 81c94 0 145 -59 145 -162v-215h-112v195c0 64 -27 97 -81 97c-53 0 -86 -36 -86 -97v-195h-112v197c0 63 -26 95 -79 95c-55 0 -87 -38 -87 -103v-189h-113v365z" />
    <glyph glyph-name="n.sups" horiz-adv-x="556" 
d="M70 310v365h110v-74c27 55 81 86 156 86c104 0 159 -60 159 -174v-203h-113v188c0 70 -30 105 -93 105c-67 0 -105 -42 -105 -114v-179h-114z" />
    <glyph glyph-name="o.sups" horiz-adv-x="523" 
d="M262 299c-135 0 -227 71 -227 194c0 122 92 193 227 193c134 0 227 -71 227 -193c0 -123 -93 -194 -227 -194zM262 374c68 0 113 42 113 119c0 76 -45 118 -113 118c-69 0 -113 -42 -113 -118c0 -77 44 -119 113 -119z" />
    <glyph glyph-name="p.sups" horiz-adv-x="554" 
d="M70 168v507h109v-63c29 47 84 74 155 74c112 0 185 -77 185 -192c0 -118 -76 -195 -189 -195c-70 0 -118 26 -147 66v-197h-113zM292 374c68 0 110 46 110 120c0 73 -40 118 -109 118s-113 -45 -113 -112v-13c0 -66 44 -113 112 -113z" />
    <glyph glyph-name="q.sups" horiz-adv-x="554" 
d="M372 168v204c-27 -45 -80 -73 -152 -73c-110 0 -184 77 -184 194c0 118 75 194 190 194c72 0 122 -25 151 -73l8 61h99v-507h-112zM262 374c69 0 112 45 112 110v20c0 65 -43 109 -113 109c-67 0 -108 -44 -108 -118c0 -76 41 -121 109 -121z" />
    <glyph glyph-name="r.sups" horiz-adv-x="369" 
d="M172 573c20 69 71 111 145 111c12 0 17 -1 26 -2v-102c-13 2 -24 3 -37 3c-37 0 -65 -9 -84 -26c-27 -25 -39 -62 -39 -106v-141h-113v365h102v-102z" />
    <glyph glyph-name="s.sups" horiz-adv-x="468" 
d="M245 299c-103 0 -182 31 -221 88l59 52c39 -44 95 -68 168 -68c54 0 82 14 82 42c0 24 -15 36 -64 41l-99 11c-83 10 -123 45 -123 107c0 71 60 114 184 114c90 0 161 -25 204 -70l-56 -55c-37 39 -85 57 -153 57c-51 0 -76 -14 -76 -39c0 -21 16 -33 61 -38l100 -11
c88 -11 123 -44 123 -111c0 -75 -62 -120 -189 -120z" />
    <glyph glyph-name="t.sups" horiz-adv-x="372" 
d="M16 602v73h85v88l112 41v-129h122v-73h-122v-146c0 -47 25 -68 72 -68c21 0 37 3 50 6v-81c-24 -7 -48 -11 -81 -11c-99 0 -153 39 -153 129v171h-85z" />
    <glyph glyph-name="u.sups" horiz-adv-x="553" 
d="M374 383c-24 -52 -81 -84 -154 -84c-105 0 -159 57 -159 156v220h113v-195c0 -71 38 -99 90 -99c69 0 107 46 107 106v188h112v-365h-109v73z" />
    <glyph glyph-name="v.sups" horiz-adv-x="491" 
d="M183 310l-170 365h120l94 -225c8 -21 12 -33 17 -49h2c6 16 9 29 18 49l94 225h120l-170 -365h-125z" />
    <glyph glyph-name="w.sups" horiz-adv-x="708" 
d="M150 310l-126 365h110l69 -231c3 -11 7 -25 9 -40h2c2 15 6 29 10 40l78 231h104l78 -231c4 -11 8 -25 10 -40h2c3 15 6 30 9 40l69 231h110l-126 -365h-115l-78 224c-4 13 -8 25 -10 38h-2c-1 -13 -5 -25 -10 -38l-78 -224h-115z" />
    <glyph glyph-name="x.sups" horiz-adv-x="506" 
d="M21 310l161 188l-154 177h133l68 -82c9 -12 19 -25 25 -38h2c6 12 15 26 25 38l68 82h124l-150 -175l162 -190h-131l-80 93c-10 12 -20 26 -25 37h-1c-6 -11 -15 -24 -26 -38l-79 -92h-122z" />
    <glyph glyph-name="y.sups" horiz-adv-x="488" 
d="M104 160c-16 0 -42 1 -62 6v82c19 -3 34 -4 48 -4c48 0 80 20 98 52l5 13l-180 366h125l93 -224c8 -19 13 -32 18 -51h2c5 17 10 30 19 50l88 225h117l-171 -382c-41 -94 -97 -133 -200 -133z" />
    <glyph glyph-name="z.sups" horiz-adv-x="457" 
d="M37 378l238 223h-228v74h367v-66l-236 -224h245v-75h-386v68z" />
    <glyph glyph-name="g_g.liga.ss01" horiz-adv-x="1416" 
d="M332 -210c-164 0 -262 56 -281 175h134c16 -61 69 -85 153 -85c105 0 155 46 155 141v80c-34 -66 -106 -105 -200 -105c-151 0 -257 108 -257 263c0 153 107 256 260 256c91 0 164 -36 202 -100l16 85h108v-476c0 -157 -101 -234 -290 -234zM1040 -210
c-164 0 -262 56 -281 175h134c16 -61 69 -85 153 -85c105 0 155 46 155 141v80c-34 -66 -106 -105 -200 -105c-151 0 -257 108 -257 263c0 153 107 256 260 256c91 0 164 -36 202 -100l16 85h108v-476c0 -157 -101 -234 -290 -234zM332 87c98 0 164 65 164 159v24
c0 89 -68 151 -165 151c-98 0 -160 -61 -160 -163c0 -104 63 -171 161 -171zM1040 87c98 0 164 65 164 159v24c0 89 -68 151 -165 151c-98 0 -160 -61 -160 -163c0 -104 63 -171 161 -171z" />
    <glyph glyph-name="uni24FF" unicode="&#x24ff;" horiz-adv-x="871" 
d="M436 -20c-230 0 -403 142 -403 375s173 375 403 375c229 0 402 -142 402 -375s-173 -375 -402 -375zM436 151c124 0 205 75 205 204c0 130 -81 205 -205 205s-205 -75 -205 -204c0 -130 81 -205 205 -205zM436 221c-64 0 -107 44 -107 135c0 89 43 134 107 134
s106 -44 106 -135c0 -90 -42 -134 -106 -134z" />
    <glyph glyph-name="uni2776" unicode="&#x2776;" horiz-adv-x="871" 
d="M436 -20c-230 0 -403 142 -403 375s173 375 403 375c229 0 402 -142 402 -375s-173 -375 -402 -375zM406 160h95v388h-79c-17 -45 -56 -67 -110 -67h-13v-82h20c33 0 68 9 87 29v-268z" />
    <glyph glyph-name="uni2777" unicode="&#x2777;" horiz-adv-x="871" 
d="M436 -20c-230 0 -403 142 -403 375s173 375 403 375c229 0 402 -142 402 -375s-173 -375 -402 -375zM253 169h366v72h-219c99 41 211 106 211 202c0 83 -70 125 -176 125c-104 0 -180 -46 -180 -127c0 -8 0 -17 2 -25l98 -9c-2 8 -4 17 -4 24c0 45 36 65 82 65
c49 0 77 -23 77 -61c0 -78 -113 -132 -257 -200v-66z" />
    <glyph glyph-name="uni2778" unicode="&#x2778;" horiz-adv-x="871" 
d="M436 -20c-230 0 -403 142 -403 375s173 375 403 375c229 0 402 -142 402 -375s-173 -375 -402 -375zM436 151c111 0 187 43 187 117c0 51 -36 86 -105 93c54 8 95 38 95 87c0 73 -69 112 -176 112c-114 0 -184 -51 -185 -130l95 -10c1 47 32 72 87 72c48 0 80 -19 80 -55
c0 -33 -30 -50 -76 -50h-37v-59h38c64 0 84 -23 84 -51c0 -39 -35 -57 -87 -57c-55 0 -89 25 -91 70l-96 -8c2 -82 73 -131 187 -131z" />
    <glyph glyph-name="uni2779" unicode="&#x2779;" horiz-adv-x="871" 
d="M436 -20c-230 0 -403 142 -403 375s173 375 403 375c229 0 402 -142 402 -375s-173 -375 -402 -375zM458 166h92v85h78v67h-78v236h-104l-227 -240v-63h239v-85zM307 318l151 159v-159h-151z" />
    <glyph glyph-name="uni277A" unicode="&#x277a;" horiz-adv-x="871" 
d="M436 -20c-230 0 -403 142 -403 375s173 375 403 375c229 0 402 -142 402 -375s-173 -375 -402 -375zM433 156c113 0 183 55 183 143c0 82 -56 133 -151 133c-54 0 -95 -15 -117 -44l13 99h231v67h-303l-25 -225l84 -8c10 27 44 47 87 47c54 0 86 -27 86 -71
s-33 -72 -88 -72c-48 0 -80 21 -88 54l-93 -13c12 -68 81 -110 181 -110z" />
    <glyph glyph-name="uni277B" unicode="&#x277b;" horiz-adv-x="871" 
d="M436 -20c-230 0 -403 142 -403 375s173 375 403 375c229 0 402 -142 402 -375s-173 -375 -402 -375zM440 151c109 0 181 57 181 141c0 85 -60 132 -155 132c-61 0 -107 -18 -130 -56c4 87 41 126 104 126c45 0 71 -17 82 -47l93 11c-16 67 -77 102 -172 102
c-126 0 -199 -80 -199 -211c0 -128 72 -198 196 -198zM439 219c-54 0 -87 27 -99 83c16 35 52 56 100 56c54 0 88 -26 88 -69s-35 -70 -89 -70z" />
    <glyph glyph-name="uni277C" unicode="&#x277c;" horiz-adv-x="871" 
d="M436 -20c-230 0 -403 142 -403 375s173 375 403 375c229 0 402 -142 402 -375s-173 -375 -402 -375zM347 161h103c3 132 57 236 159 317v71h-346v-75h253c-110 -83 -166 -195 -169 -313z" />
    <glyph glyph-name="uni277D" unicode="&#x277d;" horiz-adv-x="871" 
d="M436 -20c-231 0 -403 142 -403 375s172 375 403 375c230 0 402 -142 402 -375s-172 -375 -402 -375zM435 151c120 0 193 44 193 116c0 58 -32 92 -100 108c57 16 84 41 84 83c0 64 -71 102 -179 102s-178 -44 -178 -110c0 -48 27 -79 88 -96c-66 -14 -100 -44 -100 -93
c0 -68 73 -110 192 -110zM468 390l-40 7c-55 9 -79 24 -79 53c0 30 32 49 84 49c55 0 86 -20 86 -54c0 -27 -13 -44 -51 -55zM436 215c-59 0 -95 23 -95 60c0 30 20 50 63 63l41 -8c61 -12 86 -27 86 -60s-37 -55 -95 -55z" />
    <glyph glyph-name="uni277E" unicode="&#x277e;" horiz-adv-x="871" 
d="M436 -20c-230 0 -403 142 -403 375s173 375 403 375c229 0 402 -142 402 -375s-173 -375 -402 -375zM429 151c131 0 197 76 197 212c0 131 -70 197 -195 197c-111 0 -181 -54 -181 -134c0 -79 61 -129 161 -129c52 0 96 13 124 39c-6 -80 -40 -116 -101 -116
c-48 0 -76 21 -85 51l-92 -13c15 -69 78 -107 172 -107zM431 362c-53 0 -88 26 -88 65c0 42 35 68 91 68c57 0 88 -28 97 -90c-20 -27 -56 -43 -100 -43z" />
    <glyph glyph-name="zero.case" horiz-adv-x="748" 
d="M374 -19c-204 0 -329 145 -329 375s125 374 329 374s328 -144 328 -374s-124 -375 -328 -375zM374 83c122 0 193 101 193 273s-71 272 -193 272s-193 -100 -193 -272s71 -273 193 -273z" />
    <glyph glyph-name="one.case" horiz-adv-x="454" 
d="M206 0v524c-26 -31 -83 -51 -142 -51h-37v115h23c88 0 151 44 176 122h112v-710h-132z" />
    <glyph glyph-name="two.case" horiz-adv-x="672" 
d="M35 0v100c123 58 236 124 323 193c86 71 114 125 114 200c0 78 -47 133 -145 133c-93 0 -150 -52 -150 -137c0 -14 2 -32 6 -51l-135 13c-4 16 -6 32 -6 49c0 138 113 230 289 230c182 0 282 -89 282 -230c0 -105 -57 -184 -153 -261c-62 -46 -133 -88 -232 -131h397
v-108h-590z" />
    <glyph glyph-name="three.case" horiz-adv-x="687" 
d="M340 -19c-184 0 -298 91 -306 234l133 13c8 -92 69 -146 176 -146c105 0 160 44 160 122c0 81 -59 115 -163 115h-58v92h55c96 0 147 38 147 110c0 68 -51 109 -150 109c-102 0 -158 -56 -161 -150l-129 19c3 137 108 231 294 231c183 0 281 -76 281 -197
c0 -90 -64 -146 -150 -161c107 -15 172 -70 172 -174c0 -129 -108 -217 -301 -217z" />
    <glyph glyph-name="four.case" horiz-adv-x="680" 
d="M668 172h-129v-172h-129v172h-399v87l379 451h149v-442h129v-96zM412 504c0 53 0 70 3 97h-3c-12 -26 -26 -46 -56 -82l-144 -176c-28 -36 -45 -55 -67 -75h267v236z" />
    <glyph glyph-name="five.case" horiz-adv-x="675" 
d="M336 -19c-159 0 -270 78 -293 205l133 18c15 -73 73 -121 162 -121c102 0 162 57 162 153c0 97 -56 155 -156 155c-83 0 -134 -38 -160 -106l-122 11l44 414h488v-104h-387l-25 -209c36 58 108 91 201 91c157 0 251 -92 251 -248c0 -158 -115 -259 -298 -259z" />
    <glyph glyph-name="six.case" horiz-adv-x="689" 
d="M389 480c163 0 260 -92 260 -244c0 -151 -117 -255 -289 -255c-203 0 -317 130 -317 365c0 244 118 384 321 384c151 0 252 -69 277 -191l-132 -23c-19 76 -69 114 -148 114c-120 0 -187 -89 -190 -255c41 67 119 105 218 105zM359 81c96 0 158 60 158 153
s-58 148 -157 148c-90 0 -156 -49 -182 -134c19 -106 83 -167 181 -167z" />
    <glyph glyph-name="seven.case" horiz-adv-x="596" 
d="M156 0v13c0 212 105 419 284 587h-420v110h562v-99c-174 -157 -279 -359 -279 -585v-26h-147z" />
    <glyph glyph-name="eight.case" horiz-adv-x="698" 
d="M496 386c116 -37 164 -97 164 -194c0 -130 -118 -211 -308 -211c-194 0 -314 77 -314 201c0 94 55 156 160 182c-95 35 -137 90 -137 175c0 116 113 191 288 191c174 0 285 -72 285 -185c0 -80 -48 -135 -138 -159zM348 641c-97 0 -154 -38 -154 -102
c0 -57 41 -92 136 -113l64 -14c78 29 108 65 108 122c0 68 -57 107 -154 107zM353 77c107 0 172 44 172 117c0 63 -42 101 -149 124l-75 18c-89 -29 -127 -71 -127 -137c0 -76 67 -122 179 -122z" />
    <glyph glyph-name="nine.case" horiz-adv-x="690" 
d="M332 730c206 0 315 -126 315 -361c0 -233 -98 -388 -318 -388c-151 0 -257 73 -280 201l131 24c17 -80 68 -123 153 -123c131 0 185 102 185 268c-40 -58 -113 -93 -211 -93c-161 0 -267 82 -267 232c0 143 115 240 292 240zM330 356c92 0 162 51 183 122
c-16 88 -70 155 -180 155c-98 0 -161 -55 -161 -141s62 -136 158 -136z" />
    <glyph glyph-name="one.case.ss02" horiz-adv-x="614" 
d="M399 108h197v-108h-550v108h221v420c-30 -33 -90 -58 -177 -58h-37v115h27c113 0 178 51 208 125h111v-602z" />
    <glyph glyph-name="zero.case.zero" horiz-adv-x="748" 
d="M374 730c204 0 328 -144 328 -374s-124 -375 -328 -375s-329 145 -329 375s125 374 329 374zM374 628c-122 0 -193 -100 -193 -272c0 -54 7 -101 21 -141l313 343c-33 45 -81 70 -141 70zM374 83c122 0 193 101 193 273c0 51 -6 96 -18 134l-313 -341
c33 -43 80 -66 138 -66z" />
    <glyph glyph-name="uni24EA" unicode="&#x24ea;" horiz-adv-x="871" 
d="M436 -20c-230 0 -403 142 -403 375s173 375 403 375c229 0 402 -142 402 -375s-173 -375 -402 -375zM436 33c193 0 341 123 341 322c0 200 -148 322 -341 322c-194 0 -342 -122 -342 -322c0 -199 148 -322 342 -322zM436 151c-124 0 -203 75 -203 204s79 204 203 204
s204 -75 204 -205c0 -128 -79 -203 -204 -203zM436 219c67 0 110 45 110 135c0 91 -43 137 -110 137c-66 0 -109 -46 -109 -136c0 -91 42 -136 109 -136z" />
    <glyph glyph-name="uni2460" unicode="&#x2460;" horiz-adv-x="871" 
d="M436 -20c-230 0 -403 142 -403 375s173 375 403 375c229 0 402 -142 402 -375s-173 -375 -402 -375zM436 33c193 0 341 123 341 322c0 200 -148 322 -341 322c-194 0 -342 -122 -342 -322c0 -199 148 -322 342 -322zM409 160v271c-20 -20 -55 -30 -88 -30h-20v79h13
c54 0 92 23 109 67h75v-387h-89z" />
    <glyph glyph-name="uni2461" unicode="&#x2461;" horiz-adv-x="871" 
d="M436 -20c-230 0 -403 142 -403 375s173 375 403 375c229 0 402 -142 402 -375s-173 -375 -402 -375zM436 33c193 0 341 123 341 322c0 200 -148 322 -341 322c-194 0 -342 -122 -342 -322c0 -199 148 -322 342 -322zM254 171v64c143 67 260 123 260 202
c0 40 -30 64 -81 64c-48 0 -84 -22 -84 -68c0 -7 2 -15 4 -24l-94 8c-2 8 -3 17 -3 26c0 80 75 126 179 126c106 0 175 -42 175 -125c0 -97 -114 -162 -214 -203h221v-70h-363z" />
    <glyph glyph-name="uni2462" unicode="&#x2462;" horiz-adv-x="871" 
d="M436 -20c-230 0 -403 142 -403 375s173 375 403 375c229 0 402 -142 402 -375s-173 -375 -402 -375zM436 33c193 0 341 123 341 322c0 200 -148 322 -341 322c-194 0 -342 -122 -342 -322c0 -199 148 -322 342 -322zM436 151c-114 0 -184 49 -187 130l92 8
c3 -46 38 -72 95 -72c54 0 90 18 90 58c0 34 -26 51 -92 51h-41v62h41c53 0 83 18 83 51c0 36 -33 54 -83 54c-57 0 -90 -26 -91 -73l-90 9c2 80 71 130 184 130c105 0 173 -39 173 -110c0 -49 -40 -81 -93 -87c67 -8 105 -39 105 -93c0 -75 -76 -118 -186 -118z" />
    <glyph glyph-name="uni2463" unicode="&#x2463;" horiz-adv-x="871" 
d="M436 -20c-230 0 -403 142 -403 375s173 375 403 375c229 0 402 -142 402 -375s-173 -375 -402 -375zM436 33c193 0 341 123 341 322c0 200 -148 322 -341 322c-194 0 -342 -122 -342 -322c0 -199 148 -322 342 -322zM620 254h-77v-86h-88v86h-240v60l228 241h100v-237h77
v-64zM455 482l-154 -164h154v164z" />
    <glyph glyph-name="uni2464" unicode="&#x2464;" horiz-adv-x="871" 
d="M436 -20c-230 0 -403 142 -403 375s173 375 403 375c229 0 402 -142 402 -375s-173 -375 -402 -375zM436 33c193 0 341 123 341 322c0 200 -148 322 -341 322c-194 0 -342 -122 -342 -322c0 -199 148 -322 342 -322zM432 156c-98 0 -166 42 -179 110l89 12
c8 -35 41 -56 91 -56c57 0 90 28 90 74s-31 74 -87 74c-45 0 -80 -21 -90 -49l-81 7l26 225h299v-64h-231l-13 -103c21 29 63 46 118 46c95 0 151 -51 151 -134c0 -88 -70 -142 -183 -142z" />
    <glyph glyph-name="uni2465" unicode="&#x2465;" horiz-adv-x="871" 
d="M436 730c229 0 402 -142 402 -375s-173 -375 -402 -375c-230 0 -403 142 -403 375s173 375 403 375zM436 33c193 0 341 123 341 322c0 200 -148 322 -341 322c-194 0 -342 -122 -342 -322c0 -199 148 -322 342 -322zM464 424c96 0 156 -48 156 -133
c0 -83 -71 -140 -179 -140c-124 0 -194 70 -194 198c0 131 71 210 196 210c95 0 155 -35 171 -101l-89 -12c-12 33 -38 50 -85 50c-64 0 -103 -40 -107 -127c25 36 70 55 131 55zM440 216c55 0 91 28 91 72c0 45 -35 72 -90 72c-51 0 -88 -24 -103 -61
c12 -56 46 -83 102 -83z" />
    <glyph glyph-name="uni2466" unicode="&#x2466;" horiz-adv-x="871" 
d="M436 -20c-230 0 -403 142 -403 375s173 375 403 375c229 0 402 -142 402 -375s-173 -375 -402 -375zM436 33c193 0 341 123 341 322c0 200 -148 322 -341 322c-194 0 -342 -122 -342 -322c0 -199 148 -322 342 -322zM264 477v71h345v-67c-96 -75 -158 -181 -162 -314v-6
h-99v3c3 119 65 232 170 313h-254z" />
    <glyph glyph-name="uni2467" unicode="&#x2467;" horiz-adv-x="871" 
d="M436 730c229 0 402 -142 402 -375s-173 -375 -402 -375c-230 0 -403 142 -403 375s173 375 403 375zM436 33c193 0 341 123 341 322c0 200 -148 322 -341 322c-194 0 -342 -122 -342 -322c0 -199 148 -322 342 -322zM530 374c66 -20 96 -52 96 -107
c0 -72 -72 -116 -191 -116c-118 0 -191 42 -191 109c0 49 32 80 93 95c-55 18 -80 48 -80 95c0 66 69 109 176 109c108 0 178 -38 178 -101c0 -43 -28 -70 -81 -84zM433 501c-54 0 -87 -20 -87 -51c0 -29 25 -45 80 -55l39 -7c41 13 56 30 56 58c0 34 -32 55 -88 55z
M436 213c60 0 97 22 97 57c0 32 -24 49 -86 60l-44 9c-45 -14 -66 -34 -66 -66c0 -37 37 -60 99 -60z" />
    <glyph glyph-name="uni2468" unicode="&#x2468;" horiz-adv-x="871" 
d="M436 730c229 0 402 -142 402 -375s-173 -375 -402 -375c-230 0 -403 142 -403 375s173 375 403 375zM436 33c193 0 341 123 341 322c0 200 -148 322 -341 322c-194 0 -342 -122 -342 -322c0 -199 148 -322 342 -322zM429 559c124 0 193 -66 193 -197
c0 -134 -65 -211 -195 -211c-94 0 -156 38 -172 106l89 14c10 -33 37 -54 87 -54c64 0 99 40 103 122c-27 -27 -71 -42 -124 -42c-99 0 -161 49 -161 129s69 133 180 133zM428 360c46 0 84 18 104 48c-10 60 -43 88 -101 88c-57 0 -93 -27 -93 -69c0 -41 35 -67 90 -67z" />
    <glyph glyph-name="zero.osf" horiz-adv-x="722" 
d="M362 -19c-196 0 -322 114 -322 288c0 172 127 285 321 285s321 -114 321 -288c0 -172 -127 -285 -320 -285zM362 82c115 0 189 71 189 183c0 115 -74 186 -190 186s-190 -70 -190 -183c0 -115 73 -186 191 -186z" />
    <glyph glyph-name="one.osf" horiz-adv-x="645" 
d="M408 102h204v-102h-549v102h218v272c-31 -32 -109 -58 -181 -60h-31v110h23c88 0 180 45 207 111h109v-433z" />
    <glyph glyph-name="two.osf" horiz-adv-x="678" 
d="M40 85c114 38 194 69 255 98c123 69 163 111 163 175c0 58 -49 95 -124 95c-86 0 -136 -40 -136 -109c0 -15 0 -25 2 -35l-134 14c-2 13 -3 22 -3 32c0 118 110 199 272 199c160 0 258 -71 258 -186c0 -56 -27 -105 -83 -148c-57 -41 -134 -79 -240 -118h357v-102h-587
v85z" />
    <glyph glyph-name="three.osf" horiz-adv-x="688" 
d="M337 -169c-183 0 -296 83 -303 223l132 13c8 -90 70 -135 174 -135s165 43 165 115c0 70 -53 108 -161 108h-59v90h56c92 0 142 38 142 103c0 67 -52 105 -147 105c-100 0 -161 -51 -162 -147l-129 19c0 140 117 229 294 229c176 0 280 -71 280 -195
c0 -80 -59 -135 -139 -151c102 -14 162 -77 162 -169c0 -125 -120 -208 -305 -208z" />
    <glyph glyph-name="four.osf" horiz-adv-x="682" 
d="M413 -150v166h-402v87l381 432h149v-423h129v-96h-129v-166h-128zM144 112h269v225c0 30 0 59 1 89h-2c-13 -24 -30 -49 -50 -71l-163 -187c-20 -22 -38 -42 -55 -56z" />
    <glyph glyph-name="five.osf" horiz-adv-x="684" 
d="M340 -169c-159 0 -272 73 -297 191l133 18c18 -68 80 -108 165 -108c105 0 166 57 166 152c0 84 -60 136 -158 136c-78 0 -132 -32 -162 -95l-124 10l47 400h487v-104h-384l-28 -206c35 58 108 93 204 93c156 0 254 -91 254 -233c0 -153 -120 -254 -303 -254z" />
    <glyph glyph-name="six.osf" horiz-adv-x="689" 
d="M389 469c163 0 260 -89 260 -238c0 -148 -117 -250 -289 -250c-203 0 -317 127 -317 356c0 239 118 377 321 377c151 0 252 -68 277 -187l-132 -22c-19 73 -69 109 -148 109c-120 0 -186 -86 -190 -247c41 65 119 102 218 102zM359 82c96 0 158 57 158 147
s-58 143 -157 143c-90 0 -156 -48 -182 -131c19 -101 83 -159 181 -159z" />
    <glyph glyph-name="seven.osf" horiz-adv-x="601" 
d="M161 -150v13c0 200 99 393 284 562h-425v110h567v-99c-182 -156 -280 -347 -280 -560v-26h-146z" />
    <glyph glyph-name="eight.osf" horiz-adv-x="698" 
d="M498 377c114 -36 162 -94 162 -187c0 -128 -118 -209 -308 -209c-194 0 -314 76 -314 199c0 90 55 149 159 175c-95 34 -136 87 -136 169c0 115 113 190 288 190c174 0 285 -72 285 -183c0 -78 -48 -131 -136 -154zM348 624c-97 0 -154 -37 -154 -100
c0 -54 41 -86 136 -107l64 -14c78 28 108 62 108 116c0 67 -57 105 -154 105zM353 78c107 0 172 43 172 114c0 60 -43 94 -149 118l-75 17c-89 -27 -127 -67 -127 -131c0 -73 67 -118 179 -118z" />
    <glyph glyph-name="nine.osf" horiz-adv-x="695" 
d="M337 553c205 0 315 -122 315 -354c0 -238 -114 -368 -323 -368c-157 0 -251 59 -280 172l129 23c17 -65 69 -96 155 -96c126 0 190 85 191 254c-41 -59 -119 -94 -216 -94c-168 0 -268 86 -268 229c0 141 117 234 297 234zM335 188c90 0 164 49 183 121
c-18 95 -81 146 -181 146c-101 0 -164 -52 -164 -135c0 -81 61 -132 162 -132z" />
    <glyph glyph-name="zero.osf.zero" horiz-adv-x="722" 
d="M361 554c194 0 321 -114 321 -288c0 -172 -127 -285 -320 -285c-196 0 -322 114 -322 288c0 172 127 285 321 285zM361 451c-116 0 -190 -70 -190 -183c0 -46 12 -86 34 -116l277 264c-32 23 -73 35 -121 35zM362 82c115 0 189 71 189 183c0 45 -12 84 -33 114l-276 -264
c32 -21 72 -33 120 -33z" />
    <glyph glyph-name="one.ss02" horiz-adv-x="614" 
d="M398 108h197v-108h-550v108h221v405c-30 -33 -90 -58 -177 -58h-37v115h27c113 0 178 51 208 125h111v-587z" />
    <glyph glyph-name="zero.tf.case" 
d="M348 -19c-187 0 -304 121 -304 375s118 375 304 375c188 0 305 -122 305 -375c0 -254 -118 -375 -305 -375zM348 79c111 0 172 84 172 277c0 194 -62 276 -172 276s-171 -82 -172 -276c1 -194 63 -277 172 -277z" />
    <glyph glyph-name="one.tf.case" 
d="M438 108h197v-108h-550v108h221v420c-30 -35 -90 -60 -177 -60h-37v115h27c113 0 178 52 208 127h111v-602z" />
    <glyph glyph-name="two.tf.case" 
d="M63 0v95c112 63 223 138 305 210c80 72 106 124 106 196c0 77 -46 127 -131 127c-83 0 -136 -48 -140 -130c0 -13 2 -29 4 -46l-132 14c-3 16 -3 29 -3 43c4 138 119 222 274 222c169 0 264 -84 264 -224c0 -90 -38 -163 -129 -246c-62 -54 -135 -101 -238 -155h383v-106
h-563z" />
    <glyph glyph-name="three.tf.case" 
d="M350 -19c-178 0 -284 93 -291 228l132 13c7 -85 61 -142 161 -142c94 0 149 44 149 125c0 76 -57 116 -151 116h-49l1 89h44c85 0 135 45 135 115c0 65 -44 106 -133 106c-97 0 -148 -58 -149 -151l-130 18c0 131 99 232 283 232c168 0 263 -77 263 -197
c0 -86 -67 -144 -142 -159c97 -15 163 -75 163 -177c0 -129 -107 -216 -286 -216z" />
    <glyph glyph-name="four.tf.case" 
d="M409 0v172h-374v83l353 455h145v-443h123v-95h-123v-172h-124zM159 267h250v251c0 28 0 50 3 86h-2c-11 -27 -22 -44 -48 -81l-152 -197c-20 -29 -34 -44 -51 -59z" />
    <glyph glyph-name="five.tf.case" 
d="M345 -19c-153 0 -259 79 -278 201l130 15c14 -68 68 -115 153 -115c95 0 147 58 147 153c0 92 -45 155 -145 155c-73 0 -124 -38 -146 -99l-119 12l42 407h458v-103h-359l-24 -210c35 51 98 86 186 86c149 0 239 -94 239 -245c0 -152 -107 -257 -284 -257z" />
    <glyph glyph-name="six.tf.case" 
d="M386 480c154 0 250 -91 250 -244c0 -151 -108 -255 -276 -255c-194 0 -302 131 -302 365c0 243 110 385 305 385c144 0 242 -68 266 -189l-132 -22c-18 75 -65 110 -137 110c-110 0 -170 -88 -173 -250c37 62 106 100 199 100zM361 81c90 0 144 62 144 153
c0 94 -55 148 -144 148c-83 0 -144 -49 -168 -134c18 -106 77 -167 168 -167z" />
    <glyph glyph-name="seven.tf.case" 
d="M210 0v13c0 212 102 419 276 587h-415v110h557v-99c-169 -157 -271 -359 -271 -585v-26h-147z" />
    <glyph glyph-name="eight.tf.case" 
d="M489 386c100 -34 156 -88 156 -190c0 -131 -112 -215 -294 -215c-185 0 -299 79 -299 205c0 92 52 153 154 178c-84 32 -131 83 -131 171c0 118 111 196 274 196c162 0 270 -73 270 -189c0 -78 -45 -133 -130 -156zM347 641c-88 0 -139 -40 -139 -106
c0 -58 41 -90 121 -109l60 -14c72 29 99 63 99 119c0 69 -50 110 -141 110zM352 77c100 0 159 46 159 121c0 66 -47 100 -136 120l-72 18c-82 -28 -117 -69 -117 -133c0 -77 63 -126 166 -126z" />
    <glyph glyph-name="nine.tf.case" 
d="M334 731c197 0 303 -127 303 -362c0 -233 -97 -388 -298 -388c-149 0 -251 71 -275 195l132 23c17 -75 65 -116 147 -116c110 0 162 99 164 265c-38 -56 -106 -90 -195 -90c-154 0 -257 81 -257 230c0 144 109 243 279 243zM333 356c86 0 152 51 169 123
c-15 87 -66 153 -167 153c-90 0 -149 -55 -149 -143c0 -84 60 -133 147 -133z" />
    <glyph glyph-name="zero.tf.case.zero" 
d="M348 731c188 0 305 -122 305 -375c0 -254 -118 -375 -305 -375s-304 121 -304 375s118 375 304 375zM348 632c-110 0 -171 -82 -172 -276c0 -51 5 -94 13 -130l294 328c-30 54 -75 78 -135 78zM348 79c111 0 172 84 172 277c0 50 -4 92 -12 128l-293 -328
c29 -53 74 -77 133 -77z" />
    <glyph glyph-name="zero.tosf" 
d="M349 -19c-187 0 -309 112 -309 287c0 172 123 286 308 286s309 -114 309 -288c0 -173 -124 -285 -308 -285zM349 83c106 0 176 68 176 182c0 116 -70 186 -177 186c-106 0 -176 -69 -176 -184c0 -116 70 -184 177 -184z" />
    <glyph glyph-name="one.tosf" 
d="M435 99h189v-99h-525v99h208v280c-29 -34 -107 -61 -176 -63h-31v108h23c85 1 175 46 202 111h110v-436z" />
    <glyph glyph-name="two.tosf" 
d="M55 85c108 38 191 70 251 101c119 67 158 111 158 173c0 54 -42 95 -121 95c-84 0 -134 -39 -134 -107c0 -14 1 -25 3 -36l-132 15c-1 12 -2 22 -2 32c0 114 106 196 266 196c161 0 252 -74 252 -185c0 -55 -25 -106 -83 -151c-49 -36 -120 -73 -235 -116h352v-102h-575
v85z" />
    <glyph glyph-name="three.tosf" 
d="M349 -169c-178 0 -283 84 -290 220l132 13c7 -85 59 -134 160 -134c94 0 150 44 150 113c0 76 -57 113 -152 113h-50v89h46c86 0 136 42 136 108c0 62 -44 102 -134 102c-96 0 -147 -54 -148 -145l-130 18c0 129 99 226 281 226c171 0 265 -76 265 -197
c0 -80 -67 -133 -144 -148c99 -14 165 -73 165 -171c0 -118 -107 -207 -287 -207z" />
    <glyph glyph-name="four.tosf" 
d="M413 -150v166h-378v84l355 435h147v-423h124v-96h-124v-166h-124zM161 112h252v238c0 27 0 52 2 81h-2c-12 -25 -28 -50 -47 -74l-149 -184c-20 -25 -38 -45 -56 -61z" />
    <glyph glyph-name="five.tosf" 
d="M344 -169c-152 0 -258 77 -277 194l130 14c14 -65 71 -107 151 -107c96 0 149 63 149 150c0 88 -50 145 -139 145c-74 2 -130 -36 -152 -95l-119 11l41 392h463v-103h-363l-23 -197c34 50 100 86 188 86c147 0 236 -93 236 -236c0 -144 -106 -254 -285 -254z" />
    <glyph glyph-name="six.tosf" 
d="M386 469c154 0 250 -88 250 -238c0 -148 -110 -250 -276 -250c-194 0 -302 128 -302 356c0 239 110 377 305 377c144 0 242 -66 266 -183l-132 -22c-18 71 -65 105 -137 105c-110 0 -169 -86 -173 -242c37 60 107 97 199 97zM361 82c88 0 144 59 144 147
c0 91 -55 143 -144 143c-83 0 -144 -48 -168 -132c18 -101 77 -158 168 -158z" />
    <glyph glyph-name="seven.tosf" 
d="M210 -150v13c0 208 102 399 276 562h-415v110h557v-99c-169 -153 -271 -338 -271 -560v-26h-147z" />
    <glyph glyph-name="eight.tosf" 
d="M489 377c100 -34 156 -87 156 -187c0 -128 -112 -209 -294 -209c-185 0 -299 76 -299 199c0 89 52 150 153 175c-83 31 -130 81 -130 169c0 115 111 190 274 190c162 0 270 -71 270 -183c0 -77 -45 -131 -130 -154zM347 624c-88 0 -139 -37 -139 -100
c0 -57 42 -88 121 -107l60 -14c72 28 99 62 99 116c0 66 -50 105 -141 105zM352 78c100 0 159 43 159 114c0 64 -48 96 -136 118l-71 17c-83 -28 -118 -68 -118 -131c0 -73 63 -118 166 -118z" />
    <glyph glyph-name="nine.tosf" 
d="M334 554c198 0 303 -125 303 -353c0 -223 -97 -370 -298 -370c-150 0 -251 68 -275 187l132 23c17 -69 64 -108 147 -108c111 0 163 94 164 247c-38 -55 -106 -88 -195 -88c-153 0 -257 79 -257 227c0 140 110 235 279 235zM335 189c84 0 147 49 167 117
c-14 85 -62 149 -167 149c-90 0 -149 -52 -149 -135s61 -131 149 -131z" />
    <glyph glyph-name="zero.tosf.zero" 
d="M348 554c185 0 309 -114 309 -288c0 -173 -124 -285 -308 -285c-187 0 -309 112 -309 287c0 172 123 286 308 286zM348 451c-106 0 -176 -69 -176 -184c0 -43 10 -79 27 -108l266 253c-30 25 -70 39 -117 39zM349 83c106 0 176 68 176 182c0 42 -9 78 -26 107l-265 -253
c30 -23 69 -36 115 -36z" />
    <glyph glyph-name="zero.subs" horiz-adv-x="583" 
d="M292 -154c-153 0 -250 99 -250 267c0 170 97 268 250 268c152 0 250 -99 250 -268c0 -168 -98 -267 -250 -267zM292 -70c80 0 132 63 132 183c0 121 -52 184 -132 184s-133 -62 -133 -184c0 -120 52 -183 133 -183z" />
    <glyph glyph-name="one.subs" horiz-adv-x="370" 
d="M163 -140v360c-21 -24 -62 -39 -108 -39h-25v98h15c69 0 116 31 137 88h94v-507h-113z" />
    <glyph glyph-name="two.subs" horiz-adv-x="532" 
d="M38 -140v79c165 85 320 165 320 271c0 51 -33 86 -98 86c-62 0 -103 -32 -103 -90c0 -10 1 -21 4 -33l-117 10c-2 12 -3 24 -3 35c0 102 91 163 221 163c134 0 217 -57 217 -162c0 -122 -127 -207 -271 -271h280v-88h-450z" />
    <glyph glyph-name="three.subs" horiz-adv-x="538" 
d="M266 -154c-142 0 -229 65 -232 170l116 10c2 -61 46 -97 117 -97c68 0 110 28 110 80c0 46 -34 74 -110 74h-44v70h41c64 0 101 25 101 72s-38 74 -102 74c-69 0 -109 -35 -109 -99l-115 12c1 102 84 169 226 169c137 0 218 -53 218 -145c0 -65 -51 -104 -117 -114
c83 -9 131 -52 131 -122c0 -95 -90 -154 -231 -154z" />
    <glyph glyph-name="four.subs" horiz-adv-x="547" 
d="M526 -25h-97v-115h-111v115h-298v74l284 318h125v-312h97v-80zM318 278l-191 -223h191v223z" />
    <glyph glyph-name="five.subs" horiz-adv-x="529" 
d="M261 -154c-122 0 -206 56 -221 146l111 15c10 -48 51 -78 111 -78c71 0 113 39 113 101s-41 99 -109 99c-55 0 -96 -26 -110 -68l-102 9l31 297h373v-83h-286l-16 -138c27 39 78 60 145 60c117 0 189 -65 189 -174c0 -113 -88 -186 -229 -186z" />
    <glyph glyph-name="six.subs" horiz-adv-x="542" 
d="M311 203c120 0 194 -64 194 -174c0 -108 -89 -183 -224 -183c-154 0 -241 91 -241 260c0 172 89 275 245 275c117 0 192 -47 211 -135l-112 -15c-13 46 -47 72 -103 72c-81 0 -128 -60 -131 -173c31 48 88 73 161 73zM280 -72c68 0 112 39 112 99c0 61 -43 98 -111 98
c-60 0 -105 -29 -125 -82c15 -77 57 -115 124 -115z" />
    <glyph glyph-name="seven.subs" horiz-adv-x="474" 
d="M129 -140v11c0 155 78 296 211 406h-315v90h427v-84c-120 -103 -198 -232 -198 -401v-22h-125z" />
    <glyph glyph-name="eight.subs" horiz-adv-x="549" 
d="M389 139c86 -26 123 -70 123 -141c0 -94 -90 -152 -238 -152c-147 0 -237 56 -237 144c0 64 40 105 120 123c-73 25 -105 65 -105 127c0 86 86 141 219 141c135 0 221 -52 221 -132c0 -57 -34 -93 -103 -110zM272 308c-66 0 -106 -27 -106 -69c0 -37 29 -60 98 -74l48 -9
c49 17 67 41 67 78c0 47 -40 74 -107 74zM275 -76c74 0 120 30 120 78c0 41 -32 66 -107 82l-53 10c-56 -17 -81 -45 -81 -88c0 -51 46 -82 121 -82z" />
    <glyph glyph-name="nine.subs" horiz-adv-x="542" 
d="M261 381c155 0 241 -86 241 -257c0 -174 -80 -278 -243 -278c-117 0 -194 51 -213 140l111 16c12 -46 48 -75 107 -75c80 0 123 57 128 171c-32 -38 -86 -58 -155 -58c-123 0 -200 63 -200 167s86 174 224 174zM261 118c57 0 104 25 127 66c-12 80 -52 119 -124 119
c-70 0 -114 -37 -114 -94c0 -56 45 -91 111 -91z" />
    <glyph glyph-name="zero.dnom" horiz-adv-x="477" 
d="M238 -10c-124 0 -203 75 -203 204s79 204 203 204s204 -75 204 -205c0 -128 -79 -203 -204 -203zM238 58c67 0 110 45 110 135c0 91 -43 137 -110 137c-66 0 -109 -46 -109 -136c0 -91 42 -136 109 -136z" />
    <glyph glyph-name="one.dnom" horiz-adv-x="300" 
d="M133 0v271c-20 -20 -55 -30 -88 -30h-20v79h13c54 0 92 23 109 67h75v-387h-89z" />
    <glyph glyph-name="two.dnom" horiz-adv-x="432" 
d="M32 0v64c143 67 260 123 260 202c0 40 -30 64 -81 64c-48 0 -84 -22 -84 -68c0 -7 2 -15 4 -24l-94 8c-2 8 -3 17 -3 26c0 80 75 126 179 126c106 0 175 -42 175 -125c0 -97 -114 -162 -214 -203h221v-70h-363z" />
    <glyph glyph-name="three.dnom" horiz-adv-x="436" 
d="M216 -10c-114 0 -184 49 -187 130l92 8c3 -46 38 -72 95 -72c54 0 90 18 90 58c0 34 -26 51 -92 51h-41v62h41c53 0 83 18 83 51c0 36 -33 54 -83 54c-57 0 -90 -26 -91 -73l-90 9c2 80 71 130 184 130c105 0 173 -39 173 -110c0 -49 -40 -81 -93 -87
c67 -8 105 -39 105 -93c0 -75 -76 -118 -186 -118z" />
    <glyph glyph-name="four.dnom" horiz-adv-x="444" 
d="M424 86h-77v-86h-88v86h-240v60l228 241h100v-237h77v-64zM259 314l-154 -164h154v164z" />
    <glyph glyph-name="five.dnom" horiz-adv-x="428" 
d="M212 -10c-98 0 -166 42 -179 110l89 12c8 -35 41 -56 91 -56c57 0 90 28 90 74s-31 74 -87 74c-45 0 -80 -21 -90 -49l-81 7l26 225h299v-64h-231l-13 -103c21 29 63 46 118 46c95 0 151 -51 151 -134c0 -88 -70 -142 -183 -142z" />
    <glyph glyph-name="six.dnom" horiz-adv-x="441" 
d="M252 263c96 0 156 -48 156 -133c0 -83 -71 -140 -179 -140c-124 0 -194 70 -194 198c0 131 71 210 196 210c95 0 155 -35 171 -101l-89 -12c-12 33 -38 50 -85 50c-64 0 -103 -40 -107 -127c25 36 70 55 131 55zM228 55c55 0 91 28 91 72c0 45 -35 72 -90 72
c-51 0 -88 -24 -103 -61c12 -56 46 -83 102 -83z" />
    <glyph glyph-name="seven.dnom" horiz-adv-x="387" 
d="M22 316v71h345v-67c-96 -75 -158 -181 -162 -314v-6h-99v3c3 119 65 232 170 313h-254z" />
    <glyph glyph-name="eight.dnom" horiz-adv-x="445" 
d="M317 213c66 -20 96 -52 96 -107c0 -72 -72 -116 -191 -116c-118 0 -191 42 -191 109c0 49 32 80 93 95c-55 18 -80 48 -80 95c0 66 69 109 176 109c108 0 178 -38 178 -101c0 -43 -28 -70 -81 -84zM220 340c-54 0 -87 -20 -87 -51c0 -29 25 -45 80 -55l39 -7
c41 13 56 30 56 58c0 34 -32 55 -88 55zM223 52c60 0 97 22 97 57c0 32 -24 49 -86 60l-44 9c-45 -14 -66 -34 -66 -66c0 -37 37 -60 99 -60z" />
    <glyph glyph-name="nine.dnom" horiz-adv-x="441" 
d="M213 398c124 0 193 -66 193 -197c0 -134 -65 -211 -195 -211c-94 0 -156 38 -172 106l89 14c10 -33 37 -54 87 -54c64 0 99 40 103 122c-27 -27 -71 -42 -124 -42c-99 0 -161 49 -161 129s69 133 180 133zM212 199c46 0 84 18 104 48c-10 60 -43 88 -101 88
c-57 0 -93 -27 -93 -69c0 -41 35 -67 90 -67z" />
    <glyph glyph-name="zero.numr" horiz-adv-x="477" 
d="M238 313c-124 0 -203 75 -203 204s79 204 203 204s204 -75 204 -205c0 -128 -79 -203 -204 -203zM238 381c67 0 110 45 110 135c0 91 -43 137 -110 137c-66 0 -109 -46 -109 -136c0 -91 42 -136 109 -136z" />
    <glyph glyph-name="one.numr" horiz-adv-x="300" 
d="M133 323v271c-20 -20 -55 -30 -88 -30h-20v79h13c54 0 92 23 109 67h75v-387h-89z" />
    <glyph glyph-name="two.numr" horiz-adv-x="432" 
d="M32 323v64c143 67 260 123 260 202c0 40 -30 64 -81 64c-48 0 -84 -22 -84 -68c0 -7 2 -15 4 -24l-94 8c-2 8 -3 17 -3 26c0 80 75 126 179 126c106 0 175 -42 175 -125c0 -97 -114 -162 -214 -203h221v-70h-363z" />
    <glyph glyph-name="three.numr" horiz-adv-x="436" 
d="M216 313c-114 0 -184 49 -187 130l92 8c3 -46 38 -72 95 -72c54 0 90 18 90 58c0 34 -26 51 -92 51h-41v62h41c53 0 83 18 83 51c0 36 -33 54 -83 54c-57 0 -90 -26 -91 -73l-90 9c2 80 71 130 184 130c105 0 173 -39 173 -110c0 -49 -40 -81 -93 -87
c67 -8 105 -39 105 -93c0 -75 -76 -118 -186 -118z" />
    <glyph glyph-name="four.numr" horiz-adv-x="444" 
d="M424 409h-77v-86h-88v86h-240v60l228 241h100v-237h77v-64zM259 637l-154 -164h154v164z" />
    <glyph glyph-name="five.numr" horiz-adv-x="428" 
d="M212 313c-98 0 -166 42 -179 110l89 12c8 -35 41 -56 91 -56c57 0 90 28 90 74s-31 74 -87 74c-45 0 -80 -21 -90 -49l-81 7l26 225h299v-64h-231l-13 -103c21 29 63 46 118 46c95 0 151 -51 151 -134c0 -88 -70 -142 -183 -142z" />
    <glyph glyph-name="six.numr" horiz-adv-x="441" 
d="M252 586c96 0 156 -48 156 -133c0 -83 -71 -140 -179 -140c-124 0 -194 70 -194 198c0 131 71 210 196 210c95 0 155 -35 171 -101l-89 -12c-12 33 -38 50 -85 50c-64 0 -103 -40 -107 -127c25 36 70 55 131 55zM228 378c55 0 91 28 91 72c0 45 -35 72 -90 72
c-51 0 -88 -24 -103 -61c12 -56 46 -83 102 -83z" />
    <glyph glyph-name="seven.numr" horiz-adv-x="387" 
d="M22 639v71h345v-67c-96 -75 -158 -181 -162 -314v-6h-99v3c3 119 65 232 170 313h-254z" />
    <glyph glyph-name="eight.numr" horiz-adv-x="445" 
d="M317 536c66 -20 96 -52 96 -107c0 -72 -72 -116 -191 -116c-118 0 -191 42 -191 109c0 49 32 80 93 95c-55 18 -80 48 -80 95c0 66 69 109 176 109c108 0 178 -38 178 -101c0 -43 -28 -70 -81 -84zM220 663c-54 0 -87 -20 -87 -51c0 -29 25 -45 80 -55l39 -7
c41 13 56 30 56 58c0 34 -32 55 -88 55zM223 375c60 0 97 22 97 57c0 32 -24 49 -86 60l-44 9c-45 -14 -66 -34 -66 -66c0 -37 37 -60 99 -60z" />
    <glyph glyph-name="nine.numr" horiz-adv-x="441" 
d="M213 721c124 0 193 -66 193 -197c0 -134 -65 -211 -195 -211c-94 0 -156 38 -172 106l89 14c10 -33 37 -54 87 -54c64 0 99 40 103 122c-27 -27 -71 -42 -124 -42c-99 0 -161 49 -161 129s69 133 180 133zM212 522c46 0 84 18 104 48c-10 60 -43 88 -101 88
c-57 0 -93 -27 -93 -69c0 -41 35 -67 90 -67z" />
    <glyph glyph-name="zero.sups" horiz-adv-x="583" 
d="M292 296c-153 0 -250 99 -250 267c0 170 97 268 250 268c152 0 250 -99 250 -268c0 -168 -98 -267 -250 -267zM292 380c80 0 132 63 132 183c0 121 -52 184 -132 184s-133 -62 -133 -184c0 -120 52 -183 133 -183z" />
    <glyph glyph-name="one.sups" horiz-adv-x="370" 
d="M163 310v360c-21 -24 -62 -39 -108 -39h-25v98h15c69 0 116 31 137 88h94v-507h-113z" />
    <glyph glyph-name="two.sups" horiz-adv-x="532" 
d="M38 310v79c165 85 320 165 320 271c0 51 -33 86 -98 86c-62 0 -103 -32 -103 -90c0 -10 1 -21 4 -33l-117 10c-2 12 -3 24 -3 35c0 102 91 163 221 163c134 0 217 -57 217 -162c0 -122 -127 -207 -271 -271h280v-88h-450z" />
    <glyph glyph-name="three.sups" horiz-adv-x="538" 
d="M266 296c-142 0 -229 65 -232 170l116 10c2 -61 46 -97 117 -97c68 0 110 28 110 80c0 46 -34 74 -110 74h-44v70h41c64 0 101 25 101 72s-38 74 -102 74c-69 0 -109 -35 -109 -99l-115 12c1 102 84 169 226 169c137 0 218 -53 218 -145c0 -65 -51 -104 -117 -114
c83 -9 131 -52 131 -122c0 -95 -90 -154 -231 -154z" />
    <glyph glyph-name="four.sups" horiz-adv-x="547" 
d="M526 425h-97v-115h-111v115h-298v74l284 318h125v-312h97v-80zM318 728l-191 -223h191v223z" />
    <glyph glyph-name="five.sups" horiz-adv-x="529" 
d="M261 296c-122 0 -206 56 -221 146l111 15c10 -48 51 -78 111 -78c71 0 113 39 113 101s-41 99 -109 99c-55 0 -96 -26 -110 -68l-102 9l31 297h373v-83h-286l-16 -138c27 39 78 60 145 60c117 0 189 -65 189 -174c0 -113 -88 -186 -229 -186z" />
    <glyph glyph-name="six.sups" horiz-adv-x="542" 
d="M311 653c120 0 194 -64 194 -174c0 -108 -89 -183 -224 -183c-154 0 -241 91 -241 260c0 172 89 275 245 275c117 0 192 -47 211 -135l-112 -15c-13 46 -47 72 -103 72c-81 0 -128 -60 -131 -173c31 48 88 73 161 73zM280 378c68 0 112 39 112 99c0 61 -43 98 -111 98
c-60 0 -105 -29 -125 -82c15 -77 57 -115 124 -115z" />
    <glyph glyph-name="seven.sups" horiz-adv-x="474" 
d="M129 310v11c0 155 78 296 211 406h-315v90h427v-84c-120 -103 -198 -232 -198 -401v-22h-125z" />
    <glyph glyph-name="eight.sups" horiz-adv-x="549" 
d="M389 589c86 -26 123 -70 123 -141c0 -94 -90 -152 -238 -152c-147 0 -237 56 -237 144c0 64 40 105 120 123c-73 25 -105 65 -105 127c0 86 86 141 219 141c135 0 221 -52 221 -132c0 -57 -34 -93 -103 -110zM272 758c-66 0 -106 -27 -106 -69c0 -37 29 -60 98 -74l48 -9
c49 17 67 41 67 78c0 47 -40 74 -107 74zM275 374c74 0 120 30 120 78c0 41 -32 66 -107 82l-53 10c-56 -17 -81 -45 -81 -88c0 -51 46 -82 121 -82z" />
    <glyph glyph-name="nine.sups" horiz-adv-x="542" 
d="M261 831c155 0 241 -86 241 -257c0 -174 -80 -278 -243 -278c-117 0 -194 51 -213 140l111 16c12 -46 48 -75 107 -75c80 0 123 57 128 171c-32 -38 -86 -58 -155 -58c-123 0 -200 63 -200 167s86 174 224 174zM261 568c57 0 104 25 127 66c-12 80 -52 119 -124 119
c-70 0 -114 -37 -114 -94c0 -56 45 -91 111 -91z" />
    <glyph glyph-name="backslash.case" horiz-adv-x="567" 
d="M402 -86l-358 877h121l359 -877h-122z" />
    <glyph glyph-name="periodcentered.case" horiz-adv-x="296" 
d="M226 441v-139h-155v139h155z" />
    <glyph glyph-name="bullet.case" horiz-adv-x="364" 
d="M181 263c-63 0 -110 44 -110 109c0 67 47 111 110 111c65 0 112 -43 112 -111c0 -65 -47 -109 -112 -109z" />
    <glyph glyph-name="colon.case" horiz-adv-x="296" 
d="M226 550v-139h-155v139h155zM226 139v-139h-155v139h155z" />
    <glyph glyph-name="exclamdown.case" horiz-adv-x="350" 
d="M252 595h-154v130h154v-130zM123 514h103l26 -514h-154z" />
    <glyph glyph-name="questiondown.case" horiz-adv-x="610" 
d="M392 716v-130h-152v130h152zM381 522v-41c0 -48 -17 -91 -78 -130l-67 -40c-45 -28 -78 -59 -78 -119c0 -64 54 -112 144 -112c95 0 159 48 159 134c0 16 -1 31 -6 52l133 -13c5 -21 6 -39 6 -53c0 -131 -107 -221 -292 -221c-176 0 -280 79 -280 206
c0 86 53 140 116 180l64 40c39 24 52 48 52 89v28h127z" />
    <glyph glyph-name="semicolon.case" horiz-adv-x="296" 
d="M226 550v-139h-155v139h155zM105 -150l-24 58c56 17 71 44 71 89v3h-78v145h152v-134c0 -84 -31 -136 -121 -161z" />
    <glyph glyph-name="slash.case" horiz-adv-x="567" 
d="M165 -86h-122l359 877h121z" />
    <glyph glyph-name="underscore.case" horiz-adv-x="535" 
d="M0 -20h535v-78h-535v78z" />
    <glyph glyph-name="asterisk.ss04" horiz-adv-x="290" 
d="M146 710l-31 -93h-97l79 -57l-30 -93l79 57l79 -57l-31 93l79 57h-97z" />
    <glyph glyph-name="braceleft.case" horiz-adv-x="382" 
d="M291 -86c-113 0 -172 48 -172 149v155c0 59 -7 98 -84 100v85c78 2 83 34 83 97v146c0 97 65 152 179 152h60v-89h-32c-60 0 -88 -28 -88 -87v-117c0 -68 -16 -124 -87 -143c71 -24 86 -84 86 -151v-126c0 -59 30 -82 86 -82h37v-89h-68z" />
    <glyph glyph-name="braceright.case" horiz-adv-x="382" 
d="M91 -86h-68v89h37c56 0 86 23 86 82v126c0 67 15 127 86 151c-71 19 -87 75 -87 143v117c0 59 -28 87 -88 87h-32v89h60c114 0 179 -55 179 -152v-146c0 -63 5 -95 83 -97v-85c-77 -2 -84 -41 -84 -100v-155c0 -101 -59 -149 -172 -149z" />
    <glyph glyph-name="bracketleft.case" horiz-adv-x="375" 
d="M95 -80v876h257v-92h-140v-692h140v-92h-257z" />
    <glyph glyph-name="bracketright.case" horiz-adv-x="375" 
d="M280 -80h-257v92h140v692h-140v92h257v-876z" />
    <glyph glyph-name="parenleft.case" horiz-adv-x="358" 
d="M255 -108c-124 125 -197 296 -197 466c0 171 75 338 199 456l94 -45c-117 -129 -167 -260 -167 -413s51 -287 167 -418z" />
    <glyph glyph-name="parenright.case" horiz-adv-x="358" 
d="M103 -108l-96 46c116 131 167 265 167 418s-50 284 -167 413l94 45c124 -118 199 -285 199 -456c0 -170 -73 -341 -197 -466z" />
    <glyph glyph-name="parenleft.subs" horiz-adv-x="301" 
d="M210 -241c-88 91 -142 214 -142 340s55 245 143 331l84 -32c-83 -92 -122 -189 -122 -300c0 -112 40 -212 123 -306z" />
    <glyph glyph-name="parenright.subs" horiz-adv-x="301" 
d="M91 -241l-86 33c83 94 123 194 123 306c0 111 -39 208 -122 300l84 32c88 -86 143 -205 143 -331c0 -125 -54 -249 -142 -340z" />
    <glyph glyph-name="parenleft.sups" horiz-adv-x="301" 
d="M210 209c-88 91 -142 215 -142 340c0 126 55 245 143 331l84 -32c-83 -92 -122 -189 -122 -300c0 -112 40 -212 123 -306z" />
    <glyph glyph-name="parenright.sups" horiz-adv-x="301" 
d="M91 209l-86 33c83 94 123 194 123 306c0 111 -39 208 -122 300l84 32c88 -86 143 -205 143 -331c0 -125 -54 -249 -142 -340z" />
    <glyph glyph-name="emdash.case" horiz-adv-x="926" 
d="M49 404h828v-103h-828v103z" />
    <glyph glyph-name="endash.case" horiz-adv-x="655" 
d="M49 403h557v-101h-557v101z" />
    <glyph glyph-name="hyphen.case" horiz-adv-x="493" 
d="M49 406h394v-106h-394v106z" />
    <glyph glyph-name="guillemotleft.case" horiz-adv-x="613" 
d="M225 142l-199 209l202 206h126l-197 -206l196 -209h-128zM466 142l-199 209l202 206h126l-197 -206l196 -209h-128z" />
    <glyph glyph-name="guillemotright.case" horiz-adv-x="613" 
d="M147 142h-128l196 209l-197 206h126l202 -206zM388 142h-128l196 209l-197 206h126l202 -206z" />
    <glyph glyph-name="guilsinglleft.case" horiz-adv-x="373" 
d="M225 142l-199 208l202 207h126l-197 -206l196 -209h-128z" />
    <glyph glyph-name="guilsinglright.case" horiz-adv-x="373" 
d="M148 142h-128l196 209l-197 206h126l202 -206z" />
    <glyph glyph-name="uni0E3F" unicode="&#xe3f;" horiz-adv-x="775" 
d="M578 361c97 -16 148 -72 148 -165c0 -126 -93 -196 -247 -196h-61v-105h-60v105h-263v695h263v93h60v-93h47c154 0 242 -63 242 -180c0 -78 -47 -134 -129 -154zM224 600v-203h134v203h-134zM446 600h-28v-203h28c82 0 126 37 126 105c0 64 -44 98 -126 98zM224 94h134
v218h-134v-218zM460 94c84 0 131 39 131 112c0 68 -46 106 -128 106h-45v-218h42z" />
    <glyph glyph-name="uni20BA" unicode="&#x20ba;" horiz-adv-x="669" 
d="M536 252l122 -20c-28 -117 -99 -232 -300 -232h-243v267l-90 -22v67l90 22v78l-90 -22v67l90 22v216h134v-184l278 68v-66l-278 -68v-78l278 68v-67l-278 -68v-195h90c127 0 175 73 197 147z" />
    <glyph glyph-name="uni20BD" unicode="&#x20bd;" horiz-adv-x="706" 
d="M428 267h-182v-78h213v-63h-213v-126h-133v126h-95v63h95v78h-94v91h94v337h317c158 0 257 -82 257 -212c0 -134 -99 -216 -259 -216zM246 593v-235h164c84 0 136 45 136 119c0 72 -52 116 -136 116h-164z" />
    <glyph glyph-name="uni20B9" unicode="&#x20b9;" horiz-adv-x="683" 
d="M660 695v-83h-201c30 -26 47 -61 53 -103h148v-62h-148c-12 -105 -95 -176 -254 -181h-17l263 -266h-160l-272 283v64h149c94 0 143 34 154 100h-303v62h302c-11 65 -59 103 -143 103h-159v83h588z" />
    <glyph glyph-name="uni20A9" unicode="&#x20a9;" horiz-adv-x="1105" 
d="M1078 393h-90l-22 -77h112v-59h-130l-75 -257h-149l-76 257h-191l-76 -257h-150l-75 257h-129v59h112l-23 77h-89v59h72l-71 243h128l61 -243h197l73 243h131l73 -243h196l61 243h129l-71 -243h72v-59zM522 479l-8 -27h77l-8 27c-15 51 -22 87 -28 131h-5
c-6 -44 -13 -80 -28 -131zM232 393l19 -77h121l24 77h-164zM474 316h157l-23 77h-111zM854 316l19 77h-164l24 -77h121zM338 202l17 55h-89l13 -52c15 -55 20 -80 25 -121h4c5 41 12 65 30 118zM826 205l13 52h-89l17 -55c18 -53 25 -77 30 -118h4c5 41 10 66 25 121z" />
    <glyph glyph-name="uni0E3F.case" horiz-adv-x="775" 
d="M578 369c97 -15 148 -72 148 -167c0 -129 -93 -202 -247 -202h-61v-91h-60v91h-263v710h263v84h60v-84h47c154 0 242 -65 242 -184c0 -79 -47 -136 -129 -157zM224 615v-209h134v209h-134zM446 615h-28v-209h28c82 0 126 37 126 107c0 66 -44 102 -126 102zM224 95h134
v225h-134v-225zM460 95c84 0 131 41 131 117c0 70 -46 108 -128 108h-45v-225h42z" />
    <glyph glyph-name="uni0E3F.tf" 
d="M497 358c95 -14 148 -74 148 -164c0 -130 -92 -194 -242 -194h-34v-107h-61v107h-228v695h228v89h61v-89h22c147 0 236 -58 236 -180c0 -79 -49 -136 -130 -157zM308 603h-107v-209h107v209zM378 603h-9v-209h7c80 0 123 36 123 110c0 71 -42 99 -121 99zM201 92h107v215
h-107v-215zM388 92c84 0 130 33 130 112c0 68 -47 103 -126 103h-23v-215h19z" />
    <glyph glyph-name="uni0E3F.tf.tf.case" 
d="M497 366c95 -14 148 -74 148 -166c0 -134 -92 -200 -242 -200h-34v-91h-61v91h-228v710h228v83h61v-83h22c147 0 236 -60 236 -185c0 -79 -49 -137 -130 -159zM308 618h-107v-215h107v215zM378 618h-9v-215h7c80 0 123 37 123 111c0 75 -42 104 -121 104zM201 92h107v224
h-107v-224zM388 92c84 0 130 35 130 119c0 68 -47 105 -126 105h-23v-224h19z" />
    <glyph glyph-name="uni20BA.case" horiz-adv-x="669" 
d="M536 254l122 -20c-28 -117 -99 -234 -300 -234h-243v270l-90 -22v67l90 22v79l-90 -22v67l90 22v227h134v-194l278 69v-67l-278 -69v-79l278 68v-66l-278 -69v-198h90c127 0 175 74 197 149z" />
    <glyph glyph-name="uni20BA.tf" 
d="M531 252l120 -20c-26 -117 -94 -232 -286 -232h-228v267l-83 -21v67l83 21v78l-83 -21v66l83 21v217h132v-183l253 65v-67l-253 -64v-78l253 64v-66l-253 -65v-196h78c119 0 164 73 184 147z" />
    <glyph glyph-name="uni20BA.tf.tf.case" 
d="M531 255l120 -20c-26 -118 -94 -235 -286 -235h-228v270l-83 -21v68l83 21v79l-83 -21v67l83 21v226h132v-191l253 65v-67l-253 -65v-80l253 65v-67l-253 -65v-200h78c119 0 164 75 184 150z" />
    <glyph glyph-name="uni20BD.case" horiz-adv-x="706" 
d="M428 273h-182v-81h213v-64h-213v-128h-133v128h-95v64h95v81h-94v91h94v346h317c158 0 257 -82 257 -216c0 -135 -99 -221 -259 -221zM246 608v-244h164c84 0 136 49 136 124c0 76 -52 120 -136 120h-164z" />
    <glyph glyph-name="uni20BD.tf" 
d="M406 268h-143v-80h185v-62h-185v-126h-132v126h-86v62h86v80h-85v88h85v339h274c181 0 254 -103 254 -212c0 -112 -73 -215 -253 -215zM263 596v-240h126c98 0 137 58 137 122c0 63 -39 118 -137 118h-126z" />
    <glyph glyph-name="uni20BD.tf.tf.case" 
d="M406 274h-143v-83h185v-63h-185v-128h-132v128h-86v63h86v83h-85v88h85v348h274c163 0 254 -88 254 -215c0 -130 -92 -221 -253 -221zM263 611v-249h126c86 0 137 51 137 128c0 75 -50 121 -137 121h-126z" />
    <glyph glyph-name="uni20B9.case" horiz-adv-x="683" 
d="M660 710v-83h-202c31 -28 49 -65 54 -111h148v-63h-148c-14 -108 -97 -178 -254 -183h-17l263 -270h-160l-272 287v64h149c92 0 141 36 153 102h-302v63h303c-10 71 -58 111 -144 111h-159v83h588z" />
    <glyph glyph-name="uni20B9.tf" 
d="M645 695v-83h-202c30 -27 47 -62 52 -104h150v-63h-150c-12 -100 -84 -177 -238 -180h-11l269 -265h-162l-273 278v67h128c96 0 140 37 150 100h-278v63h277c-10 65 -55 104 -141 104h-136v83h565z" />
    <glyph glyph-name="uni20B9.tf.tf.case" 
d="M645 710v-83h-203c31 -28 48 -66 53 -112h150v-63h-150c-12 -102 -84 -181 -238 -183h-11l269 -269h-162l-273 282v67h128c95 0 139 39 150 103h-278v63h278c-10 69 -54 112 -142 112h-136v83h565z" />
    <glyph glyph-name="uni20A9.case" horiz-adv-x="1105" 
d="M1078 398h-91l-22 -79h113v-59h-130l-75 -260h-149l-75 260h-193l-75 -260h-150l-74 260h-130v59h113l-23 79h-90v59h73l-72 253h128l62 -253h195l74 253h131l74 -253h195l61 253h129l-73 -253h74v-59zM522 492l-10 -35h81l-10 35c-15 52 -22 89 -28 133h-5
c-6 -44 -13 -81 -28 -133zM232 398l20 -79h120l23 79h-163zM472 319h161l-23 79h-115zM853 319l19 79h-162l23 -79h120zM338 203l17 57h-89l13 -53c14 -56 20 -81 25 -122h4c5 40 12 65 30 118zM826 207l13 53h-89l17 -57c18 -53 25 -78 30 -118h4c5 41 11 66 25 122z" />
    <glyph glyph-name="uni20A9.tf" 
d="M663 396h-45l-10 -75h55v-56h-62l-35 -265h-140l-34 265h-87l-34 -265h-140l-35 265h-63v56h56l-10 75h-46v57h38l-32 242h101l23 -242h90l34 242h122l35 -242h89l23 242h101l-32 -242h38v-57zM340 541l-11 -88h38l-11 88c-3 24 -5 42 -5 68h-5c-1 -26 -3 -44 -6 -68z
M169 396l7 -75h58l11 75h-76zM312 321h72l-9 75h-53zM520 321l7 75h-75l11 -75h57zM209 145l17 120h-45l12 -120c3 -25 4 -42 5 -60h4c2 22 4 39 7 60zM503 145l12 120h-44l17 -120c3 -19 5 -37 7 -60h3c1 19 3 37 5 60z" />
    <glyph glyph-name="uni20A9.tf.tf.case" 
d="M663 402h-45l-10 -77h55v-57h-63l-34 -268h-140l-34 268h-88l-33 -268h-140l-35 268h-63v57h56l-10 77h-46v56h39l-33 252h101l24 -252h88l35 252h122l35 -252h88l24 252h101l-32 -252h38v-56zM340 556l-12 -98h40l-12 98c-3 24 -5 42 -5 68h-5c-1 -26 -3 -44 -6 -68z
M169 402l7 -77h58l10 77h-75zM311 325h74l-10 77h-54zM520 325l7 77h-75l11 -77h57zM209 146l17 122h-44l11 -122c3 -25 4 -43 5 -61h4c2 22 4 40 7 61zM503 146l11 122h-43l17 -122c3 -20 5 -37 7 -61h3c1 20 3 37 5 61z" />
    <glyph glyph-name="currency.case" horiz-adv-x="617" 
d="M572 353c0 -58 -18 -107 -51 -146l59 -58l-56 -51l-62 60c-41 -24 -92 -37 -149 -37c-61 0 -114 15 -157 41l-65 -64l-56 52l63 63c-29 37 -46 85 -46 140s17 103 47 141l-64 63l56 52l67 -64c42 26 95 40 155 40c57 0 108 -13 148 -36l65 61l56 -52l-61 -59
c33 -39 51 -89 51 -146zM313 212c93 0 155 57 155 141s-62 140 -155 140c-95 0 -157 -56 -157 -140s62 -141 157 -141z" />
    <glyph glyph-name="dollar.case" horiz-adv-x="724" 
d="M688 201c0 -129 -111 -213 -294 -220v-75h-64v76c-158 9 -270 76 -313 195l112 49c36 -87 104 -132 201 -143v236l-54 7c-149 25 -220 89 -220 202c0 117 103 194 274 201v76h64v-76c139 -8 233 -64 281 -167l-105 -57c-29 72 -85 115 -176 125v-210l58 -7
c161 -27 236 -88 236 -212zM328 428h2v205c-94 -4 -145 -37 -145 -100c0 -58 40 -88 143 -105zM394 81c105 4 163 43 163 114c0 67 -43 95 -148 114l-15 2v-230z" />
    <glyph glyph-name="Euro.case" horiz-adv-x="796" 
d="M655 206l116 -50c-58 -108 -170 -175 -324 -175c-207 0 -324 117 -358 278h-80v63h71c-1 14 -2 29 -2 44c0 10 0 21 1 31h-70v63h78c34 162 159 270 365 270c155 0 262 -60 318 -163l-122 -51c-38 66 -99 108 -200 108c-125 0 -197 -64 -223 -164h346v-63h-356
c-1 -10 -1 -20 -1 -30c0 -15 1 -30 2 -45h355v-63h-343c29 -103 105 -171 224 -171c87 0 159 39 203 118z" />
    <glyph glyph-name="sterling.case" horiz-adv-x="718" 
d="M586 188l122 -19c-18 -116 -98 -186 -214 -186c-99 0 -151 28 -269 28c-57 0 -122 -7 -184 -19l-26 77c98 30 146 88 146 178c0 31 -3 57 -7 81h-111v73h95c-7 31 -13 63 -13 102c0 141 101 227 267 227c148 0 241 -60 268 -173l-127 -28c-16 67 -64 103 -139 103
c-92 0 -137 -44 -137 -127c0 -40 6 -72 14 -104h220v-73h-205c3 -19 5 -39 5 -62c0 -79 -34 -133 -103 -165c28 6 54 9 86 9c79 0 128 -19 204 -19c60 0 99 35 108 97z" />
    <glyph glyph-name="currency.tf.case" 
d="M612 353c0 -58 -18 -107 -51 -146l59 -58l-56 -51l-62 60c-41 -24 -92 -37 -150 -37c-61 0 -114 14 -156 40l-65 -63l-56 52l63 62c-29 38 -46 86 -46 141s17 104 47 142l-64 62l56 52l67 -63c42 25 94 39 154 39c58 0 108 -13 149 -36l65 61l56 -52l-61 -59
c33 -39 51 -89 51 -146zM352 212c94 0 155 57 155 141s-61 140 -155 140s-156 -56 -156 -140s62 -141 156 -141z" />
    <glyph glyph-name="dollar.tf.case" 
d="M653 197c0 -135 -97 -210 -266 -215v-76h-54v77c-154 10 -258 83 -292 208l117 41c27 -89 84 -137 175 -148v227l-57 11c-136 28 -202 98 -202 205c0 123 95 196 259 202v76h54v-77c136 -8 226 -68 257 -181l-111 -45c-17 78 -65 119 -146 129v-217l66 -13
c138 -28 200 -87 200 -204zM319 427l14 -3v209c-87 -4 -134 -36 -134 -101c0 -60 38 -89 120 -105zM387 81c93 2 142 35 142 109c0 60 -35 89 -114 106l-28 5v-220z" />
    <glyph glyph-name="Euro.tf.case" 
d="M400 85c68 0 121 39 156 114l110 -49c-46 -106 -142 -168 -270 -168c-173 0 -277 108 -305 279h-76v61h70c-1 11 -1 23 -1 35v17v24h-69v62h76c28 169 142 270 315 270c125 0 216 -55 261 -158l-115 -52c-30 66 -75 108 -151 108c-95 0 -156 -56 -175 -168h245v-62h-251
v-20v-22c0 -12 0 -23 1 -34h250v-61h-243c20 -116 80 -176 172 -176z" />
    <glyph glyph-name="sterling.tf.case" 
d="M542 188l121 -19c-18 -127 -105 -186 -207 -186c-83 0 -126 28 -225 28c-58 0 -120 -7 -178 -19l-25 78c90 28 141 84 141 179c0 30 -3 56 -7 80h-107v72h90c-9 34 -16 68 -16 109c0 140 97 220 249 220c138 0 222 -61 248 -173l-126 -27c-14 68 -56 105 -122 105
c-76 0 -118 -39 -118 -122c0 -42 7 -77 16 -112h178v-72h-163c3 -20 5 -40 5 -63c0 -84 -38 -136 -104 -166c30 6 57 7 82 7c64 0 104 -17 165 -17c52 0 94 28 103 98z" />
    <glyph glyph-name="yen.tf.case" 
d="M671 710l-248 -384h194v-64h-202v-74h202v-64h-202v-124h-133v124h-203v64h203v74h-203v64h195l-248 384h146l145 -243c15 -26 22 -41 30 -66h2c9 25 16 40 31 66l144 243h147z" />
    <glyph glyph-name="yen.case" horiz-adv-x="699" 
d="M702 710l-275 -382h210v-65h-221v-63h221v-65h-221v-135h-133v135h-219v65h219v63h-219v65h208l-275 382h151l141 -203c22 -34 42 -65 60 -102h3c18 37 38 68 61 102l141 203h148z" />
    <glyph glyph-name="currency.tf" 
d="M612 303c0 -58 -18 -107 -51 -146l59 -58l-56 -51l-62 60c-41 -24 -92 -37 -150 -37c-61 0 -114 14 -156 40l-65 -63l-56 52l63 62c-29 38 -46 86 -46 141s17 104 47 142l-64 62l56 52l67 -63c42 25 94 39 154 39c58 0 108 -13 149 -36l65 61l56 -52l-61 -59
c33 -39 51 -89 51 -146zM352 162c94 0 155 57 155 141s-61 140 -155 140s-156 -56 -156 -140s62 -141 156 -141z" />
    <glyph glyph-name="plus.case" horiz-adv-x="622" 
d="M572 425v-91h-210v-198h-103v198h-210v91h210v186h103v-186h210z" />
    <glyph glyph-name="minus.case" horiz-adv-x="622" 
d="M49 330v96h523v-96h-523z" />
    <glyph glyph-name="multiply.case" 
d="M614 559l-195 -182l195 -182l-69 -68l-197 184l-197 -183l-68 66l195 183l-195 182l69 67l196 -183l196 183z" />
    <glyph glyph-name="divide.case" horiz-adv-x="622" 
d="M309 500c-36 0 -62 26 -62 62c0 37 26 63 62 63s62 -25 62 -63c0 -36 -26 -62 -62 -62zM49 330v93h523v-93h-523zM309 128c-36 0 -62 25 -62 62s26 62 62 62s62 -25 62 -62s-26 -62 -62 -62z" />
    <glyph glyph-name="equal.case" horiz-adv-x="617" 
d="M49 428v93h519v-93h-519zM49 237v93h519v-93h-519z" />
    <glyph glyph-name="notequal.case" 
d="M592 428h-191l-44 -98h235v-93h-277l-56 -124h-72l56 124h-170v93h212l44 98h-256v93h298l54 120h72l-54 -120h149v-93z" />
    <glyph glyph-name="greater.case" 
d="M115 128v101l391 148l-391 147v100l507 -203v-90z" />
    <glyph glyph-name="less.case" 
d="M582 128l-507 203v90l507 203v-100l-391 -147l391 -148v-101z" />
    <glyph glyph-name="greaterequal.case" 
d="M102 185v101l391 148l-391 147v100l507 -203v-90zM606 139v-89h-504v89h504z" />
    <glyph glyph-name="lessequal.case" 
d="M595 185l-507 203v90l507 203v-100l-391 -147l391 -148v-101zM91 139h504v-89h-504v89z" />
    <glyph glyph-name="plusminus.case" 
d="M398 432h212v-92h-212v-154h-102v154h-210v92h210v157h102v-157zM86 50v93h524v-93h-524z" />
    <glyph glyph-name="approxequal.case" 
d="M475 405c-86 0 -175 57 -250 57c-52 0 -104 -19 -136 -45v94c29 26 86 45 135 45c100 0 173 -57 250 -57c52 0 103 19 134 45v-95c-27 -26 -83 -44 -133 -44zM475 212c-86 0 -175 57 -250 57c-52 0 -104 -19 -136 -45v95c29 26 86 44 135 44c100 0 173 -57 250 -57
c52 0 103 19 134 45v-94c-27 -26 -83 -45 -133 -45z" />
    <glyph glyph-name="asciitilde.case" 
d="M453 274c-99 0 -139 77 -205 77c-42 0 -69 -24 -80 -69l-85 17c18 90 81 137 161 137c100 0 141 -77 206 -77c42 0 67 25 79 71l84 -16c-19 -94 -83 -140 -160 -140z" />
    <glyph glyph-name="logicalnot.case" 
d="M88 430h508v-253h-96v160h-412v93z" />
    <glyph glyph-name="infinity.case" horiz-adv-x="700" 
d="M501 531c87 0 150 -58 150 -152c0 -92 -65 -154 -151 -154c-66 0 -116 34 -152 81c-37 -49 -81 -81 -149 -81c-87 0 -150 58 -150 152c0 92 65 154 151 154c66 0 115 -34 151 -81c38 49 82 81 150 81zM210 311c43 0 67 26 93 66c-27 42 -54 68 -95 68
c-40 0 -68 -25 -68 -67s29 -67 70 -67zM492 311c40 0 67 25 67 67s-28 67 -69 67c-43 0 -67 -26 -93 -66c27 -42 53 -68 95 -68z" />
    <glyph glyph-name="emptyset.case" horiz-adv-x="605" 
d="M569 564l-61 -58c35 -39 55 -91 55 -151c0 -139 -104 -233 -261 -233c-62 0 -117 15 -159 42l-64 -60l-44 41l62 58c-35 39 -55 91 -55 151c0 138 104 233 261 233c62 0 116 -15 159 -42l64 60zM146 355c0 -33 9 -61 24 -83l219 205c-23 13 -53 20 -86 20
c-96 0 -157 -57 -157 -142zM458 354c0 32 -8 61 -24 83l-219 -205c24 -13 53 -21 87 -21c96 0 156 57 156 143z" />
    <glyph glyph-name="plus.tf.case" 
d="M609 425v-91h-210v-198h-103v198h-210v91h210v186h103v-186h210z" />
    <glyph glyph-name="minus.tf.case" 
d="M86 330v96h523v-96h-523z" />
    <glyph glyph-name="divide.tf.case" 
d="M340 500c-36 0 -62 26 -62 62c0 37 26 63 62 63s62 -25 62 -63c0 -36 -26 -62 -62 -62zM80 330v93h523v-93h-523zM340 128c-36 0 -62 25 -62 62s26 62 62 62s62 -25 62 -62s-26 -62 -62 -62z" />
    <glyph glyph-name="equal.tf.case" 
d="M73 428v93h519v-93h-519zM73 237v93h519v-93h-519z" />
    <glyph glyph-name="emptyset.tf.case" 
d="M616 564l-62 -58c35 -39 55 -91 55 -151c0 -139 -104 -233 -261 -233c-62 0 -117 15 -159 42l-64 -60l-44 41l62 58c-35 39 -55 91 -55 151c0 138 104 233 261 233c62 0 116 -15 159 -42l64 60zM192 355c0 -33 9 -61 24 -83l219 205c-23 13 -53 20 -86 20
c-96 0 -157 -57 -157 -142zM505 354c0 32 -9 61 -24 83l-220 -205c24 -13 53 -21 87 -21c96 0 157 57 157 143z" />
    <glyph glyph-name="plus.subs" horiz-adv-x="488" 
d="M443 135v-70h-161v-145h-77v145h-160v70h160v137h77v-137h161z" />
    <glyph glyph-name="minus.subs" horiz-adv-x="488" 
d="M45 64v72h398v-72h-398z" />
    <glyph glyph-name="multiply.subs" horiz-adv-x="539" 
d="M470 232l-146 -133l146 -133l-53 -52l-147 135l-147 -134l-53 50l146 133l-146 134l53 50l147 -134l146 134z" />
    <glyph glyph-name="divide.subs" horiz-adv-x="488" 
d="M242 188c-28 0 -49 19 -49 48c0 30 21 49 49 49s50 -19 50 -49c0 -29 -22 -48 -50 -48zM45 64v71h398v-71h-398zM242 -87c-28 0 -49 19 -49 48s21 49 49 49s50 -19 50 -49c0 -29 -22 -48 -50 -48z" />
    <glyph glyph-name="plus.sups" horiz-adv-x="488" 
d="M443 585v-70h-161v-145h-77v145h-160v70h160v137h77v-137h161z" />
    <glyph glyph-name="minus.sups" horiz-adv-x="488" 
d="M45 514v72h398v-72h-398z" />
    <glyph glyph-name="multiply.sups" horiz-adv-x="539" 
d="M470 682l-146 -133l146 -133l-53 -52l-147 135l-147 -134l-53 50l146 133l-146 134l53 50l147 -134l146 134z" />
    <glyph glyph-name="divide.sups" horiz-adv-x="488" 
d="M242 638c-28 0 -49 19 -49 48c0 30 21 49 49 49s50 -19 50 -49c0 -29 -22 -48 -50 -48zM45 514v71h398v-71h-398zM242 363c-28 0 -49 19 -49 48s21 49 49 49s50 -19 50 -49c0 -29 -22 -48 -50 -48z" />
    <glyph glyph-name="plus.tf" 
d="M609 375v-91h-210v-198h-103v198h-210v91h210v186h103v-186h210z" />
    <glyph glyph-name="minus.tf" 
d="M86 280v96h523v-96h-523z" />
    <glyph glyph-name="divide.tf" 
d="M340 450c-36 0 -62 26 -62 62c0 37 26 63 62 63s62 -25 62 -63c0 -36 -26 -62 -62 -62zM80 280v93h523v-93h-523zM340 78c-36 0 -62 25 -62 62s26 62 62 62s62 -25 62 -62s-26 -62 -62 -62z" />
    <glyph glyph-name="equal.tf" 
d="M73 378v93h519v-93h-519zM73 187v93h519v-93h-519z" />
    <glyph glyph-name="emptyset.tf" 
d="M616 514l-62 -58c35 -39 55 -91 55 -151c0 -139 -104 -233 -261 -233c-62 0 -117 15 -159 42l-64 -60l-44 41l62 58c-35 39 -55 91 -55 151c0 138 104 233 261 233c62 0 116 -15 159 -42l64 60zM192 305c0 -33 9 -61 24 -83l219 205c-23 13 -53 20 -86 20
c-96 0 -157 -57 -157 -142zM505 304c0 32 -9 61 -24 83l-220 -205c24 -13 53 -21 87 -21c96 0 157 57 157 143z" />
    <glyph glyph-name="arrowup" unicode="&#x2191;" horiz-adv-x="463" 
d="M194 -35v603h-99l137 182l136 -182h-99v-603h-75z" />
    <glyph glyph-name="uni2197" unicode="&#x2197;" horiz-adv-x="916" 
d="M735 572l-587 -588l-53 55l587 587l-83 85h222v-229z" />
    <glyph glyph-name="arrowright" unicode="&#x2192;" horiz-adv-x="1143" 
d="M95 366h771v100l182 -136l-182 -136v100h-771v72z" />
    <glyph glyph-name="uni2198" unicode="&#x2198;" horiz-adv-x="916" 
d="M735 150l86 90v-229h-222l83 85l-587 587l53 55z" />
    <glyph glyph-name="arrowdown" unicode="&#x2193;" horiz-adv-x="463" 
d="M269 745v-603h99l-137 -182l-136 182h99v603h75z" />
    <glyph glyph-name="uni2199" unicode="&#x2199;" horiz-adv-x="916" 
d="M181 150l587 588l53 -55l-587 -587l83 -85h-222v229z" />
    <glyph glyph-name="arrowleft" unicode="&#x2190;" horiz-adv-x="1143" 
d="M1048 294h-771v-100l-182 136l182 136v-100h771v-72z" />
    <glyph glyph-name="uni2196" unicode="&#x2196;" horiz-adv-x="916" 
d="M181 571l-86 -90v229h222l-83 -85l587 -587l-53 -55z" />
    <glyph glyph-name="arrowboth" unicode="&#x2194;" horiz-adv-x="1112" 
d="M835 294h-558v-100l-182 136l182 136v-100h558v100l182 -136l-182 -136v100z" />
    <glyph glyph-name="arrowupdn" unicode="&#x2195;" horiz-adv-x="463" 
d="M95 142h99v426h-99l137 182l136 -182h-99v-426h99l-136 -181z" />
    <glyph glyph-name="uni21A9" unicode="&#x21a9;" horiz-adv-x="1102" 
d="M277 194l-182 136l182 136v-100h485c109 0 164 46 164 128c0 83 -55 126 -164 126h-312v72h320c152 0 237 -71 237 -198s-85 -200 -245 -200h-485v-100z" />
    <glyph glyph-name="uni21AA" unicode="&#x21aa;" horiz-adv-x="1102" 
d="M825 194v100h-485c-160 0 -245 73 -245 200s85 198 237 198h320v-72h-312c-109 0 -164 -43 -164 -126c0 -82 55 -128 164 -128h485v100l182 -136z" />
    <glyph glyph-name="uni21B0" unicode="&#x21b0;" horiz-adv-x="1006" 
d="M834 0v564h-557v-100l-182 136l182 136v-100h633v-636h-76z" />
    <glyph glyph-name="uni21B1" unicode="&#x21b1;" horiz-adv-x="1006" 
d="M172 0h-76v636h633v100l182 -136l-182 -136v100h-557v-564z" />
    <glyph glyph-name="uni21B2" unicode="&#x21b2;" horiz-adv-x="1006" 
d="M834 710h76v-636h-633v-100l-182 136l182 136v-100h557v564z" />
    <glyph glyph-name="uni21B3" unicode="&#x21b3;" horiz-adv-x="1006" 
d="M172 710v-564h557v100l182 -136l-182 -136v100h-633v636h76z" />
    <glyph glyph-name="uni21B4" unicode="&#x21b4;" horiz-adv-x="1098" 
d="M905 719v-558h97l-136 -182l-136 182h99v486h-734v72h810z" />
    <glyph glyph-name="uni21BB" unicode="&#x21bb;" horiz-adv-x="1111" 
d="M880 188l-137 182h100c-9 173 -153 285 -335 285c-187 0 -332 -118 -332 -301c0 -182 145 -302 332 -302c101 0 197 37 261 99l49 -59c-78 -73 -186 -114 -310 -114c-231 0 -413 152 -413 375s180 376 413 376c227 0 404 -145 413 -359h95z" />
    <glyph glyph-name="uni21C4" unicode="&#x21c4;" horiz-adv-x="1175" 
d="M1012 413h-735v-100l-182 136l182 137v-101h735v-72zM898 247v100l182 -136l-182 -137v101h-734v72h734z" />
    <glyph glyph-name="uni21C5" unicode="&#x21c5;" horiz-adv-x="712" 
d="M442 30v540h-98l136 182l137 -182h-99v-540h-76zM232 -40l-137 182h99v541h75v-541h99z" />
    <glyph glyph-name="uni21BB.alt" horiz-adv-x="1072" 
d="M943 370h96l-137 -182l-136 182h100c-4 165 -129 285 -326 285c-108 0 -196 -36 -264 -97l-50 57c74 68 183 114 321 114c235 0 392 -153 396 -359zM530 52c108 0 196 35 264 96l50 -57c-74 -68 -183 -113 -321 -113c-234 0 -391 150 -396 356h-94l136 182l137 -182h-102
c5 -165 129 -282 326 -282z" />
    <glyph glyph-name="arrowup.ss03" horiz-adv-x="802" 
d="M349 569l-187 -201l-67 76l307 306l305 -306l-66 -76l-189 201v-604h-103v604z" />
    <glyph glyph-name="uni2197.ss03" horiz-adv-x="923" 
d="M734 545l-565 -570l-73 75l569 568l-273 -4v96h436v-437h-99z" />
    <glyph glyph-name="arrowright.ss03" horiz-adv-x="1148" 
d="M872 280h-777v98h777l-200 192l74 66l307 -306l-307 -307l-75 68z" />
    <glyph glyph-name="uni2198.ss03" horiz-adv-x="923" 
d="M734 153l-5 272h99v-437h-436v96l273 -4l-569 568l73 75z" />
    <glyph glyph-name="arrowdown.ss03" horiz-adv-x="802" 
d="M349 141v604h103v-604l189 201l66 -76l-305 -306l-307 306l67 76z" />
    <glyph glyph-name="uni2199.ss03" horiz-adv-x="923" 
d="M189 153l565 570l73 -75l-569 -568l273 4v-96h-436v437h99z" />
    <glyph glyph-name="arrowleft.ss03" horiz-adv-x="1148" 
d="M276 280l201 -189l-75 -68l-307 307l307 306l74 -66l-200 -192h777v-98h-777z" />
    <glyph glyph-name="uni2196.ss03" horiz-adv-x="923" 
d="M189 545l5 -272h-99v437h436v-96l-273 4l569 -568l-73 -75z" />
    <glyph glyph-name="circle" unicode="&#x25cb;" horiz-adv-x="871" 
d="M436 -20c-230 0 -403 142 -403 375s173 375 403 375c229 0 402 -142 402 -375s-173 -375 -402 -375zM436 33c193 0 341 123 341 322c0 200 -148 322 -341 322c-194 0 -342 -122 -342 -322c0 -199 148 -322 342 -322z" />
    <glyph glyph-name="circle.invert" horiz-adv-x="871" 
d="M436 -20c-230 0 -403 142 -403 375s173 375 403 375c229 0 402 -142 402 -375s-173 -375 -402 -375z" />
    <glyph glyph-name="uni2105" unicode="&#x2105;" horiz-adv-x="993" 
d="M250 -13h-116l602 746h116zM28 542c0 112 74 190 208 190c104 0 178 -52 193 -136l-104 -15c-9 43 -42 69 -91 69c-64 0 -102 -43 -102 -107c0 -68 38 -112 104 -112c49 0 82 27 90 71l103 -15c-16 -80 -83 -138 -194 -138c-132 0 -207 81 -207 193zM759 -10
c-125 0 -206 75 -206 192c0 115 81 190 205 190c123 0 206 -75 206 -192c0 -116 -83 -190 -205 -190zM859 180c0 69 -39 111 -101 111s-101 -41 -101 -109c0 -71 39 -111 102 -111c61 0 100 41 100 109z" />
    <glyph glyph-name="at.case" horiz-adv-x="914" 
d="M453 -33c-259 0 -420 146 -420 380c0 227 171 386 433 386c257 0 415 -147 415 -366c0 -140 -69 -228 -179 -228c-68 0 -113 29 -129 83c-34 -56 -99 -89 -179 -89c-97 0 -161 49 -161 123c0 78 53 118 177 133l155 16v9c0 63 -31 90 -102 90c-62 0 -99 -25 -103 -72
h-112c5 89 94 149 217 149c137 0 205 -57 205 -176v-119c0 -55 16 -78 56 -78c51 0 83 60 83 157c0 188 -123 305 -342 305c-225 0 -359 -128 -359 -323c0 -193 137 -315 355 -315c70 0 152 16 208 40l28 -57c-66 -32 -149 -48 -246 -48zM429 209c78 0 136 46 136 112v24
l-127 -14c-66 -8 -92 -27 -92 -66c0 -33 33 -56 83 -56z" />
    <glyph glyph-name="section.case" horiz-adv-x="577" 
d="M479 241c36 -25 52 -59 52 -105c0 -98 -91 -156 -248 -156c-133 0 -223 47 -263 134l89 49c34 -64 92 -93 181 -93c79 0 116 20 116 60c0 34 -19 50 -81 65l-152 32c-100 23 -149 70 -149 141c0 46 23 81 69 104c-38 26 -56 61 -56 106c0 95 90 152 243 152
c122 0 210 -43 246 -115l-85 -52c-34 54 -89 79 -168 79c-75 0 -112 -20 -112 -59c0 -34 23 -52 82 -67l155 -33c100 -22 142 -64 142 -138c0 -45 -20 -80 -61 -104zM219 316l162 -36c7 -2 14 -3 21 -5c17 12 25 28 25 50c0 38 -20 56 -76 69l-160 38l-24 6
c-19 -11 -28 -28 -28 -50c0 -38 24 -59 80 -72z" />
    <glyph glyph-name="bar.case" horiz-adv-x="270" 
d="M91 -86v877h88v-877h-88z" />
    <glyph glyph-name="brokenbar.case" horiz-adv-x="270" 
d="M179 800v-376h-88v376h88zM179 303v-380h-88v380h88z" />
    <glyph glyph-name="dagger.case" horiz-adv-x="562" 
d="M332 456v-509h-103v509h-171v84h171v220h103v-220h172v-84h-172z" />
    <glyph glyph-name="daggerdbl.case" horiz-adv-x="562" 
d="M504 456h-172v-206h172v-84h-172v-219h-103v219h-171v84h171v206h-171v84h171v220h103v-220h172v-84z" />
    <glyph glyph-name="registered.ss04" horiz-adv-x="564" 
d="M282 730c151 0 264 -95 264 -248s-113 -248 -264 -248c-150 0 -264 95 -264 248s114 248 264 248zM282 270c127 0 224 81 224 212c0 132 -97 213 -224 213c-126 0 -224 -81 -224 -213c0 -131 98 -212 224 -212zM420 534c0 -36 -21 -65 -60 -76l64 -107h-76l-56 99h-56
v-99h-68v268h152c65 0 100 -32 100 -85zM236 573v-80h63c34 0 50 15 50 40s-16 40 -47 40h-66z" />
    <glyph glyph-name="caronaccentcomb" horiz-adv-x="229" 
d="M86 526l-22 42c41 9 52 22 52 48h-66v94h127v-77c0 -57 -24 -93 -91 -107z" />
    <glyph glyph-name="percentzerotfcomb" 
d="M176 377c-93 0 -154 64 -154 170c0 101 61 167 153 167c90 0 153 -67 153 -170s-63 -167 -152 -167zM176 452c40 0 65 34 65 91v3c0 58 -25 93 -65 93c-42 0 -68 -34 -68 -91v-2c0 -60 26 -94 68 -94z" />
    <glyph glyph-name="uniE000" unicode="&#xe000;" horiz-adv-x="1098" 
d="M193 719h810v-72h-734v-486h99l-136 -182l-136 182h97v558z" />
    </font>
</defs>
</svg>
